G04 #@! TF.GenerationSoftware,KiCad,Pcbnew,(5.1.4)-1*
G04 #@! TF.CreationDate,2020-06-09T23:55:30+02:00*
G04 #@! TF.ProjectId,talkbox,74616c6b-626f-4782-9e6b-696361645f70,1.0*
G04 #@! TF.SameCoordinates,Original*
G04 #@! TF.FileFunction,Soldermask,Bot*
G04 #@! TF.FilePolarity,Negative*
%FSLAX46Y46*%
G04 Gerber Fmt 4.6, Leading zero omitted, Abs format (unit mm)*
G04 Created by KiCad (PCBNEW (5.1.4)-1) date 2020-06-09 23:55:30*
%MOMM*%
%LPD*%
G04 APERTURE LIST*
%ADD10C,0.100000*%
G04 APERTURE END LIST*
D10*
G36*
X99616795Y-117360546D02*
G01*
X99789866Y-117432234D01*
X99789867Y-117432235D01*
X99945627Y-117536310D01*
X100078090Y-117668773D01*
X100078091Y-117668775D01*
X100182166Y-117824534D01*
X100253854Y-117997605D01*
X100290400Y-118181333D01*
X100290400Y-118368667D01*
X100253854Y-118552395D01*
X100182166Y-118725466D01*
X100182165Y-118725467D01*
X100078090Y-118881227D01*
X99945627Y-119013690D01*
X99867218Y-119066081D01*
X99789866Y-119117766D01*
X99616795Y-119189454D01*
X99433067Y-119226000D01*
X99245733Y-119226000D01*
X99062005Y-119189454D01*
X98888934Y-119117766D01*
X98811582Y-119066081D01*
X98733173Y-119013690D01*
X98600710Y-118881227D01*
X98496635Y-118725467D01*
X98496634Y-118725466D01*
X98424946Y-118552395D01*
X98388400Y-118368667D01*
X98388400Y-118181333D01*
X98424946Y-117997605D01*
X98496634Y-117824534D01*
X98600709Y-117668775D01*
X98600710Y-117668773D01*
X98733173Y-117536310D01*
X98888933Y-117432235D01*
X98888934Y-117432234D01*
X99062005Y-117360546D01*
X99245733Y-117324000D01*
X99433067Y-117324000D01*
X99616795Y-117360546D01*
X99616795Y-117360546D01*
G37*
G36*
X97116795Y-117360546D02*
G01*
X97289866Y-117432234D01*
X97289867Y-117432235D01*
X97445627Y-117536310D01*
X97578090Y-117668773D01*
X97578091Y-117668775D01*
X97682166Y-117824534D01*
X97753854Y-117997605D01*
X97790400Y-118181333D01*
X97790400Y-118368667D01*
X97753854Y-118552395D01*
X97682166Y-118725466D01*
X97682165Y-118725467D01*
X97578090Y-118881227D01*
X97445627Y-119013690D01*
X97367218Y-119066081D01*
X97289866Y-119117766D01*
X97116795Y-119189454D01*
X96933067Y-119226000D01*
X96745733Y-119226000D01*
X96562005Y-119189454D01*
X96388934Y-119117766D01*
X96311582Y-119066081D01*
X96233173Y-119013690D01*
X96100710Y-118881227D01*
X95996635Y-118725467D01*
X95996634Y-118725466D01*
X95924946Y-118552395D01*
X95888400Y-118368667D01*
X95888400Y-118181333D01*
X95924946Y-117997605D01*
X95996634Y-117824534D01*
X96100709Y-117668775D01*
X96100710Y-117668773D01*
X96233173Y-117536310D01*
X96388933Y-117432235D01*
X96388934Y-117432234D01*
X96562005Y-117360546D01*
X96745733Y-117324000D01*
X96933067Y-117324000D01*
X97116795Y-117360546D01*
X97116795Y-117360546D01*
G37*
G36*
X94616795Y-117360546D02*
G01*
X94789866Y-117432234D01*
X94789867Y-117432235D01*
X94945627Y-117536310D01*
X95078090Y-117668773D01*
X95078091Y-117668775D01*
X95182166Y-117824534D01*
X95253854Y-117997605D01*
X95290400Y-118181333D01*
X95290400Y-118368667D01*
X95253854Y-118552395D01*
X95182166Y-118725466D01*
X95182165Y-118725467D01*
X95078090Y-118881227D01*
X94945627Y-119013690D01*
X94867218Y-119066081D01*
X94789866Y-119117766D01*
X94616795Y-119189454D01*
X94433067Y-119226000D01*
X94245733Y-119226000D01*
X94062005Y-119189454D01*
X93888934Y-119117766D01*
X93811582Y-119066081D01*
X93733173Y-119013690D01*
X93600710Y-118881227D01*
X93496635Y-118725467D01*
X93496634Y-118725466D01*
X93424946Y-118552395D01*
X93388400Y-118368667D01*
X93388400Y-118181333D01*
X93424946Y-117997605D01*
X93496634Y-117824534D01*
X93600709Y-117668775D01*
X93600710Y-117668773D01*
X93733173Y-117536310D01*
X93888933Y-117432235D01*
X93888934Y-117432234D01*
X94062005Y-117360546D01*
X94245733Y-117324000D01*
X94433067Y-117324000D01*
X94616795Y-117360546D01*
X94616795Y-117360546D01*
G37*
G36*
X130839395Y-117360546D02*
G01*
X131012466Y-117432234D01*
X131012467Y-117432235D01*
X131168227Y-117536310D01*
X131300690Y-117668773D01*
X131300691Y-117668775D01*
X131404766Y-117824534D01*
X131476454Y-117997605D01*
X131513000Y-118181333D01*
X131513000Y-118368667D01*
X131476454Y-118552395D01*
X131404766Y-118725466D01*
X131404765Y-118725467D01*
X131300690Y-118881227D01*
X131168227Y-119013690D01*
X131089818Y-119066081D01*
X131012466Y-119117766D01*
X130839395Y-119189454D01*
X130655667Y-119226000D01*
X130468333Y-119226000D01*
X130284605Y-119189454D01*
X130111534Y-119117766D01*
X130034182Y-119066081D01*
X129955773Y-119013690D01*
X129823310Y-118881227D01*
X129719235Y-118725467D01*
X129719234Y-118725466D01*
X129647546Y-118552395D01*
X129611000Y-118368667D01*
X129611000Y-118181333D01*
X129647546Y-117997605D01*
X129719234Y-117824534D01*
X129823309Y-117668775D01*
X129823310Y-117668773D01*
X129955773Y-117536310D01*
X130111533Y-117432235D01*
X130111534Y-117432234D01*
X130284605Y-117360546D01*
X130468333Y-117324000D01*
X130655667Y-117324000D01*
X130839395Y-117360546D01*
X130839395Y-117360546D01*
G37*
G36*
X128339395Y-117360546D02*
G01*
X128512466Y-117432234D01*
X128512467Y-117432235D01*
X128668227Y-117536310D01*
X128800690Y-117668773D01*
X128800691Y-117668775D01*
X128904766Y-117824534D01*
X128976454Y-117997605D01*
X129013000Y-118181333D01*
X129013000Y-118368667D01*
X128976454Y-118552395D01*
X128904766Y-118725466D01*
X128904765Y-118725467D01*
X128800690Y-118881227D01*
X128668227Y-119013690D01*
X128589818Y-119066081D01*
X128512466Y-119117766D01*
X128339395Y-119189454D01*
X128155667Y-119226000D01*
X127968333Y-119226000D01*
X127784605Y-119189454D01*
X127611534Y-119117766D01*
X127534182Y-119066081D01*
X127455773Y-119013690D01*
X127323310Y-118881227D01*
X127219235Y-118725467D01*
X127219234Y-118725466D01*
X127147546Y-118552395D01*
X127111000Y-118368667D01*
X127111000Y-118181333D01*
X127147546Y-117997605D01*
X127219234Y-117824534D01*
X127323309Y-117668775D01*
X127323310Y-117668773D01*
X127455773Y-117536310D01*
X127611533Y-117432235D01*
X127611534Y-117432234D01*
X127784605Y-117360546D01*
X127968333Y-117324000D01*
X128155667Y-117324000D01*
X128339395Y-117360546D01*
X128339395Y-117360546D01*
G37*
G36*
X125839395Y-117360546D02*
G01*
X126012466Y-117432234D01*
X126012467Y-117432235D01*
X126168227Y-117536310D01*
X126300690Y-117668773D01*
X126300691Y-117668775D01*
X126404766Y-117824534D01*
X126476454Y-117997605D01*
X126513000Y-118181333D01*
X126513000Y-118368667D01*
X126476454Y-118552395D01*
X126404766Y-118725466D01*
X126404765Y-118725467D01*
X126300690Y-118881227D01*
X126168227Y-119013690D01*
X126089818Y-119066081D01*
X126012466Y-119117766D01*
X125839395Y-119189454D01*
X125655667Y-119226000D01*
X125468333Y-119226000D01*
X125284605Y-119189454D01*
X125111534Y-119117766D01*
X125034182Y-119066081D01*
X124955773Y-119013690D01*
X124823310Y-118881227D01*
X124719235Y-118725467D01*
X124719234Y-118725466D01*
X124647546Y-118552395D01*
X124611000Y-118368667D01*
X124611000Y-118181333D01*
X124647546Y-117997605D01*
X124719234Y-117824534D01*
X124823309Y-117668775D01*
X124823310Y-117668773D01*
X124955773Y-117536310D01*
X125111533Y-117432235D01*
X125111534Y-117432234D01*
X125284605Y-117360546D01*
X125468333Y-117324000D01*
X125655667Y-117324000D01*
X125839395Y-117360546D01*
X125839395Y-117360546D01*
G37*
G36*
X162062395Y-117360546D02*
G01*
X162235466Y-117432234D01*
X162235467Y-117432235D01*
X162391227Y-117536310D01*
X162523690Y-117668773D01*
X162523691Y-117668775D01*
X162627766Y-117824534D01*
X162699454Y-117997605D01*
X162736000Y-118181333D01*
X162736000Y-118368667D01*
X162699454Y-118552395D01*
X162627766Y-118725466D01*
X162627765Y-118725467D01*
X162523690Y-118881227D01*
X162391227Y-119013690D01*
X162312818Y-119066081D01*
X162235466Y-119117766D01*
X162062395Y-119189454D01*
X161878667Y-119226000D01*
X161691333Y-119226000D01*
X161507605Y-119189454D01*
X161334534Y-119117766D01*
X161257182Y-119066081D01*
X161178773Y-119013690D01*
X161046310Y-118881227D01*
X160942235Y-118725467D01*
X160942234Y-118725466D01*
X160870546Y-118552395D01*
X160834000Y-118368667D01*
X160834000Y-118181333D01*
X160870546Y-117997605D01*
X160942234Y-117824534D01*
X161046309Y-117668775D01*
X161046310Y-117668773D01*
X161178773Y-117536310D01*
X161334533Y-117432235D01*
X161334534Y-117432234D01*
X161507605Y-117360546D01*
X161691333Y-117324000D01*
X161878667Y-117324000D01*
X162062395Y-117360546D01*
X162062395Y-117360546D01*
G37*
G36*
X157062395Y-117360546D02*
G01*
X157235466Y-117432234D01*
X157235467Y-117432235D01*
X157391227Y-117536310D01*
X157523690Y-117668773D01*
X157523691Y-117668775D01*
X157627766Y-117824534D01*
X157699454Y-117997605D01*
X157736000Y-118181333D01*
X157736000Y-118368667D01*
X157699454Y-118552395D01*
X157627766Y-118725466D01*
X157627765Y-118725467D01*
X157523690Y-118881227D01*
X157391227Y-119013690D01*
X157312818Y-119066081D01*
X157235466Y-119117766D01*
X157062395Y-119189454D01*
X156878667Y-119226000D01*
X156691333Y-119226000D01*
X156507605Y-119189454D01*
X156334534Y-119117766D01*
X156257182Y-119066081D01*
X156178773Y-119013690D01*
X156046310Y-118881227D01*
X155942235Y-118725467D01*
X155942234Y-118725466D01*
X155870546Y-118552395D01*
X155834000Y-118368667D01*
X155834000Y-118181333D01*
X155870546Y-117997605D01*
X155942234Y-117824534D01*
X156046309Y-117668775D01*
X156046310Y-117668773D01*
X156178773Y-117536310D01*
X156334533Y-117432235D01*
X156334534Y-117432234D01*
X156507605Y-117360546D01*
X156691333Y-117324000D01*
X156878667Y-117324000D01*
X157062395Y-117360546D01*
X157062395Y-117360546D01*
G37*
G36*
X159562395Y-117360546D02*
G01*
X159735466Y-117432234D01*
X159735467Y-117432235D01*
X159891227Y-117536310D01*
X160023690Y-117668773D01*
X160023691Y-117668775D01*
X160127766Y-117824534D01*
X160199454Y-117997605D01*
X160236000Y-118181333D01*
X160236000Y-118368667D01*
X160199454Y-118552395D01*
X160127766Y-118725466D01*
X160127765Y-118725467D01*
X160023690Y-118881227D01*
X159891227Y-119013690D01*
X159812818Y-119066081D01*
X159735466Y-119117766D01*
X159562395Y-119189454D01*
X159378667Y-119226000D01*
X159191333Y-119226000D01*
X159007605Y-119189454D01*
X158834534Y-119117766D01*
X158757182Y-119066081D01*
X158678773Y-119013690D01*
X158546310Y-118881227D01*
X158442235Y-118725467D01*
X158442234Y-118725466D01*
X158370546Y-118552395D01*
X158334000Y-118368667D01*
X158334000Y-118181333D01*
X158370546Y-117997605D01*
X158442234Y-117824534D01*
X158546309Y-117668775D01*
X158546310Y-117668773D01*
X158678773Y-117536310D01*
X158834533Y-117432235D01*
X158834534Y-117432234D01*
X159007605Y-117360546D01*
X159191333Y-117324000D01*
X159378667Y-117324000D01*
X159562395Y-117360546D01*
X159562395Y-117360546D01*
G37*
G36*
X87259485Y-115128802D02*
G01*
X87409310Y-115158604D01*
X87691574Y-115275521D01*
X87945605Y-115445259D01*
X88161641Y-115661295D01*
X88331379Y-115915326D01*
X88448296Y-116197590D01*
X88507900Y-116497240D01*
X88507900Y-116802760D01*
X88448296Y-117102410D01*
X88331379Y-117384674D01*
X88161641Y-117638705D01*
X87945605Y-117854741D01*
X87691574Y-118024479D01*
X87409310Y-118141396D01*
X87259485Y-118171198D01*
X87109661Y-118201000D01*
X86804139Y-118201000D01*
X86654315Y-118171198D01*
X86504490Y-118141396D01*
X86222226Y-118024479D01*
X85968195Y-117854741D01*
X85752159Y-117638705D01*
X85582421Y-117384674D01*
X85465504Y-117102410D01*
X85405900Y-116802760D01*
X85405900Y-116497240D01*
X85465504Y-116197590D01*
X85582421Y-115915326D01*
X85752159Y-115661295D01*
X85968195Y-115445259D01*
X86222226Y-115275521D01*
X86504490Y-115158604D01*
X86654315Y-115128802D01*
X86804139Y-115099000D01*
X87109661Y-115099000D01*
X87259485Y-115128802D01*
X87259485Y-115128802D01*
G37*
G36*
X169484116Y-115099000D02*
G01*
X169718410Y-115145604D01*
X170000674Y-115262521D01*
X170254705Y-115432259D01*
X170470741Y-115648295D01*
X170640479Y-115902326D01*
X170757396Y-116184590D01*
X170817000Y-116484240D01*
X170817000Y-116789760D01*
X170757396Y-117089410D01*
X170640479Y-117371674D01*
X170470741Y-117625705D01*
X170254705Y-117841741D01*
X170000674Y-118011479D01*
X169718410Y-118128396D01*
X169653054Y-118141396D01*
X169418761Y-118188000D01*
X169113239Y-118188000D01*
X168878946Y-118141396D01*
X168813590Y-118128396D01*
X168531326Y-118011479D01*
X168277295Y-117841741D01*
X168061259Y-117625705D01*
X167891521Y-117371674D01*
X167774604Y-117089410D01*
X167715000Y-116789760D01*
X167715000Y-116484240D01*
X167774604Y-116184590D01*
X167891521Y-115902326D01*
X168061259Y-115648295D01*
X168277295Y-115432259D01*
X168531326Y-115262521D01*
X168813590Y-115145604D01*
X169047884Y-115099000D01*
X169113239Y-115086000D01*
X169418761Y-115086000D01*
X169484116Y-115099000D01*
X169484116Y-115099000D01*
G37*
G36*
X101837654Y-109302818D02*
G01*
X102210911Y-109457426D01*
X102210913Y-109457427D01*
X102546836Y-109681884D01*
X102832516Y-109967564D01*
X102991711Y-110205815D01*
X103056974Y-110303489D01*
X103211582Y-110676746D01*
X103290400Y-111072993D01*
X103290400Y-111477007D01*
X103211582Y-111873254D01*
X103056974Y-112246511D01*
X103056973Y-112246513D01*
X102832516Y-112582436D01*
X102546836Y-112868116D01*
X102210913Y-113092573D01*
X102210912Y-113092574D01*
X102210911Y-113092574D01*
X101837654Y-113247182D01*
X101441407Y-113326000D01*
X101037393Y-113326000D01*
X100641146Y-113247182D01*
X100267889Y-113092574D01*
X100267888Y-113092574D01*
X100267887Y-113092573D01*
X99931964Y-112868116D01*
X99646284Y-112582436D01*
X99421827Y-112246513D01*
X99421826Y-112246511D01*
X99267218Y-111873254D01*
X99188400Y-111477007D01*
X99188400Y-111072993D01*
X99267218Y-110676746D01*
X99421826Y-110303489D01*
X99487090Y-110205815D01*
X99646284Y-109967564D01*
X99931964Y-109681884D01*
X100267887Y-109457427D01*
X100267889Y-109457426D01*
X100641146Y-109302818D01*
X101037393Y-109224000D01*
X101441407Y-109224000D01*
X101837654Y-109302818D01*
X101837654Y-109302818D01*
G37*
G36*
X155483254Y-109302818D02*
G01*
X155856511Y-109457426D01*
X155856513Y-109457427D01*
X156192436Y-109681884D01*
X156478116Y-109967564D01*
X156637311Y-110205815D01*
X156702574Y-110303489D01*
X156857182Y-110676746D01*
X156936000Y-111072993D01*
X156936000Y-111477007D01*
X156857182Y-111873254D01*
X156702574Y-112246511D01*
X156702573Y-112246513D01*
X156478116Y-112582436D01*
X156192436Y-112868116D01*
X155856513Y-113092573D01*
X155856512Y-113092574D01*
X155856511Y-113092574D01*
X155483254Y-113247182D01*
X155087007Y-113326000D01*
X154682993Y-113326000D01*
X154286746Y-113247182D01*
X153913489Y-113092574D01*
X153913488Y-113092574D01*
X153913487Y-113092573D01*
X153577564Y-112868116D01*
X153291884Y-112582436D01*
X153067427Y-112246513D01*
X153067426Y-112246511D01*
X152912818Y-111873254D01*
X152834000Y-111477007D01*
X152834000Y-111072993D01*
X152912818Y-110676746D01*
X153067426Y-110303489D01*
X153132690Y-110205815D01*
X153291884Y-109967564D01*
X153577564Y-109681884D01*
X153913487Y-109457427D01*
X153913489Y-109457426D01*
X154286746Y-109302818D01*
X154682993Y-109224000D01*
X155087007Y-109224000D01*
X155483254Y-109302818D01*
X155483254Y-109302818D01*
G37*
G36*
X164283254Y-109302818D02*
G01*
X164656511Y-109457426D01*
X164656513Y-109457427D01*
X164992436Y-109681884D01*
X165278116Y-109967564D01*
X165437311Y-110205815D01*
X165502574Y-110303489D01*
X165657182Y-110676746D01*
X165736000Y-111072993D01*
X165736000Y-111477007D01*
X165657182Y-111873254D01*
X165502574Y-112246511D01*
X165502573Y-112246513D01*
X165278116Y-112582436D01*
X164992436Y-112868116D01*
X164656513Y-113092573D01*
X164656512Y-113092574D01*
X164656511Y-113092574D01*
X164283254Y-113247182D01*
X163887007Y-113326000D01*
X163482993Y-113326000D01*
X163086746Y-113247182D01*
X162713489Y-113092574D01*
X162713488Y-113092574D01*
X162713487Y-113092573D01*
X162377564Y-112868116D01*
X162091884Y-112582436D01*
X161867427Y-112246513D01*
X161867426Y-112246511D01*
X161712818Y-111873254D01*
X161634000Y-111477007D01*
X161634000Y-111072993D01*
X161712818Y-110676746D01*
X161867426Y-110303489D01*
X161932690Y-110205815D01*
X162091884Y-109967564D01*
X162377564Y-109681884D01*
X162713487Y-109457427D01*
X162713489Y-109457426D01*
X163086746Y-109302818D01*
X163482993Y-109224000D01*
X163887007Y-109224000D01*
X164283254Y-109302818D01*
X164283254Y-109302818D01*
G37*
G36*
X93037654Y-109302818D02*
G01*
X93410911Y-109457426D01*
X93410913Y-109457427D01*
X93746836Y-109681884D01*
X94032516Y-109967564D01*
X94191711Y-110205815D01*
X94256974Y-110303489D01*
X94411582Y-110676746D01*
X94490400Y-111072993D01*
X94490400Y-111477007D01*
X94411582Y-111873254D01*
X94256974Y-112246511D01*
X94256973Y-112246513D01*
X94032516Y-112582436D01*
X93746836Y-112868116D01*
X93410913Y-113092573D01*
X93410912Y-113092574D01*
X93410911Y-113092574D01*
X93037654Y-113247182D01*
X92641407Y-113326000D01*
X92237393Y-113326000D01*
X91841146Y-113247182D01*
X91467889Y-113092574D01*
X91467888Y-113092574D01*
X91467887Y-113092573D01*
X91131964Y-112868116D01*
X90846284Y-112582436D01*
X90621827Y-112246513D01*
X90621826Y-112246511D01*
X90467218Y-111873254D01*
X90388400Y-111477007D01*
X90388400Y-111072993D01*
X90467218Y-110676746D01*
X90621826Y-110303489D01*
X90687090Y-110205815D01*
X90846284Y-109967564D01*
X91131964Y-109681884D01*
X91467887Y-109457427D01*
X91467889Y-109457426D01*
X91841146Y-109302818D01*
X92237393Y-109224000D01*
X92641407Y-109224000D01*
X93037654Y-109302818D01*
X93037654Y-109302818D01*
G37*
G36*
X133060254Y-109302818D02*
G01*
X133433511Y-109457426D01*
X133433513Y-109457427D01*
X133769436Y-109681884D01*
X134055116Y-109967564D01*
X134214311Y-110205815D01*
X134279574Y-110303489D01*
X134434182Y-110676746D01*
X134513000Y-111072993D01*
X134513000Y-111477007D01*
X134434182Y-111873254D01*
X134279574Y-112246511D01*
X134279573Y-112246513D01*
X134055116Y-112582436D01*
X133769436Y-112868116D01*
X133433513Y-113092573D01*
X133433512Y-113092574D01*
X133433511Y-113092574D01*
X133060254Y-113247182D01*
X132664007Y-113326000D01*
X132259993Y-113326000D01*
X131863746Y-113247182D01*
X131490489Y-113092574D01*
X131490488Y-113092574D01*
X131490487Y-113092573D01*
X131154564Y-112868116D01*
X130868884Y-112582436D01*
X130644427Y-112246513D01*
X130644426Y-112246511D01*
X130489818Y-111873254D01*
X130411000Y-111477007D01*
X130411000Y-111072993D01*
X130489818Y-110676746D01*
X130644426Y-110303489D01*
X130709690Y-110205815D01*
X130868884Y-109967564D01*
X131154564Y-109681884D01*
X131490487Y-109457427D01*
X131490489Y-109457426D01*
X131863746Y-109302818D01*
X132259993Y-109224000D01*
X132664007Y-109224000D01*
X133060254Y-109302818D01*
X133060254Y-109302818D01*
G37*
G36*
X124260254Y-109302818D02*
G01*
X124633511Y-109457426D01*
X124633513Y-109457427D01*
X124969436Y-109681884D01*
X125255116Y-109967564D01*
X125414311Y-110205815D01*
X125479574Y-110303489D01*
X125634182Y-110676746D01*
X125713000Y-111072993D01*
X125713000Y-111477007D01*
X125634182Y-111873254D01*
X125479574Y-112246511D01*
X125479573Y-112246513D01*
X125255116Y-112582436D01*
X124969436Y-112868116D01*
X124633513Y-113092573D01*
X124633512Y-113092574D01*
X124633511Y-113092574D01*
X124260254Y-113247182D01*
X123864007Y-113326000D01*
X123459993Y-113326000D01*
X123063746Y-113247182D01*
X122690489Y-113092574D01*
X122690488Y-113092574D01*
X122690487Y-113092573D01*
X122354564Y-112868116D01*
X122068884Y-112582436D01*
X121844427Y-112246513D01*
X121844426Y-112246511D01*
X121689818Y-111873254D01*
X121611000Y-111477007D01*
X121611000Y-111072993D01*
X121689818Y-110676746D01*
X121844426Y-110303489D01*
X121909690Y-110205815D01*
X122068884Y-109967564D01*
X122354564Y-109681884D01*
X122690487Y-109457427D01*
X122690489Y-109457426D01*
X123063746Y-109302818D01*
X123459993Y-109224000D01*
X123864007Y-109224000D01*
X124260254Y-109302818D01*
X124260254Y-109302818D01*
G37*
G36*
X168245442Y-109951518D02*
G01*
X168311627Y-109958037D01*
X168481466Y-110009557D01*
X168637991Y-110093222D01*
X168673729Y-110122552D01*
X168775186Y-110205814D01*
X168855343Y-110303487D01*
X168887778Y-110343009D01*
X168971443Y-110499534D01*
X169022963Y-110669373D01*
X169040359Y-110846000D01*
X169022963Y-111022627D01*
X168971443Y-111192466D01*
X168887778Y-111348991D01*
X168858448Y-111384729D01*
X168775186Y-111486186D01*
X168673729Y-111569448D01*
X168637991Y-111598778D01*
X168481466Y-111682443D01*
X168311627Y-111733963D01*
X168245442Y-111740482D01*
X168179260Y-111747000D01*
X168090740Y-111747000D01*
X168024558Y-111740482D01*
X167958373Y-111733963D01*
X167788534Y-111682443D01*
X167632009Y-111598778D01*
X167596271Y-111569448D01*
X167494814Y-111486186D01*
X167411552Y-111384729D01*
X167382222Y-111348991D01*
X167298557Y-111192466D01*
X167247037Y-111022627D01*
X167229641Y-110846000D01*
X167247037Y-110669373D01*
X167298557Y-110499534D01*
X167382222Y-110343009D01*
X167414657Y-110303487D01*
X167494814Y-110205814D01*
X167596271Y-110122552D01*
X167632009Y-110093222D01*
X167788534Y-110009557D01*
X167958373Y-109958037D01*
X168024558Y-109951518D01*
X168090740Y-109945000D01*
X168179260Y-109945000D01*
X168245442Y-109951518D01*
X168245442Y-109951518D01*
G37*
G36*
X171576000Y-111747000D02*
G01*
X169774000Y-111747000D01*
X169774000Y-109945000D01*
X171576000Y-109945000D01*
X171576000Y-111747000D01*
X171576000Y-111747000D01*
G37*
G36*
X168245443Y-107411519D02*
G01*
X168311627Y-107418037D01*
X168481466Y-107469557D01*
X168637991Y-107553222D01*
X168673729Y-107582552D01*
X168775186Y-107665814D01*
X168858448Y-107767271D01*
X168887778Y-107803009D01*
X168971443Y-107959534D01*
X169022963Y-108129373D01*
X169040359Y-108306000D01*
X169022963Y-108482627D01*
X168971443Y-108652466D01*
X168887778Y-108808991D01*
X168858448Y-108844729D01*
X168775186Y-108946186D01*
X168673729Y-109029448D01*
X168637991Y-109058778D01*
X168481466Y-109142443D01*
X168311627Y-109193963D01*
X168245442Y-109200482D01*
X168179260Y-109207000D01*
X168090740Y-109207000D01*
X168024558Y-109200482D01*
X167958373Y-109193963D01*
X167788534Y-109142443D01*
X167632009Y-109058778D01*
X167596271Y-109029448D01*
X167494814Y-108946186D01*
X167411552Y-108844729D01*
X167382222Y-108808991D01*
X167298557Y-108652466D01*
X167247037Y-108482627D01*
X167229641Y-108306000D01*
X167247037Y-108129373D01*
X167298557Y-107959534D01*
X167382222Y-107803009D01*
X167411552Y-107767271D01*
X167494814Y-107665814D01*
X167596271Y-107582552D01*
X167632009Y-107553222D01*
X167788534Y-107469557D01*
X167958373Y-107418037D01*
X168024557Y-107411519D01*
X168090740Y-107405000D01*
X168179260Y-107405000D01*
X168245443Y-107411519D01*
X168245443Y-107411519D01*
G37*
G36*
X170785443Y-107411519D02*
G01*
X170851627Y-107418037D01*
X171021466Y-107469557D01*
X171177991Y-107553222D01*
X171213729Y-107582552D01*
X171315186Y-107665814D01*
X171398448Y-107767271D01*
X171427778Y-107803009D01*
X171511443Y-107959534D01*
X171562963Y-108129373D01*
X171580359Y-108306000D01*
X171562963Y-108482627D01*
X171511443Y-108652466D01*
X171427778Y-108808991D01*
X171398448Y-108844729D01*
X171315186Y-108946186D01*
X171213729Y-109029448D01*
X171177991Y-109058778D01*
X171021466Y-109142443D01*
X170851627Y-109193963D01*
X170785442Y-109200482D01*
X170719260Y-109207000D01*
X170630740Y-109207000D01*
X170564558Y-109200482D01*
X170498373Y-109193963D01*
X170328534Y-109142443D01*
X170172009Y-109058778D01*
X170136271Y-109029448D01*
X170034814Y-108946186D01*
X169951552Y-108844729D01*
X169922222Y-108808991D01*
X169838557Y-108652466D01*
X169787037Y-108482627D01*
X169769641Y-108306000D01*
X169787037Y-108129373D01*
X169838557Y-107959534D01*
X169922222Y-107803009D01*
X169951552Y-107767271D01*
X170034814Y-107665814D01*
X170136271Y-107582552D01*
X170172009Y-107553222D01*
X170328534Y-107469557D01*
X170498373Y-107418037D01*
X170564557Y-107411519D01*
X170630740Y-107405000D01*
X170719260Y-107405000D01*
X170785443Y-107411519D01*
X170785443Y-107411519D01*
G37*
G36*
X170785443Y-104871519D02*
G01*
X170851627Y-104878037D01*
X171021466Y-104929557D01*
X171177991Y-105013222D01*
X171213729Y-105042552D01*
X171315186Y-105125814D01*
X171398448Y-105227271D01*
X171427778Y-105263009D01*
X171511443Y-105419534D01*
X171562963Y-105589373D01*
X171580359Y-105766000D01*
X171562963Y-105942627D01*
X171511443Y-106112466D01*
X171427778Y-106268991D01*
X171398448Y-106304729D01*
X171315186Y-106406186D01*
X171213729Y-106489448D01*
X171177991Y-106518778D01*
X171021466Y-106602443D01*
X170851627Y-106653963D01*
X170785442Y-106660482D01*
X170719260Y-106667000D01*
X170630740Y-106667000D01*
X170564558Y-106660482D01*
X170498373Y-106653963D01*
X170328534Y-106602443D01*
X170172009Y-106518778D01*
X170136271Y-106489448D01*
X170034814Y-106406186D01*
X169951552Y-106304729D01*
X169922222Y-106268991D01*
X169838557Y-106112466D01*
X169787037Y-105942627D01*
X169769641Y-105766000D01*
X169787037Y-105589373D01*
X169838557Y-105419534D01*
X169922222Y-105263009D01*
X169951552Y-105227271D01*
X170034814Y-105125814D01*
X170136271Y-105042552D01*
X170172009Y-105013222D01*
X170328534Y-104929557D01*
X170498373Y-104878037D01*
X170564557Y-104871519D01*
X170630740Y-104865000D01*
X170719260Y-104865000D01*
X170785443Y-104871519D01*
X170785443Y-104871519D01*
G37*
G36*
X168245443Y-104871519D02*
G01*
X168311627Y-104878037D01*
X168481466Y-104929557D01*
X168637991Y-105013222D01*
X168673729Y-105042552D01*
X168775186Y-105125814D01*
X168858448Y-105227271D01*
X168887778Y-105263009D01*
X168971443Y-105419534D01*
X169022963Y-105589373D01*
X169040359Y-105766000D01*
X169022963Y-105942627D01*
X168971443Y-106112466D01*
X168887778Y-106268991D01*
X168858448Y-106304729D01*
X168775186Y-106406186D01*
X168673729Y-106489448D01*
X168637991Y-106518778D01*
X168481466Y-106602443D01*
X168311627Y-106653963D01*
X168245442Y-106660482D01*
X168179260Y-106667000D01*
X168090740Y-106667000D01*
X168024558Y-106660482D01*
X167958373Y-106653963D01*
X167788534Y-106602443D01*
X167632009Y-106518778D01*
X167596271Y-106489448D01*
X167494814Y-106406186D01*
X167411552Y-106304729D01*
X167382222Y-106268991D01*
X167298557Y-106112466D01*
X167247037Y-105942627D01*
X167229641Y-105766000D01*
X167247037Y-105589373D01*
X167298557Y-105419534D01*
X167382222Y-105263009D01*
X167411552Y-105227271D01*
X167494814Y-105125814D01*
X167596271Y-105042552D01*
X167632009Y-105013222D01*
X167788534Y-104929557D01*
X167958373Y-104878037D01*
X168024557Y-104871519D01*
X168090740Y-104865000D01*
X168179260Y-104865000D01*
X168245443Y-104871519D01*
X168245443Y-104871519D01*
G37*
G36*
X170785442Y-102331518D02*
G01*
X170851627Y-102338037D01*
X171021466Y-102389557D01*
X171177991Y-102473222D01*
X171213729Y-102502552D01*
X171315186Y-102585814D01*
X171398448Y-102687271D01*
X171427778Y-102723009D01*
X171511443Y-102879534D01*
X171562963Y-103049373D01*
X171580359Y-103226000D01*
X171562963Y-103402627D01*
X171511443Y-103572466D01*
X171427778Y-103728991D01*
X171398448Y-103764729D01*
X171315186Y-103866186D01*
X171213729Y-103949448D01*
X171177991Y-103978778D01*
X171021466Y-104062443D01*
X170851627Y-104113963D01*
X170785442Y-104120482D01*
X170719260Y-104127000D01*
X170630740Y-104127000D01*
X170564557Y-104120481D01*
X170498373Y-104113963D01*
X170328534Y-104062443D01*
X170172009Y-103978778D01*
X170136271Y-103949448D01*
X170034814Y-103866186D01*
X169951552Y-103764729D01*
X169922222Y-103728991D01*
X169838557Y-103572466D01*
X169787037Y-103402627D01*
X169769641Y-103226000D01*
X169787037Y-103049373D01*
X169838557Y-102879534D01*
X169922222Y-102723009D01*
X169951552Y-102687271D01*
X170034814Y-102585814D01*
X170136271Y-102502552D01*
X170172009Y-102473222D01*
X170328534Y-102389557D01*
X170498373Y-102338037D01*
X170564558Y-102331518D01*
X170630740Y-102325000D01*
X170719260Y-102325000D01*
X170785442Y-102331518D01*
X170785442Y-102331518D01*
G37*
G36*
X168245442Y-102331518D02*
G01*
X168311627Y-102338037D01*
X168481466Y-102389557D01*
X168637991Y-102473222D01*
X168673729Y-102502552D01*
X168775186Y-102585814D01*
X168858448Y-102687271D01*
X168887778Y-102723009D01*
X168971443Y-102879534D01*
X169022963Y-103049373D01*
X169040359Y-103226000D01*
X169022963Y-103402627D01*
X168971443Y-103572466D01*
X168887778Y-103728991D01*
X168858448Y-103764729D01*
X168775186Y-103866186D01*
X168673729Y-103949448D01*
X168637991Y-103978778D01*
X168481466Y-104062443D01*
X168311627Y-104113963D01*
X168245442Y-104120482D01*
X168179260Y-104127000D01*
X168090740Y-104127000D01*
X168024557Y-104120481D01*
X167958373Y-104113963D01*
X167788534Y-104062443D01*
X167632009Y-103978778D01*
X167596271Y-103949448D01*
X167494814Y-103866186D01*
X167411552Y-103764729D01*
X167382222Y-103728991D01*
X167298557Y-103572466D01*
X167247037Y-103402627D01*
X167229641Y-103226000D01*
X167247037Y-103049373D01*
X167298557Y-102879534D01*
X167382222Y-102723009D01*
X167411552Y-102687271D01*
X167494814Y-102585814D01*
X167596271Y-102502552D01*
X167632009Y-102473222D01*
X167788534Y-102389557D01*
X167958373Y-102338037D01*
X168024558Y-102331518D01*
X168090740Y-102325000D01*
X168179260Y-102325000D01*
X168245442Y-102331518D01*
X168245442Y-102331518D01*
G37*
G36*
X170785442Y-99791518D02*
G01*
X170851627Y-99798037D01*
X171021466Y-99849557D01*
X171177991Y-99933222D01*
X171213729Y-99962552D01*
X171315186Y-100045814D01*
X171398448Y-100147271D01*
X171427778Y-100183009D01*
X171511443Y-100339534D01*
X171562963Y-100509373D01*
X171580359Y-100686000D01*
X171562963Y-100862627D01*
X171511443Y-101032466D01*
X171427778Y-101188991D01*
X171398448Y-101224729D01*
X171315186Y-101326186D01*
X171213729Y-101409448D01*
X171177991Y-101438778D01*
X171021466Y-101522443D01*
X170851627Y-101573963D01*
X170785443Y-101580481D01*
X170719260Y-101587000D01*
X170630740Y-101587000D01*
X170564558Y-101580482D01*
X170498373Y-101573963D01*
X170328534Y-101522443D01*
X170172009Y-101438778D01*
X170136271Y-101409448D01*
X170034814Y-101326186D01*
X169951552Y-101224729D01*
X169922222Y-101188991D01*
X169838557Y-101032466D01*
X169787037Y-100862627D01*
X169769641Y-100686000D01*
X169787037Y-100509373D01*
X169838557Y-100339534D01*
X169922222Y-100183009D01*
X169951552Y-100147271D01*
X170034814Y-100045814D01*
X170136271Y-99962552D01*
X170172009Y-99933222D01*
X170328534Y-99849557D01*
X170498373Y-99798037D01*
X170564557Y-99791519D01*
X170630740Y-99785000D01*
X170719260Y-99785000D01*
X170785442Y-99791518D01*
X170785442Y-99791518D01*
G37*
G36*
X168245442Y-99791518D02*
G01*
X168311627Y-99798037D01*
X168481466Y-99849557D01*
X168637991Y-99933222D01*
X168673729Y-99962552D01*
X168775186Y-100045814D01*
X168858448Y-100147271D01*
X168887778Y-100183009D01*
X168971443Y-100339534D01*
X169022963Y-100509373D01*
X169040359Y-100686000D01*
X169022963Y-100862627D01*
X168971443Y-101032466D01*
X168887778Y-101188991D01*
X168858448Y-101224729D01*
X168775186Y-101326186D01*
X168673729Y-101409448D01*
X168637991Y-101438778D01*
X168481466Y-101522443D01*
X168311627Y-101573963D01*
X168245443Y-101580481D01*
X168179260Y-101587000D01*
X168090740Y-101587000D01*
X168024558Y-101580482D01*
X167958373Y-101573963D01*
X167788534Y-101522443D01*
X167632009Y-101438778D01*
X167596271Y-101409448D01*
X167494814Y-101326186D01*
X167411552Y-101224729D01*
X167382222Y-101188991D01*
X167298557Y-101032466D01*
X167247037Y-100862627D01*
X167229641Y-100686000D01*
X167247037Y-100509373D01*
X167298557Y-100339534D01*
X167382222Y-100183009D01*
X167411552Y-100147271D01*
X167494814Y-100045814D01*
X167596271Y-99962552D01*
X167632009Y-99933222D01*
X167788534Y-99849557D01*
X167958373Y-99798037D01*
X168024557Y-99791519D01*
X168090740Y-99785000D01*
X168179260Y-99785000D01*
X168245442Y-99791518D01*
X168245442Y-99791518D01*
G37*
G36*
X146454585Y-91874602D02*
G01*
X146604410Y-91904404D01*
X146886674Y-92021321D01*
X147140705Y-92191059D01*
X147356741Y-92407095D01*
X147526479Y-92661126D01*
X147643396Y-92943390D01*
X147703000Y-93243040D01*
X147703000Y-93548560D01*
X147643396Y-93848210D01*
X147526479Y-94130474D01*
X147356741Y-94384505D01*
X147140705Y-94600541D01*
X146886674Y-94770279D01*
X146604410Y-94887196D01*
X146454585Y-94916998D01*
X146304761Y-94946800D01*
X145999239Y-94946800D01*
X145849415Y-94916998D01*
X145699590Y-94887196D01*
X145417326Y-94770279D01*
X145163295Y-94600541D01*
X144947259Y-94384505D01*
X144777521Y-94130474D01*
X144660604Y-93848210D01*
X144601000Y-93548560D01*
X144601000Y-93243040D01*
X144660604Y-92943390D01*
X144777521Y-92661126D01*
X144947259Y-92407095D01*
X145163295Y-92191059D01*
X145417326Y-92021321D01*
X145699590Y-91904404D01*
X145849415Y-91874602D01*
X145999239Y-91844800D01*
X146304761Y-91844800D01*
X146454585Y-91874602D01*
X146454585Y-91874602D01*
G37*
G36*
X135024585Y-91874602D02*
G01*
X135174410Y-91904404D01*
X135456674Y-92021321D01*
X135710705Y-92191059D01*
X135926741Y-92407095D01*
X136096479Y-92661126D01*
X136213396Y-92943390D01*
X136273000Y-93243040D01*
X136273000Y-93548560D01*
X136213396Y-93848210D01*
X136096479Y-94130474D01*
X135926741Y-94384505D01*
X135710705Y-94600541D01*
X135456674Y-94770279D01*
X135174410Y-94887196D01*
X135024585Y-94916998D01*
X134874761Y-94946800D01*
X134569239Y-94946800D01*
X134419415Y-94916998D01*
X134269590Y-94887196D01*
X133987326Y-94770279D01*
X133733295Y-94600541D01*
X133517259Y-94384505D01*
X133347521Y-94130474D01*
X133230604Y-93848210D01*
X133171000Y-93548560D01*
X133171000Y-93243040D01*
X133230604Y-92943390D01*
X133347521Y-92661126D01*
X133517259Y-92407095D01*
X133733295Y-92191059D01*
X133987326Y-92021321D01*
X134269590Y-91904404D01*
X134419415Y-91874602D01*
X134569239Y-91844800D01*
X134874761Y-91844800D01*
X135024585Y-91874602D01*
X135024585Y-91874602D01*
G37*
G36*
X163586585Y-91874602D02*
G01*
X163736410Y-91904404D01*
X164018674Y-92021321D01*
X164272705Y-92191059D01*
X164488741Y-92407095D01*
X164658479Y-92661126D01*
X164775396Y-92943390D01*
X164835000Y-93243040D01*
X164835000Y-93548560D01*
X164775396Y-93848210D01*
X164658479Y-94130474D01*
X164488741Y-94384505D01*
X164272705Y-94600541D01*
X164018674Y-94770279D01*
X163736410Y-94887196D01*
X163586585Y-94916998D01*
X163436761Y-94946800D01*
X163131239Y-94946800D01*
X162981415Y-94916998D01*
X162831590Y-94887196D01*
X162549326Y-94770279D01*
X162295295Y-94600541D01*
X162079259Y-94384505D01*
X161909521Y-94130474D01*
X161792604Y-93848210D01*
X161733000Y-93548560D01*
X161733000Y-93243040D01*
X161792604Y-92943390D01*
X161909521Y-92661126D01*
X162079259Y-92407095D01*
X162295295Y-92191059D01*
X162549326Y-92021321D01*
X162831590Y-91904404D01*
X162981415Y-91874602D01*
X163131239Y-91844800D01*
X163436761Y-91844800D01*
X163586585Y-91874602D01*
X163586585Y-91874602D01*
G37*
G36*
X152156585Y-91874602D02*
G01*
X152306410Y-91904404D01*
X152588674Y-92021321D01*
X152842705Y-92191059D01*
X153058741Y-92407095D01*
X153228479Y-92661126D01*
X153345396Y-92943390D01*
X153405000Y-93243040D01*
X153405000Y-93548560D01*
X153345396Y-93848210D01*
X153228479Y-94130474D01*
X153058741Y-94384505D01*
X152842705Y-94600541D01*
X152588674Y-94770279D01*
X152306410Y-94887196D01*
X152156585Y-94916998D01*
X152006761Y-94946800D01*
X151701239Y-94946800D01*
X151551415Y-94916998D01*
X151401590Y-94887196D01*
X151119326Y-94770279D01*
X150865295Y-94600541D01*
X150649259Y-94384505D01*
X150479521Y-94130474D01*
X150362604Y-93848210D01*
X150303000Y-93548560D01*
X150303000Y-93243040D01*
X150362604Y-92943390D01*
X150479521Y-92661126D01*
X150649259Y-92407095D01*
X150865295Y-92191059D01*
X151119326Y-92021321D01*
X151401590Y-91904404D01*
X151551415Y-91874602D01*
X151701239Y-91844800D01*
X152006761Y-91844800D01*
X152156585Y-91874602D01*
X152156585Y-91874602D01*
G37*
G36*
X137154585Y-88724602D02*
G01*
X137304410Y-88754404D01*
X137586674Y-88871321D01*
X137840705Y-89041059D01*
X138056741Y-89257095D01*
X138226479Y-89511126D01*
X138343396Y-89793390D01*
X138403000Y-90093040D01*
X138403000Y-90398560D01*
X138343396Y-90698210D01*
X138226479Y-90980474D01*
X138056741Y-91234505D01*
X137840705Y-91450541D01*
X137586674Y-91620279D01*
X137304410Y-91737196D01*
X137154585Y-91766998D01*
X137004761Y-91796800D01*
X136699239Y-91796800D01*
X136549415Y-91766998D01*
X136399590Y-91737196D01*
X136117326Y-91620279D01*
X135863295Y-91450541D01*
X135647259Y-91234505D01*
X135477521Y-90980474D01*
X135360604Y-90698210D01*
X135301000Y-90398560D01*
X135301000Y-90093040D01*
X135360604Y-89793390D01*
X135477521Y-89511126D01*
X135647259Y-89257095D01*
X135863295Y-89041059D01*
X136117326Y-88871321D01*
X136399590Y-88754404D01*
X136549415Y-88724602D01*
X136699239Y-88694800D01*
X137004761Y-88694800D01*
X137154585Y-88724602D01*
X137154585Y-88724602D01*
G37*
G36*
X154286585Y-88724602D02*
G01*
X154436410Y-88754404D01*
X154718674Y-88871321D01*
X154972705Y-89041059D01*
X155188741Y-89257095D01*
X155358479Y-89511126D01*
X155475396Y-89793390D01*
X155535000Y-90093040D01*
X155535000Y-90398560D01*
X155475396Y-90698210D01*
X155358479Y-90980474D01*
X155188741Y-91234505D01*
X154972705Y-91450541D01*
X154718674Y-91620279D01*
X154436410Y-91737196D01*
X154286585Y-91766998D01*
X154136761Y-91796800D01*
X153831239Y-91796800D01*
X153681415Y-91766998D01*
X153531590Y-91737196D01*
X153249326Y-91620279D01*
X152995295Y-91450541D01*
X152779259Y-91234505D01*
X152609521Y-90980474D01*
X152492604Y-90698210D01*
X152433000Y-90398560D01*
X152433000Y-90093040D01*
X152492604Y-89793390D01*
X152609521Y-89511126D01*
X152779259Y-89257095D01*
X152995295Y-89041059D01*
X153249326Y-88871321D01*
X153531590Y-88754404D01*
X153681415Y-88724602D01*
X153831239Y-88694800D01*
X154136761Y-88694800D01*
X154286585Y-88724602D01*
X154286585Y-88724602D01*
G37*
G36*
X168245443Y-89554919D02*
G01*
X168311627Y-89561437D01*
X168481466Y-89612957D01*
X168637991Y-89696622D01*
X168673729Y-89725952D01*
X168775186Y-89809214D01*
X168858448Y-89910671D01*
X168887778Y-89946409D01*
X168971443Y-90102934D01*
X169022963Y-90272773D01*
X169040359Y-90449400D01*
X169022963Y-90626027D01*
X168971443Y-90795866D01*
X168887778Y-90952391D01*
X168864732Y-90980472D01*
X168775186Y-91089586D01*
X168673729Y-91172848D01*
X168637991Y-91202178D01*
X168481466Y-91285843D01*
X168311627Y-91337363D01*
X168245442Y-91343882D01*
X168179260Y-91350400D01*
X168090740Y-91350400D01*
X168024558Y-91343882D01*
X167958373Y-91337363D01*
X167788534Y-91285843D01*
X167632009Y-91202178D01*
X167596271Y-91172848D01*
X167494814Y-91089586D01*
X167405268Y-90980472D01*
X167382222Y-90952391D01*
X167298557Y-90795866D01*
X167247037Y-90626027D01*
X167229641Y-90449400D01*
X167247037Y-90272773D01*
X167298557Y-90102934D01*
X167382222Y-89946409D01*
X167411552Y-89910671D01*
X167494814Y-89809214D01*
X167596271Y-89725952D01*
X167632009Y-89696622D01*
X167788534Y-89612957D01*
X167958373Y-89561437D01*
X168024557Y-89554919D01*
X168090740Y-89548400D01*
X168179260Y-89548400D01*
X168245443Y-89554919D01*
X168245443Y-89554919D01*
G37*
G36*
X171576000Y-91350400D02*
G01*
X169774000Y-91350400D01*
X169774000Y-89548400D01*
X171576000Y-89548400D01*
X171576000Y-91350400D01*
X171576000Y-91350400D01*
G37*
G36*
X170785442Y-87014918D02*
G01*
X170851627Y-87021437D01*
X171021466Y-87072957D01*
X171177991Y-87156622D01*
X171213729Y-87185952D01*
X171315186Y-87269214D01*
X171398448Y-87370671D01*
X171427778Y-87406409D01*
X171511443Y-87562934D01*
X171562963Y-87732773D01*
X171580359Y-87909400D01*
X171562963Y-88086027D01*
X171511443Y-88255866D01*
X171427778Y-88412391D01*
X171398448Y-88448129D01*
X171315186Y-88549586D01*
X171213729Y-88632848D01*
X171177991Y-88662178D01*
X171021466Y-88745843D01*
X170851627Y-88797363D01*
X170785442Y-88803882D01*
X170719260Y-88810400D01*
X170630740Y-88810400D01*
X170564558Y-88803882D01*
X170498373Y-88797363D01*
X170328534Y-88745843D01*
X170172009Y-88662178D01*
X170136271Y-88632848D01*
X170034814Y-88549586D01*
X169951552Y-88448129D01*
X169922222Y-88412391D01*
X169838557Y-88255866D01*
X169787037Y-88086027D01*
X169769641Y-87909400D01*
X169787037Y-87732773D01*
X169838557Y-87562934D01*
X169922222Y-87406409D01*
X169951552Y-87370671D01*
X170034814Y-87269214D01*
X170136271Y-87185952D01*
X170172009Y-87156622D01*
X170328534Y-87072957D01*
X170498373Y-87021437D01*
X170564558Y-87014918D01*
X170630740Y-87008400D01*
X170719260Y-87008400D01*
X170785442Y-87014918D01*
X170785442Y-87014918D01*
G37*
G36*
X168245442Y-87014918D02*
G01*
X168311627Y-87021437D01*
X168481466Y-87072957D01*
X168637991Y-87156622D01*
X168673729Y-87185952D01*
X168775186Y-87269214D01*
X168858448Y-87370671D01*
X168887778Y-87406409D01*
X168971443Y-87562934D01*
X169022963Y-87732773D01*
X169040359Y-87909400D01*
X169022963Y-88086027D01*
X168971443Y-88255866D01*
X168887778Y-88412391D01*
X168858448Y-88448129D01*
X168775186Y-88549586D01*
X168673729Y-88632848D01*
X168637991Y-88662178D01*
X168481466Y-88745843D01*
X168311627Y-88797363D01*
X168245442Y-88803882D01*
X168179260Y-88810400D01*
X168090740Y-88810400D01*
X168024558Y-88803882D01*
X167958373Y-88797363D01*
X167788534Y-88745843D01*
X167632009Y-88662178D01*
X167596271Y-88632848D01*
X167494814Y-88549586D01*
X167411552Y-88448129D01*
X167382222Y-88412391D01*
X167298557Y-88255866D01*
X167247037Y-88086027D01*
X167229641Y-87909400D01*
X167247037Y-87732773D01*
X167298557Y-87562934D01*
X167382222Y-87406409D01*
X167411552Y-87370671D01*
X167494814Y-87269214D01*
X167596271Y-87185952D01*
X167632009Y-87156622D01*
X167788534Y-87072957D01*
X167958373Y-87021437D01*
X168024558Y-87014918D01*
X168090740Y-87008400D01*
X168179260Y-87008400D01*
X168245442Y-87014918D01*
X168245442Y-87014918D01*
G37*
G36*
X98086900Y-87711000D02*
G01*
X95384900Y-87711000D01*
X95384900Y-85009000D01*
X98086900Y-85009000D01*
X98086900Y-87711000D01*
X98086900Y-87711000D01*
G37*
G36*
X170785443Y-84474919D02*
G01*
X170851627Y-84481437D01*
X171021466Y-84532957D01*
X171177991Y-84616622D01*
X171213729Y-84645952D01*
X171315186Y-84729214D01*
X171398448Y-84830671D01*
X171427778Y-84866409D01*
X171511443Y-85022934D01*
X171562963Y-85192773D01*
X171580359Y-85369400D01*
X171562963Y-85546027D01*
X171511443Y-85715866D01*
X171427778Y-85872391D01*
X171398448Y-85908129D01*
X171315186Y-86009586D01*
X171213729Y-86092848D01*
X171177991Y-86122178D01*
X171021466Y-86205843D01*
X170851627Y-86257363D01*
X170785443Y-86263881D01*
X170719260Y-86270400D01*
X170630740Y-86270400D01*
X170564557Y-86263881D01*
X170498373Y-86257363D01*
X170328534Y-86205843D01*
X170172009Y-86122178D01*
X170136271Y-86092848D01*
X170034814Y-86009586D01*
X169951552Y-85908129D01*
X169922222Y-85872391D01*
X169838557Y-85715866D01*
X169787037Y-85546027D01*
X169769641Y-85369400D01*
X169787037Y-85192773D01*
X169838557Y-85022934D01*
X169922222Y-84866409D01*
X169951552Y-84830671D01*
X170034814Y-84729214D01*
X170136271Y-84645952D01*
X170172009Y-84616622D01*
X170328534Y-84532957D01*
X170498373Y-84481437D01*
X170564557Y-84474919D01*
X170630740Y-84468400D01*
X170719260Y-84468400D01*
X170785443Y-84474919D01*
X170785443Y-84474919D01*
G37*
G36*
X168245443Y-84474919D02*
G01*
X168311627Y-84481437D01*
X168481466Y-84532957D01*
X168637991Y-84616622D01*
X168673729Y-84645952D01*
X168775186Y-84729214D01*
X168858448Y-84830671D01*
X168887778Y-84866409D01*
X168971443Y-85022934D01*
X169022963Y-85192773D01*
X169040359Y-85369400D01*
X169022963Y-85546027D01*
X168971443Y-85715866D01*
X168887778Y-85872391D01*
X168858448Y-85908129D01*
X168775186Y-86009586D01*
X168673729Y-86092848D01*
X168637991Y-86122178D01*
X168481466Y-86205843D01*
X168311627Y-86257363D01*
X168245443Y-86263881D01*
X168179260Y-86270400D01*
X168090740Y-86270400D01*
X168024557Y-86263881D01*
X167958373Y-86257363D01*
X167788534Y-86205843D01*
X167632009Y-86122178D01*
X167596271Y-86092848D01*
X167494814Y-86009586D01*
X167411552Y-85908129D01*
X167382222Y-85872391D01*
X167298557Y-85715866D01*
X167247037Y-85546027D01*
X167229641Y-85369400D01*
X167247037Y-85192773D01*
X167298557Y-85022934D01*
X167382222Y-84866409D01*
X167411552Y-84830671D01*
X167494814Y-84729214D01*
X167596271Y-84645952D01*
X167632009Y-84616622D01*
X167788534Y-84532957D01*
X167958373Y-84481437D01*
X168024557Y-84474919D01*
X168090740Y-84468400D01*
X168179260Y-84468400D01*
X168245443Y-84474919D01*
X168245443Y-84474919D01*
G37*
G36*
X152160564Y-82885189D02*
G01*
X152351833Y-82964415D01*
X152351835Y-82964416D01*
X152414107Y-83006025D01*
X152523973Y-83079435D01*
X152670365Y-83225827D01*
X152785385Y-83397967D01*
X152864611Y-83589236D01*
X152905000Y-83792284D01*
X152905000Y-83999316D01*
X152864611Y-84202364D01*
X152785385Y-84393633D01*
X152785384Y-84393635D01*
X152670365Y-84565773D01*
X152523973Y-84712165D01*
X152351835Y-84827184D01*
X152351834Y-84827185D01*
X152351833Y-84827185D01*
X152160564Y-84906411D01*
X151957516Y-84946800D01*
X151750484Y-84946800D01*
X151547436Y-84906411D01*
X151356167Y-84827185D01*
X151356166Y-84827185D01*
X151356165Y-84827184D01*
X151184027Y-84712165D01*
X151037635Y-84565773D01*
X150922616Y-84393635D01*
X150922615Y-84393633D01*
X150843389Y-84202364D01*
X150803000Y-83999316D01*
X150803000Y-83792284D01*
X150843389Y-83589236D01*
X150922615Y-83397967D01*
X151037635Y-83225827D01*
X151184027Y-83079435D01*
X151293893Y-83006025D01*
X151356165Y-82964416D01*
X151356167Y-82964415D01*
X151547436Y-82885189D01*
X151750484Y-82844800D01*
X151957516Y-82844800D01*
X152160564Y-82885189D01*
X152160564Y-82885189D01*
G37*
G36*
X163590564Y-82885189D02*
G01*
X163781833Y-82964415D01*
X163781835Y-82964416D01*
X163844107Y-83006025D01*
X163953973Y-83079435D01*
X164100365Y-83225827D01*
X164215385Y-83397967D01*
X164294611Y-83589236D01*
X164335000Y-83792284D01*
X164335000Y-83999316D01*
X164294611Y-84202364D01*
X164215385Y-84393633D01*
X164215384Y-84393635D01*
X164100365Y-84565773D01*
X163953973Y-84712165D01*
X163781835Y-84827184D01*
X163781834Y-84827185D01*
X163781833Y-84827185D01*
X163590564Y-84906411D01*
X163387516Y-84946800D01*
X163180484Y-84946800D01*
X162977436Y-84906411D01*
X162786167Y-84827185D01*
X162786166Y-84827185D01*
X162786165Y-84827184D01*
X162614027Y-84712165D01*
X162467635Y-84565773D01*
X162352616Y-84393635D01*
X162352615Y-84393633D01*
X162273389Y-84202364D01*
X162233000Y-83999316D01*
X162233000Y-83792284D01*
X162273389Y-83589236D01*
X162352615Y-83397967D01*
X162467635Y-83225827D01*
X162614027Y-83079435D01*
X162723893Y-83006025D01*
X162786165Y-82964416D01*
X162786167Y-82964415D01*
X162977436Y-82885189D01*
X163180484Y-82844800D01*
X163387516Y-82844800D01*
X163590564Y-82885189D01*
X163590564Y-82885189D01*
G37*
G36*
X146458564Y-82885189D02*
G01*
X146649833Y-82964415D01*
X146649835Y-82964416D01*
X146712107Y-83006025D01*
X146821973Y-83079435D01*
X146968365Y-83225827D01*
X147083385Y-83397967D01*
X147162611Y-83589236D01*
X147203000Y-83792284D01*
X147203000Y-83999316D01*
X147162611Y-84202364D01*
X147083385Y-84393633D01*
X147083384Y-84393635D01*
X146968365Y-84565773D01*
X146821973Y-84712165D01*
X146649835Y-84827184D01*
X146649834Y-84827185D01*
X146649833Y-84827185D01*
X146458564Y-84906411D01*
X146255516Y-84946800D01*
X146048484Y-84946800D01*
X145845436Y-84906411D01*
X145654167Y-84827185D01*
X145654166Y-84827185D01*
X145654165Y-84827184D01*
X145482027Y-84712165D01*
X145335635Y-84565773D01*
X145220616Y-84393635D01*
X145220615Y-84393633D01*
X145141389Y-84202364D01*
X145101000Y-83999316D01*
X145101000Y-83792284D01*
X145141389Y-83589236D01*
X145220615Y-83397967D01*
X145335635Y-83225827D01*
X145482027Y-83079435D01*
X145591893Y-83006025D01*
X145654165Y-82964416D01*
X145654167Y-82964415D01*
X145845436Y-82885189D01*
X146048484Y-82844800D01*
X146255516Y-82844800D01*
X146458564Y-82885189D01*
X146458564Y-82885189D01*
G37*
G36*
X135028564Y-82885189D02*
G01*
X135219833Y-82964415D01*
X135219835Y-82964416D01*
X135282107Y-83006025D01*
X135391973Y-83079435D01*
X135538365Y-83225827D01*
X135653385Y-83397967D01*
X135732611Y-83589236D01*
X135773000Y-83792284D01*
X135773000Y-83999316D01*
X135732611Y-84202364D01*
X135653385Y-84393633D01*
X135653384Y-84393635D01*
X135538365Y-84565773D01*
X135391973Y-84712165D01*
X135219835Y-84827184D01*
X135219834Y-84827185D01*
X135219833Y-84827185D01*
X135028564Y-84906411D01*
X134825516Y-84946800D01*
X134618484Y-84946800D01*
X134415436Y-84906411D01*
X134224167Y-84827185D01*
X134224166Y-84827185D01*
X134224165Y-84827184D01*
X134052027Y-84712165D01*
X133905635Y-84565773D01*
X133790616Y-84393635D01*
X133790615Y-84393633D01*
X133711389Y-84202364D01*
X133671000Y-83999316D01*
X133671000Y-83792284D01*
X133711389Y-83589236D01*
X133790615Y-83397967D01*
X133905635Y-83225827D01*
X134052027Y-83079435D01*
X134161893Y-83006025D01*
X134224165Y-82964416D01*
X134224167Y-82964415D01*
X134415436Y-82885189D01*
X134618484Y-82844800D01*
X134825516Y-82844800D01*
X135028564Y-82885189D01*
X135028564Y-82885189D01*
G37*
G36*
X92429972Y-82060918D02*
G01*
X92675839Y-82162759D01*
X92897112Y-82310610D01*
X93085290Y-82498788D01*
X93188182Y-82652775D01*
X93233142Y-82720063D01*
X93334982Y-82965928D01*
X93386900Y-83226937D01*
X93386900Y-83493063D01*
X93334982Y-83754072D01*
X93233142Y-83999937D01*
X93097884Y-84202365D01*
X93085290Y-84221212D01*
X92897112Y-84409390D01*
X92675839Y-84557241D01*
X92675838Y-84557242D01*
X92675837Y-84557242D01*
X92429972Y-84659082D01*
X92168963Y-84711000D01*
X91902837Y-84711000D01*
X91641828Y-84659082D01*
X91395963Y-84557242D01*
X91395962Y-84557242D01*
X91395961Y-84557241D01*
X91174688Y-84409390D01*
X90986510Y-84221212D01*
X90973917Y-84202365D01*
X90838658Y-83999937D01*
X90736818Y-83754072D01*
X90684900Y-83493063D01*
X90684900Y-83226937D01*
X90736818Y-82965928D01*
X90838658Y-82720063D01*
X90883619Y-82652775D01*
X90986510Y-82498788D01*
X91174688Y-82310610D01*
X91395961Y-82162759D01*
X91641828Y-82060918D01*
X91902837Y-82009000D01*
X92168963Y-82009000D01*
X92429972Y-82060918D01*
X92429972Y-82060918D01*
G37*
G36*
X170785442Y-81934918D02*
G01*
X170851627Y-81941437D01*
X171021466Y-81992957D01*
X171177991Y-82076622D01*
X171213729Y-82105952D01*
X171315186Y-82189214D01*
X171398448Y-82290671D01*
X171427778Y-82326409D01*
X171511443Y-82482934D01*
X171562963Y-82652773D01*
X171580359Y-82829400D01*
X171562963Y-83006027D01*
X171511443Y-83175866D01*
X171427778Y-83332391D01*
X171398448Y-83368129D01*
X171315186Y-83469586D01*
X171213729Y-83552848D01*
X171177991Y-83582178D01*
X171021466Y-83665843D01*
X170851627Y-83717363D01*
X170785443Y-83723881D01*
X170719260Y-83730400D01*
X170630740Y-83730400D01*
X170564557Y-83723881D01*
X170498373Y-83717363D01*
X170328534Y-83665843D01*
X170172009Y-83582178D01*
X170136271Y-83552848D01*
X170034814Y-83469586D01*
X169951552Y-83368129D01*
X169922222Y-83332391D01*
X169838557Y-83175866D01*
X169787037Y-83006027D01*
X169769641Y-82829400D01*
X169787037Y-82652773D01*
X169838557Y-82482934D01*
X169922222Y-82326409D01*
X169951552Y-82290671D01*
X170034814Y-82189214D01*
X170136271Y-82105952D01*
X170172009Y-82076622D01*
X170328534Y-81992957D01*
X170498373Y-81941437D01*
X170564558Y-81934918D01*
X170630740Y-81928400D01*
X170719260Y-81928400D01*
X170785442Y-81934918D01*
X170785442Y-81934918D01*
G37*
G36*
X168245442Y-81934918D02*
G01*
X168311627Y-81941437D01*
X168481466Y-81992957D01*
X168637991Y-82076622D01*
X168673729Y-82105952D01*
X168775186Y-82189214D01*
X168858448Y-82290671D01*
X168887778Y-82326409D01*
X168971443Y-82482934D01*
X169022963Y-82652773D01*
X169040359Y-82829400D01*
X169022963Y-83006027D01*
X168971443Y-83175866D01*
X168887778Y-83332391D01*
X168858448Y-83368129D01*
X168775186Y-83469586D01*
X168673729Y-83552848D01*
X168637991Y-83582178D01*
X168481466Y-83665843D01*
X168311627Y-83717363D01*
X168245443Y-83723881D01*
X168179260Y-83730400D01*
X168090740Y-83730400D01*
X168024557Y-83723881D01*
X167958373Y-83717363D01*
X167788534Y-83665843D01*
X167632009Y-83582178D01*
X167596271Y-83552848D01*
X167494814Y-83469586D01*
X167411552Y-83368129D01*
X167382222Y-83332391D01*
X167298557Y-83175866D01*
X167247037Y-83006027D01*
X167229641Y-82829400D01*
X167247037Y-82652773D01*
X167298557Y-82482934D01*
X167382222Y-82326409D01*
X167411552Y-82290671D01*
X167494814Y-82189214D01*
X167596271Y-82105952D01*
X167632009Y-82076622D01*
X167788534Y-81992957D01*
X167958373Y-81941437D01*
X168024558Y-81934918D01*
X168090740Y-81928400D01*
X168179260Y-81928400D01*
X168245442Y-81934918D01*
X168245442Y-81934918D01*
G37*
G36*
X135024585Y-79174602D02*
G01*
X135174410Y-79204404D01*
X135456674Y-79321321D01*
X135710705Y-79491059D01*
X135926741Y-79707095D01*
X136096479Y-79961126D01*
X136213396Y-80243390D01*
X136273000Y-80543040D01*
X136273000Y-80848560D01*
X136213396Y-81148210D01*
X136096479Y-81430474D01*
X135926741Y-81684505D01*
X135710705Y-81900541D01*
X135456674Y-82070279D01*
X135174410Y-82187196D01*
X135024585Y-82216998D01*
X134874761Y-82246800D01*
X134569239Y-82246800D01*
X134419415Y-82216998D01*
X134269590Y-82187196D01*
X133987326Y-82070279D01*
X133733295Y-81900541D01*
X133517259Y-81684505D01*
X133347521Y-81430474D01*
X133230604Y-81148210D01*
X133171000Y-80848560D01*
X133171000Y-80543040D01*
X133230604Y-80243390D01*
X133347521Y-79961126D01*
X133517259Y-79707095D01*
X133733295Y-79491059D01*
X133987326Y-79321321D01*
X134269590Y-79204404D01*
X134419415Y-79174602D01*
X134569239Y-79144800D01*
X134874761Y-79144800D01*
X135024585Y-79174602D01*
X135024585Y-79174602D01*
G37*
G36*
X152156585Y-79174602D02*
G01*
X152306410Y-79204404D01*
X152588674Y-79321321D01*
X152842705Y-79491059D01*
X153058741Y-79707095D01*
X153228479Y-79961126D01*
X153345396Y-80243390D01*
X153405000Y-80543040D01*
X153405000Y-80848560D01*
X153345396Y-81148210D01*
X153228479Y-81430474D01*
X153058741Y-81684505D01*
X152842705Y-81900541D01*
X152588674Y-82070279D01*
X152306410Y-82187196D01*
X152156585Y-82216998D01*
X152006761Y-82246800D01*
X151701239Y-82246800D01*
X151551415Y-82216998D01*
X151401590Y-82187196D01*
X151119326Y-82070279D01*
X150865295Y-81900541D01*
X150649259Y-81684505D01*
X150479521Y-81430474D01*
X150362604Y-81148210D01*
X150303000Y-80848560D01*
X150303000Y-80543040D01*
X150362604Y-80243390D01*
X150479521Y-79961126D01*
X150649259Y-79707095D01*
X150865295Y-79491059D01*
X151119326Y-79321321D01*
X151401590Y-79204404D01*
X151551415Y-79174602D01*
X151701239Y-79144800D01*
X152006761Y-79144800D01*
X152156585Y-79174602D01*
X152156585Y-79174602D01*
G37*
G36*
X163586585Y-79174602D02*
G01*
X163736410Y-79204404D01*
X164018674Y-79321321D01*
X164272705Y-79491059D01*
X164488741Y-79707095D01*
X164658479Y-79961126D01*
X164775396Y-80243390D01*
X164835000Y-80543040D01*
X164835000Y-80848560D01*
X164775396Y-81148210D01*
X164658479Y-81430474D01*
X164488741Y-81684505D01*
X164272705Y-81900541D01*
X164018674Y-82070279D01*
X163736410Y-82187196D01*
X163586585Y-82216998D01*
X163436761Y-82246800D01*
X163131239Y-82246800D01*
X162981415Y-82216998D01*
X162831590Y-82187196D01*
X162549326Y-82070279D01*
X162295295Y-81900541D01*
X162079259Y-81684505D01*
X161909521Y-81430474D01*
X161792604Y-81148210D01*
X161733000Y-80848560D01*
X161733000Y-80543040D01*
X161792604Y-80243390D01*
X161909521Y-79961126D01*
X162079259Y-79707095D01*
X162295295Y-79491059D01*
X162549326Y-79321321D01*
X162831590Y-79204404D01*
X162981415Y-79174602D01*
X163131239Y-79144800D01*
X163436761Y-79144800D01*
X163586585Y-79174602D01*
X163586585Y-79174602D01*
G37*
G36*
X146454585Y-79174602D02*
G01*
X146604410Y-79204404D01*
X146886674Y-79321321D01*
X147140705Y-79491059D01*
X147356741Y-79707095D01*
X147526479Y-79961126D01*
X147643396Y-80243390D01*
X147703000Y-80543040D01*
X147703000Y-80848560D01*
X147643396Y-81148210D01*
X147526479Y-81430474D01*
X147356741Y-81684505D01*
X147140705Y-81900541D01*
X146886674Y-82070279D01*
X146604410Y-82187196D01*
X146454585Y-82216998D01*
X146304761Y-82246800D01*
X145999239Y-82246800D01*
X145849415Y-82216998D01*
X145699590Y-82187196D01*
X145417326Y-82070279D01*
X145163295Y-81900541D01*
X144947259Y-81684505D01*
X144777521Y-81430474D01*
X144660604Y-81148210D01*
X144601000Y-80848560D01*
X144601000Y-80543040D01*
X144660604Y-80243390D01*
X144777521Y-79961126D01*
X144947259Y-79707095D01*
X145163295Y-79491059D01*
X145417326Y-79321321D01*
X145699590Y-79204404D01*
X145849415Y-79174602D01*
X145999239Y-79144800D01*
X146304761Y-79144800D01*
X146454585Y-79174602D01*
X146454585Y-79174602D01*
G37*
G36*
X97129972Y-79060918D02*
G01*
X97375839Y-79162759D01*
X97487228Y-79237187D01*
X97597111Y-79310609D01*
X97785291Y-79498789D01*
X97933142Y-79720063D01*
X98034982Y-79965928D01*
X98086900Y-80226937D01*
X98086900Y-80493063D01*
X98034982Y-80754072D01*
X97933142Y-80999937D01*
X97834070Y-81148209D01*
X97785290Y-81221212D01*
X97597112Y-81409390D01*
X97375839Y-81557241D01*
X97375838Y-81557242D01*
X97375837Y-81557242D01*
X97129972Y-81659082D01*
X96868963Y-81711000D01*
X96602837Y-81711000D01*
X96341828Y-81659082D01*
X96095963Y-81557242D01*
X96095962Y-81557242D01*
X96095961Y-81557241D01*
X95874688Y-81409390D01*
X95686510Y-81221212D01*
X95637731Y-81148209D01*
X95538658Y-80999937D01*
X95436818Y-80754072D01*
X95384900Y-80493063D01*
X95384900Y-80226937D01*
X95436818Y-79965928D01*
X95538658Y-79720063D01*
X95686509Y-79498789D01*
X95874689Y-79310609D01*
X95984572Y-79237187D01*
X96095961Y-79162759D01*
X96341828Y-79060918D01*
X96602837Y-79009000D01*
X96868963Y-79009000D01*
X97129972Y-79060918D01*
X97129972Y-79060918D01*
G37*
G36*
X169542585Y-75834502D02*
G01*
X169692410Y-75864304D01*
X169974674Y-75981221D01*
X170228705Y-76150959D01*
X170444741Y-76366995D01*
X170614479Y-76621026D01*
X170731396Y-76903290D01*
X170761198Y-77053115D01*
X170785948Y-77177539D01*
X170791000Y-77202940D01*
X170791000Y-77508460D01*
X170731396Y-77808110D01*
X170614479Y-78090374D01*
X170444741Y-78344405D01*
X170228705Y-78560441D01*
X169974674Y-78730179D01*
X169692410Y-78847096D01*
X169542585Y-78876898D01*
X169392761Y-78906700D01*
X169087239Y-78906700D01*
X168937415Y-78876898D01*
X168787590Y-78847096D01*
X168505326Y-78730179D01*
X168251295Y-78560441D01*
X168035259Y-78344405D01*
X167865521Y-78090374D01*
X167748604Y-77808110D01*
X167689000Y-77508460D01*
X167689000Y-77202940D01*
X167694053Y-77177539D01*
X167718802Y-77053115D01*
X167748604Y-76903290D01*
X167865521Y-76621026D01*
X168035259Y-76366995D01*
X168251295Y-76150959D01*
X168505326Y-75981221D01*
X168787590Y-75864304D01*
X168937415Y-75834502D01*
X169087239Y-75804700D01*
X169392761Y-75804700D01*
X169542585Y-75834502D01*
X169542585Y-75834502D01*
G37*
G36*
X87275455Y-75804700D02*
G01*
X87447410Y-75838904D01*
X87729674Y-75955821D01*
X87983705Y-76125559D01*
X88199741Y-76341595D01*
X88369479Y-76595626D01*
X88486396Y-76877890D01*
X88494204Y-76917144D01*
X88546000Y-77177539D01*
X88546000Y-77483061D01*
X88537460Y-77525992D01*
X88486396Y-77782710D01*
X88369479Y-78064974D01*
X88199741Y-78319005D01*
X87983705Y-78535041D01*
X87729674Y-78704779D01*
X87447410Y-78821696D01*
X87319715Y-78847096D01*
X87147761Y-78881300D01*
X86842239Y-78881300D01*
X86670285Y-78847096D01*
X86542590Y-78821696D01*
X86260326Y-78704779D01*
X86006295Y-78535041D01*
X85790259Y-78319005D01*
X85620521Y-78064974D01*
X85503604Y-77782710D01*
X85452540Y-77525992D01*
X85444000Y-77483061D01*
X85444000Y-77177539D01*
X85495796Y-76917144D01*
X85503604Y-76877890D01*
X85620521Y-76595626D01*
X85790259Y-76341595D01*
X86006295Y-76125559D01*
X86260326Y-75955821D01*
X86542590Y-75838904D01*
X86714545Y-75804700D01*
X86842239Y-75779300D01*
X87147761Y-75779300D01*
X87275455Y-75804700D01*
X87275455Y-75804700D01*
G37*
G36*
X104259635Y-74593454D02*
G01*
X104476600Y-74659270D01*
X104476602Y-74659271D01*
X104676555Y-74766147D01*
X104851818Y-74909982D01*
X104995653Y-75085245D01*
X105097762Y-75276279D01*
X105102530Y-75285200D01*
X105146647Y-75430635D01*
X105168986Y-75504275D01*
X105172908Y-75523996D01*
X105182284Y-75546635D01*
X105195897Y-75567010D01*
X105213223Y-75584338D01*
X105233597Y-75597953D01*
X105256236Y-75607331D01*
X105280269Y-75612113D01*
X105304773Y-75612114D01*
X105328806Y-75607334D01*
X105351445Y-75597958D01*
X105371820Y-75584345D01*
X105389148Y-75567019D01*
X105402765Y-75546641D01*
X105464772Y-75430635D01*
X105564868Y-75308667D01*
X105686836Y-75208571D01*
X105825988Y-75134192D01*
X105876319Y-75118925D01*
X105976978Y-75088390D01*
X106134000Y-75072925D01*
X106291023Y-75088390D01*
X106391682Y-75118925D01*
X106442013Y-75134192D01*
X106581165Y-75208571D01*
X106703133Y-75308667D01*
X106803229Y-75430635D01*
X106877608Y-75569787D01*
X106890447Y-75612113D01*
X106923410Y-75720777D01*
X106935000Y-75838455D01*
X106935000Y-76917145D01*
X106923410Y-77034823D01*
X106892875Y-77135482D01*
X106877608Y-77185813D01*
X106865235Y-77208961D01*
X106803229Y-77324965D01*
X106703133Y-77446933D01*
X106606798Y-77525992D01*
X106581164Y-77547029D01*
X106442012Y-77621408D01*
X106391681Y-77636675D01*
X106291022Y-77667210D01*
X106134000Y-77682675D01*
X105976977Y-77667210D01*
X105876318Y-77636675D01*
X105825987Y-77621408D01*
X105686835Y-77547029D01*
X105661201Y-77525992D01*
X105564867Y-77446933D01*
X105464771Y-77324964D01*
X105426537Y-77253433D01*
X105402765Y-77208960D01*
X105389151Y-77188586D01*
X105371824Y-77171259D01*
X105351450Y-77157645D01*
X105328811Y-77148268D01*
X105304777Y-77143488D01*
X105280273Y-77143488D01*
X105256240Y-77148269D01*
X105233601Y-77157646D01*
X105213227Y-77171260D01*
X105195900Y-77188587D01*
X105182286Y-77208961D01*
X105172909Y-77231600D01*
X105168988Y-77251317D01*
X105168346Y-77253433D01*
X105168346Y-77253435D01*
X105102530Y-77470399D01*
X105102529Y-77470402D01*
X104995653Y-77670355D01*
X104916652Y-77766617D01*
X104851818Y-77845618D01*
X104703204Y-77967581D01*
X104676553Y-77989453D01*
X104535266Y-78064972D01*
X104476599Y-78096330D01*
X104259634Y-78162146D01*
X104034000Y-78184369D01*
X103808365Y-78162146D01*
X103591400Y-78096330D01*
X103580253Y-78090372D01*
X103391445Y-77989453D01*
X103295183Y-77910452D01*
X103216182Y-77845618D01*
X103072348Y-77670354D01*
X103046186Y-77621408D01*
X102965471Y-77470401D01*
X102961996Y-77458945D01*
X102899654Y-77253434D01*
X102891561Y-77171260D01*
X102883000Y-77084344D01*
X102883000Y-75671255D01*
X102899654Y-75502166D01*
X102921353Y-75430635D01*
X102965470Y-75285200D01*
X103046186Y-75134192D01*
X103072348Y-75085246D01*
X103216183Y-74909982D01*
X103391446Y-74766147D01*
X103591399Y-74659271D01*
X103591401Y-74659270D01*
X103808366Y-74593454D01*
X104034000Y-74571231D01*
X104259635Y-74593454D01*
X104259635Y-74593454D01*
G37*
G36*
X112459635Y-74593454D02*
G01*
X112676600Y-74659270D01*
X112676602Y-74659271D01*
X112876555Y-74766147D01*
X113051818Y-74909982D01*
X113195653Y-75085245D01*
X113297762Y-75276279D01*
X113302530Y-75285200D01*
X113346647Y-75430635D01*
X113368346Y-75502166D01*
X113385000Y-75671255D01*
X113385000Y-77084345D01*
X113375821Y-77177539D01*
X113368346Y-77253435D01*
X113306005Y-77458946D01*
X113302529Y-77470402D01*
X113195653Y-77670355D01*
X113116652Y-77766617D01*
X113051818Y-77845618D01*
X112903204Y-77967581D01*
X112876553Y-77989453D01*
X112735266Y-78064972D01*
X112676599Y-78096330D01*
X112459634Y-78162146D01*
X112234000Y-78184369D01*
X112008365Y-78162146D01*
X111791400Y-78096330D01*
X111780253Y-78090372D01*
X111591445Y-77989453D01*
X111495183Y-77910452D01*
X111416182Y-77845618D01*
X111272348Y-77670354D01*
X111246186Y-77621408D01*
X111170238Y-77479320D01*
X111156625Y-77458946D01*
X111139298Y-77441619D01*
X111118923Y-77428005D01*
X111096285Y-77418627D01*
X111072251Y-77413847D01*
X111047747Y-77413847D01*
X111023714Y-77418627D01*
X111001075Y-77428005D01*
X110980701Y-77441618D01*
X110963374Y-77458945D01*
X110949760Y-77479320D01*
X110940382Y-77501958D01*
X110935602Y-77525992D01*
X110935000Y-77538244D01*
X110935000Y-77678800D01*
X109333000Y-77678800D01*
X109333000Y-75076800D01*
X110935000Y-75076800D01*
X110935000Y-75217355D01*
X110937402Y-75241741D01*
X110944515Y-75265190D01*
X110956066Y-75286801D01*
X110971611Y-75305743D01*
X110990553Y-75321288D01*
X111012164Y-75332839D01*
X111035613Y-75339952D01*
X111059999Y-75342354D01*
X111084385Y-75339952D01*
X111107834Y-75332839D01*
X111129445Y-75321288D01*
X111148387Y-75305743D01*
X111170238Y-75276279D01*
X111272348Y-75085246D01*
X111416183Y-74909982D01*
X111591446Y-74766147D01*
X111791399Y-74659271D01*
X111791401Y-74659270D01*
X112008366Y-74593454D01*
X112234000Y-74571231D01*
X112459635Y-74593454D01*
X112459635Y-74593454D01*
G37*
G36*
X108291023Y-75088390D02*
G01*
X108391682Y-75118925D01*
X108442013Y-75134192D01*
X108581165Y-75208571D01*
X108703133Y-75308667D01*
X108803229Y-75430635D01*
X108877608Y-75569787D01*
X108890447Y-75612113D01*
X108923410Y-75720777D01*
X108935000Y-75838455D01*
X108935000Y-76917145D01*
X108923410Y-77034823D01*
X108892875Y-77135482D01*
X108877608Y-77185813D01*
X108865235Y-77208961D01*
X108803229Y-77324965D01*
X108703133Y-77446933D01*
X108606798Y-77525992D01*
X108581164Y-77547029D01*
X108442012Y-77621408D01*
X108391681Y-77636675D01*
X108291022Y-77667210D01*
X108134000Y-77682675D01*
X107976977Y-77667210D01*
X107876318Y-77636675D01*
X107825987Y-77621408D01*
X107686835Y-77547029D01*
X107661201Y-77525992D01*
X107564867Y-77446933D01*
X107464771Y-77324964D01*
X107426537Y-77253433D01*
X107390392Y-77185812D01*
X107359613Y-77084345D01*
X107344590Y-77034822D01*
X107333000Y-76917144D01*
X107333001Y-75838455D01*
X107344591Y-75720777D01*
X107377554Y-75612113D01*
X107390393Y-75569787D01*
X107464772Y-75430635D01*
X107564868Y-75308667D01*
X107686836Y-75208571D01*
X107825988Y-75134192D01*
X107876319Y-75118925D01*
X107976978Y-75088390D01*
X108134000Y-75072925D01*
X108291023Y-75088390D01*
X108291023Y-75088390D01*
G37*
M02*
