G04 #@! TF.GenerationSoftware,KiCad,Pcbnew,(5.1.4)-1*
G04 #@! TF.CreationDate,2020-06-09T23:55:30+02:00*
G04 #@! TF.ProjectId,talkbox,74616c6b-626f-4782-9e6b-696361645f70,1.0*
G04 #@! TF.SameCoordinates,Original*
G04 #@! TF.FileFunction,Soldermask,Top*
G04 #@! TF.FilePolarity,Negative*
%FSLAX46Y46*%
G04 Gerber Fmt 4.6, Leading zero omitted, Abs format (unit mm)*
G04 Created by KiCad (PCBNEW (5.1.4)-1) date 2020-06-09 23:55:30*
%MOMM*%
%LPD*%
G04 APERTURE LIST*
%ADD10C,0.100000*%
G04 APERTURE END LIST*
D10*
G36*
X97116795Y-117360546D02*
G01*
X97289866Y-117432234D01*
X97343666Y-117468182D01*
X97445627Y-117536310D01*
X97578090Y-117668773D01*
X97578091Y-117668775D01*
X97682166Y-117824534D01*
X97753854Y-117997605D01*
X97790400Y-118181333D01*
X97790400Y-118368667D01*
X97753854Y-118552395D01*
X97682166Y-118725466D01*
X97682165Y-118725467D01*
X97578090Y-118881227D01*
X97445627Y-119013690D01*
X97367218Y-119066081D01*
X97289866Y-119117766D01*
X97116795Y-119189454D01*
X96933067Y-119226000D01*
X96745733Y-119226000D01*
X96562005Y-119189454D01*
X96388934Y-119117766D01*
X96311582Y-119066081D01*
X96233173Y-119013690D01*
X96100710Y-118881227D01*
X95996635Y-118725467D01*
X95996634Y-118725466D01*
X95924946Y-118552395D01*
X95888400Y-118368667D01*
X95888400Y-118181333D01*
X95924946Y-117997605D01*
X95996634Y-117824534D01*
X96100709Y-117668775D01*
X96100710Y-117668773D01*
X96233173Y-117536310D01*
X96335134Y-117468182D01*
X96388934Y-117432234D01*
X96562005Y-117360546D01*
X96745733Y-117324000D01*
X96933067Y-117324000D01*
X97116795Y-117360546D01*
X97116795Y-117360546D01*
G37*
G36*
X159562395Y-117360546D02*
G01*
X159735466Y-117432234D01*
X159789266Y-117468182D01*
X159891227Y-117536310D01*
X160023690Y-117668773D01*
X160023691Y-117668775D01*
X160127766Y-117824534D01*
X160199454Y-117997605D01*
X160236000Y-118181333D01*
X160236000Y-118368667D01*
X160199454Y-118552395D01*
X160127766Y-118725466D01*
X160127765Y-118725467D01*
X160023690Y-118881227D01*
X159891227Y-119013690D01*
X159812818Y-119066081D01*
X159735466Y-119117766D01*
X159562395Y-119189454D01*
X159378667Y-119226000D01*
X159191333Y-119226000D01*
X159007605Y-119189454D01*
X158834534Y-119117766D01*
X158757182Y-119066081D01*
X158678773Y-119013690D01*
X158546310Y-118881227D01*
X158442235Y-118725467D01*
X158442234Y-118725466D01*
X158370546Y-118552395D01*
X158334000Y-118368667D01*
X158334000Y-118181333D01*
X158370546Y-117997605D01*
X158442234Y-117824534D01*
X158546309Y-117668775D01*
X158546310Y-117668773D01*
X158678773Y-117536310D01*
X158780734Y-117468182D01*
X158834534Y-117432234D01*
X159007605Y-117360546D01*
X159191333Y-117324000D01*
X159378667Y-117324000D01*
X159562395Y-117360546D01*
X159562395Y-117360546D01*
G37*
G36*
X99616795Y-117360546D02*
G01*
X99789866Y-117432234D01*
X99843666Y-117468182D01*
X99945627Y-117536310D01*
X100078090Y-117668773D01*
X100078091Y-117668775D01*
X100182166Y-117824534D01*
X100253854Y-117997605D01*
X100290400Y-118181333D01*
X100290400Y-118368667D01*
X100253854Y-118552395D01*
X100182166Y-118725466D01*
X100182165Y-118725467D01*
X100078090Y-118881227D01*
X99945627Y-119013690D01*
X99867218Y-119066081D01*
X99789866Y-119117766D01*
X99616795Y-119189454D01*
X99433067Y-119226000D01*
X99245733Y-119226000D01*
X99062005Y-119189454D01*
X98888934Y-119117766D01*
X98811582Y-119066081D01*
X98733173Y-119013690D01*
X98600710Y-118881227D01*
X98496635Y-118725467D01*
X98496634Y-118725466D01*
X98424946Y-118552395D01*
X98388400Y-118368667D01*
X98388400Y-118181333D01*
X98424946Y-117997605D01*
X98496634Y-117824534D01*
X98600709Y-117668775D01*
X98600710Y-117668773D01*
X98733173Y-117536310D01*
X98835134Y-117468182D01*
X98888934Y-117432234D01*
X99062005Y-117360546D01*
X99245733Y-117324000D01*
X99433067Y-117324000D01*
X99616795Y-117360546D01*
X99616795Y-117360546D01*
G37*
G36*
X157062395Y-117360546D02*
G01*
X157235466Y-117432234D01*
X157289266Y-117468182D01*
X157391227Y-117536310D01*
X157523690Y-117668773D01*
X157523691Y-117668775D01*
X157627766Y-117824534D01*
X157699454Y-117997605D01*
X157736000Y-118181333D01*
X157736000Y-118368667D01*
X157699454Y-118552395D01*
X157627766Y-118725466D01*
X157627765Y-118725467D01*
X157523690Y-118881227D01*
X157391227Y-119013690D01*
X157312818Y-119066081D01*
X157235466Y-119117766D01*
X157062395Y-119189454D01*
X156878667Y-119226000D01*
X156691333Y-119226000D01*
X156507605Y-119189454D01*
X156334534Y-119117766D01*
X156257182Y-119066081D01*
X156178773Y-119013690D01*
X156046310Y-118881227D01*
X155942235Y-118725467D01*
X155942234Y-118725466D01*
X155870546Y-118552395D01*
X155834000Y-118368667D01*
X155834000Y-118181333D01*
X155870546Y-117997605D01*
X155942234Y-117824534D01*
X156046309Y-117668775D01*
X156046310Y-117668773D01*
X156178773Y-117536310D01*
X156280734Y-117468182D01*
X156334534Y-117432234D01*
X156507605Y-117360546D01*
X156691333Y-117324000D01*
X156878667Y-117324000D01*
X157062395Y-117360546D01*
X157062395Y-117360546D01*
G37*
G36*
X162062395Y-117360546D02*
G01*
X162235466Y-117432234D01*
X162289266Y-117468182D01*
X162391227Y-117536310D01*
X162523690Y-117668773D01*
X162523691Y-117668775D01*
X162627766Y-117824534D01*
X162699454Y-117997605D01*
X162736000Y-118181333D01*
X162736000Y-118368667D01*
X162699454Y-118552395D01*
X162627766Y-118725466D01*
X162627765Y-118725467D01*
X162523690Y-118881227D01*
X162391227Y-119013690D01*
X162312818Y-119066081D01*
X162235466Y-119117766D01*
X162062395Y-119189454D01*
X161878667Y-119226000D01*
X161691333Y-119226000D01*
X161507605Y-119189454D01*
X161334534Y-119117766D01*
X161257182Y-119066081D01*
X161178773Y-119013690D01*
X161046310Y-118881227D01*
X160942235Y-118725467D01*
X160942234Y-118725466D01*
X160870546Y-118552395D01*
X160834000Y-118368667D01*
X160834000Y-118181333D01*
X160870546Y-117997605D01*
X160942234Y-117824534D01*
X161046309Y-117668775D01*
X161046310Y-117668773D01*
X161178773Y-117536310D01*
X161280734Y-117468182D01*
X161334534Y-117432234D01*
X161507605Y-117360546D01*
X161691333Y-117324000D01*
X161878667Y-117324000D01*
X162062395Y-117360546D01*
X162062395Y-117360546D01*
G37*
G36*
X128339395Y-117360546D02*
G01*
X128512466Y-117432234D01*
X128566266Y-117468182D01*
X128668227Y-117536310D01*
X128800690Y-117668773D01*
X128800691Y-117668775D01*
X128904766Y-117824534D01*
X128976454Y-117997605D01*
X129013000Y-118181333D01*
X129013000Y-118368667D01*
X128976454Y-118552395D01*
X128904766Y-118725466D01*
X128904765Y-118725467D01*
X128800690Y-118881227D01*
X128668227Y-119013690D01*
X128589818Y-119066081D01*
X128512466Y-119117766D01*
X128339395Y-119189454D01*
X128155667Y-119226000D01*
X127968333Y-119226000D01*
X127784605Y-119189454D01*
X127611534Y-119117766D01*
X127534182Y-119066081D01*
X127455773Y-119013690D01*
X127323310Y-118881227D01*
X127219235Y-118725467D01*
X127219234Y-118725466D01*
X127147546Y-118552395D01*
X127111000Y-118368667D01*
X127111000Y-118181333D01*
X127147546Y-117997605D01*
X127219234Y-117824534D01*
X127323309Y-117668775D01*
X127323310Y-117668773D01*
X127455773Y-117536310D01*
X127557734Y-117468182D01*
X127611534Y-117432234D01*
X127784605Y-117360546D01*
X127968333Y-117324000D01*
X128155667Y-117324000D01*
X128339395Y-117360546D01*
X128339395Y-117360546D01*
G37*
G36*
X125839395Y-117360546D02*
G01*
X126012466Y-117432234D01*
X126066266Y-117468182D01*
X126168227Y-117536310D01*
X126300690Y-117668773D01*
X126300691Y-117668775D01*
X126404766Y-117824534D01*
X126476454Y-117997605D01*
X126513000Y-118181333D01*
X126513000Y-118368667D01*
X126476454Y-118552395D01*
X126404766Y-118725466D01*
X126404765Y-118725467D01*
X126300690Y-118881227D01*
X126168227Y-119013690D01*
X126089818Y-119066081D01*
X126012466Y-119117766D01*
X125839395Y-119189454D01*
X125655667Y-119226000D01*
X125468333Y-119226000D01*
X125284605Y-119189454D01*
X125111534Y-119117766D01*
X125034182Y-119066081D01*
X124955773Y-119013690D01*
X124823310Y-118881227D01*
X124719235Y-118725467D01*
X124719234Y-118725466D01*
X124647546Y-118552395D01*
X124611000Y-118368667D01*
X124611000Y-118181333D01*
X124647546Y-117997605D01*
X124719234Y-117824534D01*
X124823309Y-117668775D01*
X124823310Y-117668773D01*
X124955773Y-117536310D01*
X125057734Y-117468182D01*
X125111534Y-117432234D01*
X125284605Y-117360546D01*
X125468333Y-117324000D01*
X125655667Y-117324000D01*
X125839395Y-117360546D01*
X125839395Y-117360546D01*
G37*
G36*
X94616795Y-117360546D02*
G01*
X94789866Y-117432234D01*
X94843666Y-117468182D01*
X94945627Y-117536310D01*
X95078090Y-117668773D01*
X95078091Y-117668775D01*
X95182166Y-117824534D01*
X95253854Y-117997605D01*
X95290400Y-118181333D01*
X95290400Y-118368667D01*
X95253854Y-118552395D01*
X95182166Y-118725466D01*
X95182165Y-118725467D01*
X95078090Y-118881227D01*
X94945627Y-119013690D01*
X94867218Y-119066081D01*
X94789866Y-119117766D01*
X94616795Y-119189454D01*
X94433067Y-119226000D01*
X94245733Y-119226000D01*
X94062005Y-119189454D01*
X93888934Y-119117766D01*
X93811582Y-119066081D01*
X93733173Y-119013690D01*
X93600710Y-118881227D01*
X93496635Y-118725467D01*
X93496634Y-118725466D01*
X93424946Y-118552395D01*
X93388400Y-118368667D01*
X93388400Y-118181333D01*
X93424946Y-117997605D01*
X93496634Y-117824534D01*
X93600709Y-117668775D01*
X93600710Y-117668773D01*
X93733173Y-117536310D01*
X93835134Y-117468182D01*
X93888934Y-117432234D01*
X94062005Y-117360546D01*
X94245733Y-117324000D01*
X94433067Y-117324000D01*
X94616795Y-117360546D01*
X94616795Y-117360546D01*
G37*
G36*
X130839395Y-117360546D02*
G01*
X131012466Y-117432234D01*
X131066266Y-117468182D01*
X131168227Y-117536310D01*
X131300690Y-117668773D01*
X131300691Y-117668775D01*
X131404766Y-117824534D01*
X131476454Y-117997605D01*
X131513000Y-118181333D01*
X131513000Y-118368667D01*
X131476454Y-118552395D01*
X131404766Y-118725466D01*
X131404765Y-118725467D01*
X131300690Y-118881227D01*
X131168227Y-119013690D01*
X131089818Y-119066081D01*
X131012466Y-119117766D01*
X130839395Y-119189454D01*
X130655667Y-119226000D01*
X130468333Y-119226000D01*
X130284605Y-119189454D01*
X130111534Y-119117766D01*
X130034182Y-119066081D01*
X129955773Y-119013690D01*
X129823310Y-118881227D01*
X129719235Y-118725467D01*
X129719234Y-118725466D01*
X129647546Y-118552395D01*
X129611000Y-118368667D01*
X129611000Y-118181333D01*
X129647546Y-117997605D01*
X129719234Y-117824534D01*
X129823309Y-117668775D01*
X129823310Y-117668773D01*
X129955773Y-117536310D01*
X130057734Y-117468182D01*
X130111534Y-117432234D01*
X130284605Y-117360546D01*
X130468333Y-117324000D01*
X130655667Y-117324000D01*
X130839395Y-117360546D01*
X130839395Y-117360546D01*
G37*
G36*
X87259485Y-115128802D02*
G01*
X87409310Y-115158604D01*
X87691574Y-115275521D01*
X87945605Y-115445259D01*
X88161641Y-115661295D01*
X88331379Y-115915326D01*
X88448296Y-116197590D01*
X88507900Y-116497240D01*
X88507900Y-116802760D01*
X88448296Y-117102410D01*
X88331379Y-117384674D01*
X88161641Y-117638705D01*
X87945605Y-117854741D01*
X87691574Y-118024479D01*
X87409310Y-118141396D01*
X87259485Y-118171198D01*
X87109661Y-118201000D01*
X86804139Y-118201000D01*
X86654315Y-118171198D01*
X86504490Y-118141396D01*
X86222226Y-118024479D01*
X85968195Y-117854741D01*
X85752159Y-117638705D01*
X85582421Y-117384674D01*
X85465504Y-117102410D01*
X85405900Y-116802760D01*
X85405900Y-116497240D01*
X85465504Y-116197590D01*
X85582421Y-115915326D01*
X85752159Y-115661295D01*
X85968195Y-115445259D01*
X86222226Y-115275521D01*
X86504490Y-115158604D01*
X86654315Y-115128802D01*
X86804139Y-115099000D01*
X87109661Y-115099000D01*
X87259485Y-115128802D01*
X87259485Y-115128802D01*
G37*
G36*
X169484116Y-115099000D02*
G01*
X169718410Y-115145604D01*
X170000674Y-115262521D01*
X170254705Y-115432259D01*
X170470741Y-115648295D01*
X170640479Y-115902326D01*
X170757396Y-116184590D01*
X170817000Y-116484240D01*
X170817000Y-116789760D01*
X170757396Y-117089410D01*
X170640479Y-117371674D01*
X170470741Y-117625705D01*
X170254705Y-117841741D01*
X170000674Y-118011479D01*
X169718410Y-118128396D01*
X169653054Y-118141396D01*
X169418761Y-118188000D01*
X169113239Y-118188000D01*
X168878946Y-118141396D01*
X168813590Y-118128396D01*
X168531326Y-118011479D01*
X168277295Y-117841741D01*
X168061259Y-117625705D01*
X167891521Y-117371674D01*
X167774604Y-117089410D01*
X167715000Y-116789760D01*
X167715000Y-116484240D01*
X167774604Y-116184590D01*
X167891521Y-115902326D01*
X168061259Y-115648295D01*
X168277295Y-115432259D01*
X168531326Y-115262521D01*
X168813590Y-115145604D01*
X169047884Y-115099000D01*
X169113239Y-115086000D01*
X169418761Y-115086000D01*
X169484116Y-115099000D01*
X169484116Y-115099000D01*
G37*
G36*
X107028997Y-115815051D02*
G01*
X107062652Y-115825261D01*
X107093665Y-115841838D01*
X107120851Y-115864149D01*
X107143162Y-115891335D01*
X107159739Y-115922348D01*
X107169949Y-115956003D01*
X107174000Y-115997138D01*
X107174000Y-117326862D01*
X107169949Y-117367997D01*
X107159739Y-117401652D01*
X107143162Y-117432665D01*
X107120851Y-117459851D01*
X107093665Y-117482162D01*
X107062652Y-117498739D01*
X107028997Y-117508949D01*
X106987862Y-117513000D01*
X104258138Y-117513000D01*
X104217003Y-117508949D01*
X104183348Y-117498739D01*
X104152335Y-117482162D01*
X104125149Y-117459851D01*
X104102838Y-117432665D01*
X104086261Y-117401652D01*
X104076051Y-117367997D01*
X104072000Y-117326862D01*
X104072000Y-115997138D01*
X104076051Y-115956003D01*
X104086261Y-115922348D01*
X104102838Y-115891335D01*
X104125149Y-115864149D01*
X104152335Y-115841838D01*
X104183348Y-115825261D01*
X104217003Y-115815051D01*
X104258138Y-115811000D01*
X106987862Y-115811000D01*
X107028997Y-115815051D01*
X107028997Y-115815051D01*
G37*
G36*
X111428997Y-115815051D02*
G01*
X111462652Y-115825261D01*
X111493665Y-115841838D01*
X111520851Y-115864149D01*
X111543162Y-115891335D01*
X111559739Y-115922348D01*
X111569949Y-115956003D01*
X111574000Y-115997138D01*
X111574000Y-117326862D01*
X111569949Y-117367997D01*
X111559739Y-117401652D01*
X111543162Y-117432665D01*
X111520851Y-117459851D01*
X111493665Y-117482162D01*
X111462652Y-117498739D01*
X111428997Y-117508949D01*
X111387862Y-117513000D01*
X108658138Y-117513000D01*
X108617003Y-117508949D01*
X108583348Y-117498739D01*
X108552335Y-117482162D01*
X108525149Y-117459851D01*
X108502838Y-117432665D01*
X108486261Y-117401652D01*
X108476051Y-117367997D01*
X108472000Y-117326862D01*
X108472000Y-115997138D01*
X108476051Y-115956003D01*
X108486261Y-115922348D01*
X108502838Y-115891335D01*
X108525149Y-115864149D01*
X108552335Y-115841838D01*
X108583348Y-115825261D01*
X108617003Y-115815051D01*
X108658138Y-115811000D01*
X111387862Y-115811000D01*
X111428997Y-115815051D01*
X111428997Y-115815051D01*
G37*
G36*
X115867997Y-115650051D02*
G01*
X115901652Y-115660261D01*
X115932665Y-115676838D01*
X115959851Y-115699149D01*
X115982162Y-115726335D01*
X115998739Y-115757348D01*
X116008949Y-115791003D01*
X116013000Y-115832138D01*
X116013000Y-117161862D01*
X116008949Y-117202997D01*
X115998739Y-117236652D01*
X115982162Y-117267665D01*
X115959851Y-117294851D01*
X115932665Y-117317162D01*
X115901652Y-117333739D01*
X115867997Y-117343949D01*
X115826862Y-117348000D01*
X113097138Y-117348000D01*
X113056003Y-117343949D01*
X113022348Y-117333739D01*
X112991335Y-117317162D01*
X112964149Y-117294851D01*
X112941838Y-117267665D01*
X112925261Y-117236652D01*
X112915051Y-117202997D01*
X112911000Y-117161862D01*
X112911000Y-115832138D01*
X112915051Y-115791003D01*
X112925261Y-115757348D01*
X112941838Y-115726335D01*
X112964149Y-115699149D01*
X112991335Y-115676838D01*
X113022348Y-115660261D01*
X113056003Y-115650051D01*
X113097138Y-115646000D01*
X115826862Y-115646000D01*
X115867997Y-115650051D01*
X115867997Y-115650051D01*
G37*
G36*
X120267997Y-115650051D02*
G01*
X120301652Y-115660261D01*
X120332665Y-115676838D01*
X120359851Y-115699149D01*
X120382162Y-115726335D01*
X120398739Y-115757348D01*
X120408949Y-115791003D01*
X120413000Y-115832138D01*
X120413000Y-117161862D01*
X120408949Y-117202997D01*
X120398739Y-117236652D01*
X120382162Y-117267665D01*
X120359851Y-117294851D01*
X120332665Y-117317162D01*
X120301652Y-117333739D01*
X120267997Y-117343949D01*
X120226862Y-117348000D01*
X117497138Y-117348000D01*
X117456003Y-117343949D01*
X117422348Y-117333739D01*
X117391335Y-117317162D01*
X117364149Y-117294851D01*
X117341838Y-117267665D01*
X117325261Y-117236652D01*
X117315051Y-117202997D01*
X117311000Y-117161862D01*
X117311000Y-115832138D01*
X117315051Y-115791003D01*
X117325261Y-115757348D01*
X117341838Y-115726335D01*
X117364149Y-115699149D01*
X117391335Y-115676838D01*
X117422348Y-115660261D01*
X117456003Y-115650051D01*
X117497138Y-115646000D01*
X120226862Y-115646000D01*
X120267997Y-115650051D01*
X120267997Y-115650051D01*
G37*
G36*
X124260254Y-109302818D02*
G01*
X124633511Y-109457426D01*
X124633513Y-109457427D01*
X124969436Y-109681884D01*
X125255116Y-109967564D01*
X125468207Y-110286476D01*
X125479574Y-110303489D01*
X125634182Y-110676746D01*
X125713000Y-111072993D01*
X125713000Y-111477007D01*
X125634182Y-111873254D01*
X125487245Y-112227991D01*
X125479573Y-112246513D01*
X125255116Y-112582436D01*
X124969436Y-112868116D01*
X124633513Y-113092573D01*
X124633512Y-113092574D01*
X124633511Y-113092574D01*
X124260254Y-113247182D01*
X123864007Y-113326000D01*
X123459993Y-113326000D01*
X123063746Y-113247182D01*
X122690489Y-113092574D01*
X122690488Y-113092574D01*
X122690487Y-113092573D01*
X122354564Y-112868116D01*
X122068884Y-112582436D01*
X121844427Y-112246513D01*
X121836755Y-112227991D01*
X121689818Y-111873254D01*
X121611000Y-111477007D01*
X121611000Y-111072993D01*
X121689818Y-110676746D01*
X121844426Y-110303489D01*
X121855794Y-110286476D01*
X122068884Y-109967564D01*
X122354564Y-109681884D01*
X122690487Y-109457427D01*
X122690489Y-109457426D01*
X123063746Y-109302818D01*
X123459993Y-109224000D01*
X123864007Y-109224000D01*
X124260254Y-109302818D01*
X124260254Y-109302818D01*
G37*
G36*
X101837654Y-109302818D02*
G01*
X102210911Y-109457426D01*
X102210913Y-109457427D01*
X102546836Y-109681884D01*
X102832516Y-109967564D01*
X103045607Y-110286476D01*
X103056974Y-110303489D01*
X103211582Y-110676746D01*
X103290400Y-111072993D01*
X103290400Y-111477007D01*
X103211582Y-111873254D01*
X103064645Y-112227991D01*
X103056973Y-112246513D01*
X102832516Y-112582436D01*
X102546836Y-112868116D01*
X102210913Y-113092573D01*
X102210912Y-113092574D01*
X102210911Y-113092574D01*
X101837654Y-113247182D01*
X101441407Y-113326000D01*
X101037393Y-113326000D01*
X100641146Y-113247182D01*
X100267889Y-113092574D01*
X100267888Y-113092574D01*
X100267887Y-113092573D01*
X99931964Y-112868116D01*
X99646284Y-112582436D01*
X99421827Y-112246513D01*
X99414155Y-112227991D01*
X99267218Y-111873254D01*
X99188400Y-111477007D01*
X99188400Y-111072993D01*
X99267218Y-110676746D01*
X99421826Y-110303489D01*
X99433194Y-110286476D01*
X99646284Y-109967564D01*
X99931964Y-109681884D01*
X100267887Y-109457427D01*
X100267889Y-109457426D01*
X100641146Y-109302818D01*
X101037393Y-109224000D01*
X101441407Y-109224000D01*
X101837654Y-109302818D01*
X101837654Y-109302818D01*
G37*
G36*
X93037654Y-109302818D02*
G01*
X93410911Y-109457426D01*
X93410913Y-109457427D01*
X93746836Y-109681884D01*
X94032516Y-109967564D01*
X94245607Y-110286476D01*
X94256974Y-110303489D01*
X94411582Y-110676746D01*
X94490400Y-111072993D01*
X94490400Y-111477007D01*
X94411582Y-111873254D01*
X94264645Y-112227991D01*
X94256973Y-112246513D01*
X94032516Y-112582436D01*
X93746836Y-112868116D01*
X93410913Y-113092573D01*
X93410912Y-113092574D01*
X93410911Y-113092574D01*
X93037654Y-113247182D01*
X92641407Y-113326000D01*
X92237393Y-113326000D01*
X91841146Y-113247182D01*
X91467889Y-113092574D01*
X91467888Y-113092574D01*
X91467887Y-113092573D01*
X91131964Y-112868116D01*
X90846284Y-112582436D01*
X90621827Y-112246513D01*
X90614155Y-112227991D01*
X90467218Y-111873254D01*
X90388400Y-111477007D01*
X90388400Y-111072993D01*
X90467218Y-110676746D01*
X90621826Y-110303489D01*
X90633194Y-110286476D01*
X90846284Y-109967564D01*
X91131964Y-109681884D01*
X91467887Y-109457427D01*
X91467889Y-109457426D01*
X91841146Y-109302818D01*
X92237393Y-109224000D01*
X92641407Y-109224000D01*
X93037654Y-109302818D01*
X93037654Y-109302818D01*
G37*
G36*
X133060254Y-109302818D02*
G01*
X133433511Y-109457426D01*
X133433513Y-109457427D01*
X133769436Y-109681884D01*
X134055116Y-109967564D01*
X134268207Y-110286476D01*
X134279574Y-110303489D01*
X134434182Y-110676746D01*
X134513000Y-111072993D01*
X134513000Y-111477007D01*
X134434182Y-111873254D01*
X134287245Y-112227991D01*
X134279573Y-112246513D01*
X134055116Y-112582436D01*
X133769436Y-112868116D01*
X133433513Y-113092573D01*
X133433512Y-113092574D01*
X133433511Y-113092574D01*
X133060254Y-113247182D01*
X132664007Y-113326000D01*
X132259993Y-113326000D01*
X131863746Y-113247182D01*
X131490489Y-113092574D01*
X131490488Y-113092574D01*
X131490487Y-113092573D01*
X131154564Y-112868116D01*
X130868884Y-112582436D01*
X130644427Y-112246513D01*
X130636755Y-112227991D01*
X130489818Y-111873254D01*
X130411000Y-111477007D01*
X130411000Y-111072993D01*
X130489818Y-110676746D01*
X130644426Y-110303489D01*
X130655794Y-110286476D01*
X130868884Y-109967564D01*
X131154564Y-109681884D01*
X131490487Y-109457427D01*
X131490489Y-109457426D01*
X131863746Y-109302818D01*
X132259993Y-109224000D01*
X132664007Y-109224000D01*
X133060254Y-109302818D01*
X133060254Y-109302818D01*
G37*
G36*
X155483254Y-109302818D02*
G01*
X155856511Y-109457426D01*
X155856513Y-109457427D01*
X156192436Y-109681884D01*
X156478116Y-109967564D01*
X156691207Y-110286476D01*
X156702574Y-110303489D01*
X156857182Y-110676746D01*
X156936000Y-111072993D01*
X156936000Y-111477007D01*
X156857182Y-111873254D01*
X156710245Y-112227991D01*
X156702573Y-112246513D01*
X156478116Y-112582436D01*
X156192436Y-112868116D01*
X155856513Y-113092573D01*
X155856512Y-113092574D01*
X155856511Y-113092574D01*
X155483254Y-113247182D01*
X155087007Y-113326000D01*
X154682993Y-113326000D01*
X154286746Y-113247182D01*
X153913489Y-113092574D01*
X153913488Y-113092574D01*
X153913487Y-113092573D01*
X153577564Y-112868116D01*
X153291884Y-112582436D01*
X153067427Y-112246513D01*
X153059755Y-112227991D01*
X152912818Y-111873254D01*
X152834000Y-111477007D01*
X152834000Y-111072993D01*
X152912818Y-110676746D01*
X153067426Y-110303489D01*
X153078794Y-110286476D01*
X153291884Y-109967564D01*
X153577564Y-109681884D01*
X153913487Y-109457427D01*
X153913489Y-109457426D01*
X154286746Y-109302818D01*
X154682993Y-109224000D01*
X155087007Y-109224000D01*
X155483254Y-109302818D01*
X155483254Y-109302818D01*
G37*
G36*
X164283254Y-109302818D02*
G01*
X164656511Y-109457426D01*
X164656513Y-109457427D01*
X164992436Y-109681884D01*
X165278116Y-109967564D01*
X165491207Y-110286476D01*
X165502574Y-110303489D01*
X165657182Y-110676746D01*
X165736000Y-111072993D01*
X165736000Y-111477007D01*
X165657182Y-111873254D01*
X165510245Y-112227991D01*
X165502573Y-112246513D01*
X165278116Y-112582436D01*
X164992436Y-112868116D01*
X164656513Y-113092573D01*
X164656512Y-113092574D01*
X164656511Y-113092574D01*
X164283254Y-113247182D01*
X163887007Y-113326000D01*
X163482993Y-113326000D01*
X163086746Y-113247182D01*
X162713489Y-113092574D01*
X162713488Y-113092574D01*
X162713487Y-113092573D01*
X162377564Y-112868116D01*
X162091884Y-112582436D01*
X161867427Y-112246513D01*
X161859755Y-112227991D01*
X161712818Y-111873254D01*
X161634000Y-111477007D01*
X161634000Y-111072993D01*
X161712818Y-110676746D01*
X161867426Y-110303489D01*
X161878794Y-110286476D01*
X162091884Y-109967564D01*
X162377564Y-109681884D01*
X162713487Y-109457427D01*
X162713489Y-109457426D01*
X163086746Y-109302818D01*
X163482993Y-109224000D01*
X163887007Y-109224000D01*
X164283254Y-109302818D01*
X164283254Y-109302818D01*
G37*
G36*
X118553591Y-111936085D02*
G01*
X118587569Y-111946393D01*
X118618890Y-111963134D01*
X118646339Y-111985661D01*
X118668866Y-112013110D01*
X118685607Y-112044431D01*
X118695915Y-112078409D01*
X118700000Y-112119890D01*
X118700000Y-112796110D01*
X118695915Y-112837591D01*
X118685607Y-112871569D01*
X118668866Y-112902890D01*
X118646339Y-112930339D01*
X118618890Y-112952866D01*
X118587569Y-112969607D01*
X118553591Y-112979915D01*
X118512110Y-112984000D01*
X117910890Y-112984000D01*
X117869409Y-112979915D01*
X117835431Y-112969607D01*
X117804110Y-112952866D01*
X117776661Y-112930339D01*
X117754134Y-112902890D01*
X117737393Y-112871569D01*
X117727085Y-112837591D01*
X117723000Y-112796110D01*
X117723000Y-112119890D01*
X117727085Y-112078409D01*
X117737393Y-112044431D01*
X117754134Y-112013110D01*
X117776661Y-111985661D01*
X117804110Y-111963134D01*
X117835431Y-111946393D01*
X117869409Y-111936085D01*
X117910890Y-111932000D01*
X118512110Y-111932000D01*
X118553591Y-111936085D01*
X118553591Y-111936085D01*
G37*
G36*
X116978591Y-111936085D02*
G01*
X117012569Y-111946393D01*
X117043890Y-111963134D01*
X117071339Y-111985661D01*
X117093866Y-112013110D01*
X117110607Y-112044431D01*
X117120915Y-112078409D01*
X117125000Y-112119890D01*
X117125000Y-112796110D01*
X117120915Y-112837591D01*
X117110607Y-112871569D01*
X117093866Y-112902890D01*
X117071339Y-112930339D01*
X117043890Y-112952866D01*
X117012569Y-112969607D01*
X116978591Y-112979915D01*
X116937110Y-112984000D01*
X116335890Y-112984000D01*
X116294409Y-112979915D01*
X116260431Y-112969607D01*
X116229110Y-112952866D01*
X116201661Y-112930339D01*
X116179134Y-112902890D01*
X116162393Y-112871569D01*
X116152085Y-112837591D01*
X116148000Y-112796110D01*
X116148000Y-112119890D01*
X116152085Y-112078409D01*
X116162393Y-112044431D01*
X116179134Y-112013110D01*
X116201661Y-111985661D01*
X116229110Y-111963134D01*
X116260431Y-111946393D01*
X116294409Y-111936085D01*
X116335890Y-111932000D01*
X116937110Y-111932000D01*
X116978591Y-111936085D01*
X116978591Y-111936085D01*
G37*
G36*
X111232928Y-112160764D02*
G01*
X111254009Y-112167160D01*
X111273445Y-112177548D01*
X111290476Y-112191524D01*
X111304452Y-112208555D01*
X111314840Y-112227991D01*
X111321236Y-112249072D01*
X111324000Y-112277140D01*
X111324000Y-112740860D01*
X111321236Y-112768928D01*
X111314840Y-112790009D01*
X111304452Y-112809445D01*
X111290476Y-112826476D01*
X111273445Y-112840452D01*
X111254009Y-112850840D01*
X111232928Y-112857236D01*
X111204860Y-112860000D01*
X109391140Y-112860000D01*
X109363072Y-112857236D01*
X109341991Y-112850840D01*
X109322555Y-112840452D01*
X109305524Y-112826476D01*
X109291548Y-112809445D01*
X109281160Y-112790009D01*
X109274764Y-112768928D01*
X109272000Y-112740860D01*
X109272000Y-112277140D01*
X109274764Y-112249072D01*
X109281160Y-112227991D01*
X109291548Y-112208555D01*
X109305524Y-112191524D01*
X109322555Y-112177548D01*
X109341991Y-112167160D01*
X109363072Y-112160764D01*
X109391140Y-112158000D01*
X111204860Y-112158000D01*
X111232928Y-112160764D01*
X111232928Y-112160764D01*
G37*
G36*
X106282928Y-112160764D02*
G01*
X106304009Y-112167160D01*
X106323445Y-112177548D01*
X106340476Y-112191524D01*
X106354452Y-112208555D01*
X106364840Y-112227991D01*
X106371236Y-112249072D01*
X106374000Y-112277140D01*
X106374000Y-112740860D01*
X106371236Y-112768928D01*
X106364840Y-112790009D01*
X106354452Y-112809445D01*
X106340476Y-112826476D01*
X106323445Y-112840452D01*
X106304009Y-112850840D01*
X106282928Y-112857236D01*
X106254860Y-112860000D01*
X104441140Y-112860000D01*
X104413072Y-112857236D01*
X104391991Y-112850840D01*
X104372555Y-112840452D01*
X104355524Y-112826476D01*
X104341548Y-112809445D01*
X104331160Y-112790009D01*
X104324764Y-112768928D01*
X104322000Y-112740860D01*
X104322000Y-112277140D01*
X104324764Y-112249072D01*
X104331160Y-112227991D01*
X104341548Y-112208555D01*
X104355524Y-112191524D01*
X104372555Y-112177548D01*
X104391991Y-112167160D01*
X104413072Y-112160764D01*
X104441140Y-112158000D01*
X106254860Y-112158000D01*
X106282928Y-112160764D01*
X106282928Y-112160764D01*
G37*
G36*
X168245442Y-109951518D02*
G01*
X168311627Y-109958037D01*
X168481466Y-110009557D01*
X168637991Y-110093222D01*
X168673729Y-110122552D01*
X168775186Y-110205814D01*
X168852852Y-110300452D01*
X168887778Y-110343009D01*
X168971443Y-110499534D01*
X169022963Y-110669373D01*
X169040359Y-110846000D01*
X169022963Y-111022627D01*
X168971443Y-111192466D01*
X168887778Y-111348991D01*
X168858448Y-111384729D01*
X168775186Y-111486186D01*
X168673729Y-111569448D01*
X168637991Y-111598778D01*
X168481466Y-111682443D01*
X168311627Y-111733963D01*
X168245442Y-111740482D01*
X168179260Y-111747000D01*
X168090740Y-111747000D01*
X168024558Y-111740482D01*
X167958373Y-111733963D01*
X167788534Y-111682443D01*
X167632009Y-111598778D01*
X167596271Y-111569448D01*
X167494814Y-111486186D01*
X167411552Y-111384729D01*
X167382222Y-111348991D01*
X167298557Y-111192466D01*
X167247037Y-111022627D01*
X167229641Y-110846000D01*
X167247037Y-110669373D01*
X167298557Y-110499534D01*
X167382222Y-110343009D01*
X167417148Y-110300452D01*
X167494814Y-110205814D01*
X167596271Y-110122552D01*
X167632009Y-110093222D01*
X167788534Y-110009557D01*
X167958373Y-109958037D01*
X168024558Y-109951518D01*
X168090740Y-109945000D01*
X168179260Y-109945000D01*
X168245442Y-109951518D01*
X168245442Y-109951518D01*
G37*
G36*
X171576000Y-111747000D02*
G01*
X169774000Y-111747000D01*
X169774000Y-109945000D01*
X171576000Y-109945000D01*
X171576000Y-111747000D01*
X171576000Y-111747000D01*
G37*
G36*
X111232928Y-110890764D02*
G01*
X111254009Y-110897160D01*
X111273445Y-110907548D01*
X111290476Y-110921524D01*
X111304452Y-110938555D01*
X111314840Y-110957991D01*
X111321236Y-110979072D01*
X111324000Y-111007140D01*
X111324000Y-111470860D01*
X111321236Y-111498928D01*
X111314840Y-111520009D01*
X111304452Y-111539445D01*
X111290476Y-111556476D01*
X111273445Y-111570452D01*
X111254009Y-111580840D01*
X111232928Y-111587236D01*
X111204860Y-111590000D01*
X109391140Y-111590000D01*
X109363072Y-111587236D01*
X109341991Y-111580840D01*
X109322555Y-111570452D01*
X109305524Y-111556476D01*
X109291548Y-111539445D01*
X109281160Y-111520009D01*
X109274764Y-111498928D01*
X109272000Y-111470860D01*
X109272000Y-111007140D01*
X109274764Y-110979072D01*
X109281160Y-110957991D01*
X109291548Y-110938555D01*
X109305524Y-110921524D01*
X109322555Y-110907548D01*
X109341991Y-110897160D01*
X109363072Y-110890764D01*
X109391140Y-110888000D01*
X111204860Y-110888000D01*
X111232928Y-110890764D01*
X111232928Y-110890764D01*
G37*
G36*
X106282928Y-110890764D02*
G01*
X106304009Y-110897160D01*
X106323445Y-110907548D01*
X106340476Y-110921524D01*
X106354452Y-110938555D01*
X106364840Y-110957991D01*
X106371236Y-110979072D01*
X106374000Y-111007140D01*
X106374000Y-111470860D01*
X106371236Y-111498928D01*
X106364840Y-111520009D01*
X106354452Y-111539445D01*
X106340476Y-111556476D01*
X106323445Y-111570452D01*
X106304009Y-111580840D01*
X106282928Y-111587236D01*
X106254860Y-111590000D01*
X104441140Y-111590000D01*
X104413072Y-111587236D01*
X104391991Y-111580840D01*
X104372555Y-111570452D01*
X104355524Y-111556476D01*
X104341548Y-111539445D01*
X104331160Y-111520009D01*
X104324764Y-111498928D01*
X104322000Y-111470860D01*
X104322000Y-111007140D01*
X104324764Y-110979072D01*
X104331160Y-110957991D01*
X104341548Y-110938555D01*
X104355524Y-110921524D01*
X104372555Y-110907548D01*
X104391991Y-110897160D01*
X104413072Y-110890764D01*
X104441140Y-110888000D01*
X106254860Y-110888000D01*
X106282928Y-110890764D01*
X106282928Y-110890764D01*
G37*
G36*
X106282928Y-109620764D02*
G01*
X106304009Y-109627160D01*
X106323445Y-109637548D01*
X106340476Y-109651524D01*
X106354452Y-109668555D01*
X106364840Y-109687991D01*
X106371236Y-109709072D01*
X106374000Y-109737140D01*
X106374000Y-110200860D01*
X106371236Y-110228928D01*
X106364840Y-110250009D01*
X106354452Y-110269445D01*
X106340476Y-110286476D01*
X106323445Y-110300452D01*
X106304009Y-110310840D01*
X106282928Y-110317236D01*
X106254860Y-110320000D01*
X104441140Y-110320000D01*
X104413072Y-110317236D01*
X104391991Y-110310840D01*
X104372555Y-110300452D01*
X104355524Y-110286476D01*
X104341548Y-110269445D01*
X104331160Y-110250009D01*
X104324764Y-110228928D01*
X104322000Y-110200860D01*
X104322000Y-109737140D01*
X104324764Y-109709072D01*
X104331160Y-109687991D01*
X104341548Y-109668555D01*
X104355524Y-109651524D01*
X104372555Y-109637548D01*
X104391991Y-109627160D01*
X104413072Y-109620764D01*
X104441140Y-109618000D01*
X106254860Y-109618000D01*
X106282928Y-109620764D01*
X106282928Y-109620764D01*
G37*
G36*
X111232928Y-109620764D02*
G01*
X111254009Y-109627160D01*
X111273445Y-109637548D01*
X111290476Y-109651524D01*
X111304452Y-109668555D01*
X111314840Y-109687991D01*
X111321236Y-109709072D01*
X111324000Y-109737140D01*
X111324000Y-110200860D01*
X111321236Y-110228928D01*
X111314840Y-110250009D01*
X111304452Y-110269445D01*
X111290476Y-110286476D01*
X111273445Y-110300452D01*
X111254009Y-110310840D01*
X111232928Y-110317236D01*
X111204860Y-110320000D01*
X109391140Y-110320000D01*
X109363072Y-110317236D01*
X109341991Y-110310840D01*
X109322555Y-110300452D01*
X109305524Y-110286476D01*
X109291548Y-110269445D01*
X109281160Y-110250009D01*
X109274764Y-110228928D01*
X109272000Y-110200860D01*
X109272000Y-109737140D01*
X109274764Y-109709072D01*
X109281160Y-109687991D01*
X109291548Y-109668555D01*
X109305524Y-109651524D01*
X109322555Y-109637548D01*
X109341991Y-109627160D01*
X109363072Y-109620764D01*
X109391140Y-109618000D01*
X111204860Y-109618000D01*
X111232928Y-109620764D01*
X111232928Y-109620764D01*
G37*
G36*
X115867997Y-107700051D02*
G01*
X115901652Y-107710261D01*
X115932665Y-107726838D01*
X115959851Y-107749149D01*
X115982162Y-107776335D01*
X115998739Y-107807348D01*
X116008949Y-107841003D01*
X116013000Y-107882138D01*
X116013000Y-109211862D01*
X116008949Y-109252997D01*
X115998739Y-109286652D01*
X115982162Y-109317665D01*
X115959851Y-109344851D01*
X115932665Y-109367162D01*
X115901652Y-109383739D01*
X115867997Y-109393949D01*
X115826862Y-109398000D01*
X113097138Y-109398000D01*
X113056003Y-109393949D01*
X113022348Y-109383739D01*
X112991335Y-109367162D01*
X112964149Y-109344851D01*
X112941838Y-109317665D01*
X112925261Y-109286652D01*
X112915051Y-109252997D01*
X112911000Y-109211862D01*
X112911000Y-107882138D01*
X112915051Y-107841003D01*
X112925261Y-107807348D01*
X112941838Y-107776335D01*
X112964149Y-107749149D01*
X112991335Y-107726838D01*
X113022348Y-107710261D01*
X113056003Y-107700051D01*
X113097138Y-107696000D01*
X115826862Y-107696000D01*
X115867997Y-107700051D01*
X115867997Y-107700051D01*
G37*
G36*
X120267997Y-107700051D02*
G01*
X120301652Y-107710261D01*
X120332665Y-107726838D01*
X120359851Y-107749149D01*
X120382162Y-107776335D01*
X120398739Y-107807348D01*
X120408949Y-107841003D01*
X120413000Y-107882138D01*
X120413000Y-109211862D01*
X120408949Y-109252997D01*
X120398739Y-109286652D01*
X120382162Y-109317665D01*
X120359851Y-109344851D01*
X120332665Y-109367162D01*
X120301652Y-109383739D01*
X120267997Y-109393949D01*
X120226862Y-109398000D01*
X117497138Y-109398000D01*
X117456003Y-109393949D01*
X117422348Y-109383739D01*
X117391335Y-109367162D01*
X117364149Y-109344851D01*
X117341838Y-109317665D01*
X117325261Y-109286652D01*
X117315051Y-109252997D01*
X117311000Y-109211862D01*
X117311000Y-107882138D01*
X117315051Y-107841003D01*
X117325261Y-107807348D01*
X117341838Y-107776335D01*
X117364149Y-107749149D01*
X117391335Y-107726838D01*
X117422348Y-107710261D01*
X117456003Y-107700051D01*
X117497138Y-107696000D01*
X120226862Y-107696000D01*
X120267997Y-107700051D01*
X120267997Y-107700051D01*
G37*
G36*
X170785443Y-107411519D02*
G01*
X170851627Y-107418037D01*
X171021466Y-107469557D01*
X171177991Y-107553222D01*
X171213729Y-107582552D01*
X171315186Y-107665814D01*
X171365266Y-107726838D01*
X171427778Y-107803009D01*
X171511443Y-107959534D01*
X171562963Y-108129373D01*
X171580359Y-108306000D01*
X171562963Y-108482627D01*
X171511443Y-108652466D01*
X171427778Y-108808991D01*
X171398448Y-108844729D01*
X171315186Y-108946186D01*
X171213729Y-109029448D01*
X171177991Y-109058778D01*
X171177989Y-109058779D01*
X171040886Y-109132063D01*
X171021466Y-109142443D01*
X170851627Y-109193963D01*
X170785442Y-109200482D01*
X170719260Y-109207000D01*
X170630740Y-109207000D01*
X170564558Y-109200482D01*
X170498373Y-109193963D01*
X170328534Y-109142443D01*
X170309115Y-109132063D01*
X170172011Y-109058779D01*
X170172009Y-109058778D01*
X170136271Y-109029448D01*
X170034814Y-108946186D01*
X169951552Y-108844729D01*
X169922222Y-108808991D01*
X169838557Y-108652466D01*
X169787037Y-108482627D01*
X169769641Y-108306000D01*
X169787037Y-108129373D01*
X169838557Y-107959534D01*
X169922222Y-107803009D01*
X169984734Y-107726838D01*
X170034814Y-107665814D01*
X170136271Y-107582552D01*
X170172009Y-107553222D01*
X170328534Y-107469557D01*
X170498373Y-107418037D01*
X170564557Y-107411519D01*
X170630740Y-107405000D01*
X170719260Y-107405000D01*
X170785443Y-107411519D01*
X170785443Y-107411519D01*
G37*
G36*
X168245443Y-107411519D02*
G01*
X168311627Y-107418037D01*
X168481466Y-107469557D01*
X168637991Y-107553222D01*
X168673729Y-107582552D01*
X168775186Y-107665814D01*
X168825266Y-107726838D01*
X168887778Y-107803009D01*
X168971443Y-107959534D01*
X169022963Y-108129373D01*
X169040359Y-108306000D01*
X169022963Y-108482627D01*
X168971443Y-108652466D01*
X168887778Y-108808991D01*
X168858448Y-108844729D01*
X168775186Y-108946186D01*
X168673729Y-109029448D01*
X168637991Y-109058778D01*
X168637989Y-109058779D01*
X168500886Y-109132063D01*
X168481466Y-109142443D01*
X168311627Y-109193963D01*
X168245442Y-109200482D01*
X168179260Y-109207000D01*
X168090740Y-109207000D01*
X168024558Y-109200482D01*
X167958373Y-109193963D01*
X167788534Y-109142443D01*
X167769115Y-109132063D01*
X167632011Y-109058779D01*
X167632009Y-109058778D01*
X167596271Y-109029448D01*
X167494814Y-108946186D01*
X167411552Y-108844729D01*
X167382222Y-108808991D01*
X167298557Y-108652466D01*
X167247037Y-108482627D01*
X167229641Y-108306000D01*
X167247037Y-108129373D01*
X167298557Y-107959534D01*
X167382222Y-107803009D01*
X167444734Y-107726838D01*
X167494814Y-107665814D01*
X167596271Y-107582552D01*
X167632009Y-107553222D01*
X167788534Y-107469557D01*
X167958373Y-107418037D01*
X168024557Y-107411519D01*
X168090740Y-107405000D01*
X168179260Y-107405000D01*
X168245443Y-107411519D01*
X168245443Y-107411519D01*
G37*
G36*
X106282928Y-108350764D02*
G01*
X106304009Y-108357160D01*
X106323445Y-108367548D01*
X106340476Y-108381524D01*
X106354452Y-108398555D01*
X106364840Y-108417991D01*
X106371236Y-108439072D01*
X106374000Y-108467140D01*
X106374000Y-108930860D01*
X106371236Y-108958928D01*
X106364840Y-108980009D01*
X106354452Y-108999445D01*
X106340476Y-109016476D01*
X106323445Y-109030452D01*
X106304009Y-109040840D01*
X106282928Y-109047236D01*
X106254860Y-109050000D01*
X104441140Y-109050000D01*
X104413072Y-109047236D01*
X104391991Y-109040840D01*
X104372555Y-109030452D01*
X104355524Y-109016476D01*
X104341548Y-108999445D01*
X104331160Y-108980009D01*
X104324764Y-108958928D01*
X104322000Y-108930860D01*
X104322000Y-108467140D01*
X104324764Y-108439072D01*
X104331160Y-108417991D01*
X104341548Y-108398555D01*
X104355524Y-108381524D01*
X104372555Y-108367548D01*
X104391991Y-108357160D01*
X104413072Y-108350764D01*
X104441140Y-108348000D01*
X106254860Y-108348000D01*
X106282928Y-108350764D01*
X106282928Y-108350764D01*
G37*
G36*
X111232928Y-108350764D02*
G01*
X111254009Y-108357160D01*
X111273445Y-108367548D01*
X111290476Y-108381524D01*
X111304452Y-108398555D01*
X111314840Y-108417991D01*
X111321236Y-108439072D01*
X111324000Y-108467140D01*
X111324000Y-108930860D01*
X111321236Y-108958928D01*
X111314840Y-108980009D01*
X111304452Y-108999445D01*
X111290476Y-109016476D01*
X111273445Y-109030452D01*
X111254009Y-109040840D01*
X111232928Y-109047236D01*
X111204860Y-109050000D01*
X109391140Y-109050000D01*
X109363072Y-109047236D01*
X109341991Y-109040840D01*
X109322555Y-109030452D01*
X109305524Y-109016476D01*
X109291548Y-108999445D01*
X109281160Y-108980009D01*
X109274764Y-108958928D01*
X109272000Y-108930860D01*
X109272000Y-108467140D01*
X109274764Y-108439072D01*
X109281160Y-108417991D01*
X109291548Y-108398555D01*
X109305524Y-108381524D01*
X109322555Y-108367548D01*
X109341991Y-108357160D01*
X109363072Y-108350764D01*
X109391140Y-108348000D01*
X111204860Y-108348000D01*
X111232928Y-108350764D01*
X111232928Y-108350764D01*
G37*
G36*
X170785443Y-104871519D02*
G01*
X170851627Y-104878037D01*
X171021466Y-104929557D01*
X171177991Y-105013222D01*
X171213729Y-105042552D01*
X171315186Y-105125814D01*
X171398448Y-105227271D01*
X171427778Y-105263009D01*
X171511443Y-105419534D01*
X171562963Y-105589373D01*
X171580359Y-105766000D01*
X171562963Y-105942627D01*
X171511443Y-106112466D01*
X171427778Y-106268991D01*
X171398448Y-106304729D01*
X171315186Y-106406186D01*
X171213729Y-106489448D01*
X171177991Y-106518778D01*
X171021466Y-106602443D01*
X170851627Y-106653963D01*
X170785442Y-106660482D01*
X170719260Y-106667000D01*
X170630740Y-106667000D01*
X170564558Y-106660482D01*
X170498373Y-106653963D01*
X170328534Y-106602443D01*
X170172009Y-106518778D01*
X170136271Y-106489448D01*
X170034814Y-106406186D01*
X169951552Y-106304729D01*
X169922222Y-106268991D01*
X169838557Y-106112466D01*
X169787037Y-105942627D01*
X169769641Y-105766000D01*
X169787037Y-105589373D01*
X169838557Y-105419534D01*
X169922222Y-105263009D01*
X169951552Y-105227271D01*
X170034814Y-105125814D01*
X170136271Y-105042552D01*
X170172009Y-105013222D01*
X170328534Y-104929557D01*
X170498373Y-104878037D01*
X170564557Y-104871519D01*
X170630740Y-104865000D01*
X170719260Y-104865000D01*
X170785443Y-104871519D01*
X170785443Y-104871519D01*
G37*
G36*
X168245443Y-104871519D02*
G01*
X168311627Y-104878037D01*
X168481466Y-104929557D01*
X168637991Y-105013222D01*
X168673729Y-105042552D01*
X168775186Y-105125814D01*
X168858448Y-105227271D01*
X168887778Y-105263009D01*
X168971443Y-105419534D01*
X169022963Y-105589373D01*
X169040359Y-105766000D01*
X169022963Y-105942627D01*
X168971443Y-106112466D01*
X168887778Y-106268991D01*
X168858448Y-106304729D01*
X168775186Y-106406186D01*
X168673729Y-106489448D01*
X168637991Y-106518778D01*
X168481466Y-106602443D01*
X168311627Y-106653963D01*
X168245442Y-106660482D01*
X168179260Y-106667000D01*
X168090740Y-106667000D01*
X168024558Y-106660482D01*
X167958373Y-106653963D01*
X167788534Y-106602443D01*
X167632009Y-106518778D01*
X167596271Y-106489448D01*
X167494814Y-106406186D01*
X167411552Y-106304729D01*
X167382222Y-106268991D01*
X167298557Y-106112466D01*
X167247037Y-105942627D01*
X167229641Y-105766000D01*
X167247037Y-105589373D01*
X167298557Y-105419534D01*
X167382222Y-105263009D01*
X167411552Y-105227271D01*
X167494814Y-105125814D01*
X167596271Y-105042552D01*
X167632009Y-105013222D01*
X167788534Y-104929557D01*
X167958373Y-104878037D01*
X168024557Y-104871519D01*
X168090740Y-104865000D01*
X168179260Y-104865000D01*
X168245443Y-104871519D01*
X168245443Y-104871519D01*
G37*
G36*
X107028997Y-103941051D02*
G01*
X107062652Y-103951261D01*
X107093665Y-103967838D01*
X107120851Y-103990149D01*
X107143162Y-104017335D01*
X107159739Y-104048348D01*
X107169949Y-104082003D01*
X107174000Y-104123138D01*
X107174000Y-105452862D01*
X107169949Y-105493997D01*
X107159739Y-105527652D01*
X107143162Y-105558665D01*
X107120851Y-105585851D01*
X107093665Y-105608162D01*
X107062652Y-105624739D01*
X107028997Y-105634949D01*
X106987862Y-105639000D01*
X104258138Y-105639000D01*
X104217003Y-105634949D01*
X104183348Y-105624739D01*
X104152335Y-105608162D01*
X104125149Y-105585851D01*
X104102838Y-105558665D01*
X104086261Y-105527652D01*
X104076051Y-105493997D01*
X104072000Y-105452862D01*
X104072000Y-104123138D01*
X104076051Y-104082003D01*
X104086261Y-104048348D01*
X104102838Y-104017335D01*
X104125149Y-103990149D01*
X104152335Y-103967838D01*
X104183348Y-103951261D01*
X104217003Y-103941051D01*
X104258138Y-103937000D01*
X106987862Y-103937000D01*
X107028997Y-103941051D01*
X107028997Y-103941051D01*
G37*
G36*
X111428997Y-103941051D02*
G01*
X111462652Y-103951261D01*
X111493665Y-103967838D01*
X111520851Y-103990149D01*
X111543162Y-104017335D01*
X111559739Y-104048348D01*
X111569949Y-104082003D01*
X111574000Y-104123138D01*
X111574000Y-105452862D01*
X111569949Y-105493997D01*
X111559739Y-105527652D01*
X111543162Y-105558665D01*
X111520851Y-105585851D01*
X111493665Y-105608162D01*
X111462652Y-105624739D01*
X111428997Y-105634949D01*
X111387862Y-105639000D01*
X108658138Y-105639000D01*
X108617003Y-105634949D01*
X108583348Y-105624739D01*
X108552335Y-105608162D01*
X108525149Y-105585851D01*
X108502838Y-105558665D01*
X108486261Y-105527652D01*
X108476051Y-105493997D01*
X108472000Y-105452862D01*
X108472000Y-104123138D01*
X108476051Y-104082003D01*
X108486261Y-104048348D01*
X108502838Y-104017335D01*
X108525149Y-103990149D01*
X108552335Y-103967838D01*
X108583348Y-103951261D01*
X108617003Y-103941051D01*
X108658138Y-103937000D01*
X111387862Y-103937000D01*
X111428997Y-103941051D01*
X111428997Y-103941051D01*
G37*
G36*
X170785442Y-102331518D02*
G01*
X170851627Y-102338037D01*
X171021466Y-102389557D01*
X171177991Y-102473222D01*
X171213729Y-102502552D01*
X171315186Y-102585814D01*
X171398448Y-102687271D01*
X171427778Y-102723009D01*
X171511443Y-102879534D01*
X171562963Y-103049373D01*
X171580359Y-103226000D01*
X171562963Y-103402627D01*
X171511443Y-103572466D01*
X171427778Y-103728991D01*
X171398448Y-103764729D01*
X171315186Y-103866186D01*
X171223961Y-103941051D01*
X171177991Y-103978778D01*
X171021466Y-104062443D01*
X170851627Y-104113963D01*
X170785442Y-104120482D01*
X170719260Y-104127000D01*
X170630740Y-104127000D01*
X170564557Y-104120481D01*
X170498373Y-104113963D01*
X170328534Y-104062443D01*
X170172009Y-103978778D01*
X170126039Y-103941051D01*
X170034814Y-103866186D01*
X169951552Y-103764729D01*
X169922222Y-103728991D01*
X169838557Y-103572466D01*
X169787037Y-103402627D01*
X169769641Y-103226000D01*
X169787037Y-103049373D01*
X169838557Y-102879534D01*
X169922222Y-102723009D01*
X169951552Y-102687271D01*
X170034814Y-102585814D01*
X170136271Y-102502552D01*
X170172009Y-102473222D01*
X170328534Y-102389557D01*
X170498373Y-102338037D01*
X170564558Y-102331518D01*
X170630740Y-102325000D01*
X170719260Y-102325000D01*
X170785442Y-102331518D01*
X170785442Y-102331518D01*
G37*
G36*
X168245442Y-102331518D02*
G01*
X168311627Y-102338037D01*
X168481466Y-102389557D01*
X168637991Y-102473222D01*
X168673729Y-102502552D01*
X168775186Y-102585814D01*
X168858448Y-102687271D01*
X168887778Y-102723009D01*
X168971443Y-102879534D01*
X169022963Y-103049373D01*
X169040359Y-103226000D01*
X169022963Y-103402627D01*
X168971443Y-103572466D01*
X168887778Y-103728991D01*
X168858448Y-103764729D01*
X168775186Y-103866186D01*
X168683961Y-103941051D01*
X168637991Y-103978778D01*
X168481466Y-104062443D01*
X168311627Y-104113963D01*
X168245442Y-104120482D01*
X168179260Y-104127000D01*
X168090740Y-104127000D01*
X168024557Y-104120481D01*
X167958373Y-104113963D01*
X167788534Y-104062443D01*
X167632009Y-103978778D01*
X167586039Y-103941051D01*
X167494814Y-103866186D01*
X167411552Y-103764729D01*
X167382222Y-103728991D01*
X167298557Y-103572466D01*
X167247037Y-103402627D01*
X167229641Y-103226000D01*
X167247037Y-103049373D01*
X167298557Y-102879534D01*
X167382222Y-102723009D01*
X167411552Y-102687271D01*
X167494814Y-102585814D01*
X167596271Y-102502552D01*
X167632009Y-102473222D01*
X167788534Y-102389557D01*
X167958373Y-102338037D01*
X168024558Y-102331518D01*
X168090740Y-102325000D01*
X168179260Y-102325000D01*
X168245442Y-102331518D01*
X168245442Y-102331518D01*
G37*
G36*
X128710591Y-102323085D02*
G01*
X128744569Y-102333393D01*
X128775890Y-102350134D01*
X128803339Y-102372661D01*
X128825866Y-102400110D01*
X128842607Y-102431431D01*
X128852915Y-102465409D01*
X128857000Y-102506890D01*
X128857000Y-103183110D01*
X128852915Y-103224591D01*
X128842607Y-103258569D01*
X128825866Y-103289890D01*
X128803339Y-103317339D01*
X128775890Y-103339866D01*
X128744569Y-103356607D01*
X128710591Y-103366915D01*
X128669110Y-103371000D01*
X128067890Y-103371000D01*
X128026409Y-103366915D01*
X127992431Y-103356607D01*
X127961110Y-103339866D01*
X127933661Y-103317339D01*
X127911134Y-103289890D01*
X127894393Y-103258569D01*
X127884085Y-103224591D01*
X127880000Y-103183110D01*
X127880000Y-102506890D01*
X127884085Y-102465409D01*
X127894393Y-102431431D01*
X127911134Y-102400110D01*
X127933661Y-102372661D01*
X127961110Y-102350134D01*
X127992431Y-102333393D01*
X128026409Y-102323085D01*
X128067890Y-102319000D01*
X128669110Y-102319000D01*
X128710591Y-102323085D01*
X128710591Y-102323085D01*
G37*
G36*
X130285591Y-102323085D02*
G01*
X130319569Y-102333393D01*
X130350890Y-102350134D01*
X130378339Y-102372661D01*
X130400866Y-102400110D01*
X130417607Y-102431431D01*
X130427915Y-102465409D01*
X130432000Y-102506890D01*
X130432000Y-103183110D01*
X130427915Y-103224591D01*
X130417607Y-103258569D01*
X130400866Y-103289890D01*
X130378339Y-103317339D01*
X130350890Y-103339866D01*
X130319569Y-103356607D01*
X130285591Y-103366915D01*
X130244110Y-103371000D01*
X129642890Y-103371000D01*
X129601409Y-103366915D01*
X129567431Y-103356607D01*
X129536110Y-103339866D01*
X129508661Y-103317339D01*
X129486134Y-103289890D01*
X129469393Y-103258569D01*
X129459085Y-103224591D01*
X129455000Y-103183110D01*
X129455000Y-102506890D01*
X129459085Y-102465409D01*
X129469393Y-102431431D01*
X129486134Y-102400110D01*
X129508661Y-102372661D01*
X129536110Y-102350134D01*
X129567431Y-102333393D01*
X129601409Y-102323085D01*
X129642890Y-102319000D01*
X130244110Y-102319000D01*
X130285591Y-102323085D01*
X130285591Y-102323085D01*
G37*
G36*
X122508591Y-102323085D02*
G01*
X122542569Y-102333393D01*
X122573890Y-102350134D01*
X122601339Y-102372661D01*
X122623866Y-102400110D01*
X122640607Y-102431431D01*
X122650915Y-102465409D01*
X122655000Y-102506890D01*
X122655000Y-103183110D01*
X122650915Y-103224591D01*
X122640607Y-103258569D01*
X122623866Y-103289890D01*
X122601339Y-103317339D01*
X122573890Y-103339866D01*
X122542569Y-103356607D01*
X122508591Y-103366915D01*
X122467110Y-103371000D01*
X121865890Y-103371000D01*
X121824409Y-103366915D01*
X121790431Y-103356607D01*
X121759110Y-103339866D01*
X121731661Y-103317339D01*
X121709134Y-103289890D01*
X121692393Y-103258569D01*
X121682085Y-103224591D01*
X121678000Y-103183110D01*
X121678000Y-102506890D01*
X121682085Y-102465409D01*
X121692393Y-102431431D01*
X121709134Y-102400110D01*
X121731661Y-102372661D01*
X121759110Y-102350134D01*
X121790431Y-102333393D01*
X121824409Y-102323085D01*
X121865890Y-102319000D01*
X122467110Y-102319000D01*
X122508591Y-102323085D01*
X122508591Y-102323085D01*
G37*
G36*
X132599591Y-102323085D02*
G01*
X132633569Y-102333393D01*
X132664890Y-102350134D01*
X132692339Y-102372661D01*
X132714866Y-102400110D01*
X132731607Y-102431431D01*
X132741915Y-102465409D01*
X132746000Y-102506890D01*
X132746000Y-103183110D01*
X132741915Y-103224591D01*
X132731607Y-103258569D01*
X132714866Y-103289890D01*
X132692339Y-103317339D01*
X132664890Y-103339866D01*
X132633569Y-103356607D01*
X132599591Y-103366915D01*
X132558110Y-103371000D01*
X131956890Y-103371000D01*
X131915409Y-103366915D01*
X131881431Y-103356607D01*
X131850110Y-103339866D01*
X131822661Y-103317339D01*
X131800134Y-103289890D01*
X131783393Y-103258569D01*
X131773085Y-103224591D01*
X131769000Y-103183110D01*
X131769000Y-102506890D01*
X131773085Y-102465409D01*
X131783393Y-102431431D01*
X131800134Y-102400110D01*
X131822661Y-102372661D01*
X131850110Y-102350134D01*
X131881431Y-102333393D01*
X131915409Y-102323085D01*
X131956890Y-102319000D01*
X132558110Y-102319000D01*
X132599591Y-102323085D01*
X132599591Y-102323085D01*
G37*
G36*
X117044591Y-102323085D02*
G01*
X117078569Y-102333393D01*
X117109890Y-102350134D01*
X117137339Y-102372661D01*
X117159866Y-102400110D01*
X117176607Y-102431431D01*
X117186915Y-102465409D01*
X117191000Y-102506890D01*
X117191000Y-103183110D01*
X117186915Y-103224591D01*
X117176607Y-103258569D01*
X117159866Y-103289890D01*
X117137339Y-103317339D01*
X117109890Y-103339866D01*
X117078569Y-103356607D01*
X117044591Y-103366915D01*
X117003110Y-103371000D01*
X116401890Y-103371000D01*
X116360409Y-103366915D01*
X116326431Y-103356607D01*
X116295110Y-103339866D01*
X116267661Y-103317339D01*
X116245134Y-103289890D01*
X116228393Y-103258569D01*
X116218085Y-103224591D01*
X116214000Y-103183110D01*
X116214000Y-102506890D01*
X116218085Y-102465409D01*
X116228393Y-102431431D01*
X116245134Y-102400110D01*
X116267661Y-102372661D01*
X116295110Y-102350134D01*
X116326431Y-102333393D01*
X116360409Y-102323085D01*
X116401890Y-102319000D01*
X117003110Y-102319000D01*
X117044591Y-102323085D01*
X117044591Y-102323085D01*
G37*
G36*
X126397591Y-102323085D02*
G01*
X126431569Y-102333393D01*
X126462890Y-102350134D01*
X126490339Y-102372661D01*
X126512866Y-102400110D01*
X126529607Y-102431431D01*
X126539915Y-102465409D01*
X126544000Y-102506890D01*
X126544000Y-103183110D01*
X126539915Y-103224591D01*
X126529607Y-103258569D01*
X126512866Y-103289890D01*
X126490339Y-103317339D01*
X126462890Y-103339866D01*
X126431569Y-103356607D01*
X126397591Y-103366915D01*
X126356110Y-103371000D01*
X125754890Y-103371000D01*
X125713409Y-103366915D01*
X125679431Y-103356607D01*
X125648110Y-103339866D01*
X125620661Y-103317339D01*
X125598134Y-103289890D01*
X125581393Y-103258569D01*
X125571085Y-103224591D01*
X125567000Y-103183110D01*
X125567000Y-102506890D01*
X125571085Y-102465409D01*
X125581393Y-102431431D01*
X125598134Y-102400110D01*
X125620661Y-102372661D01*
X125648110Y-102350134D01*
X125679431Y-102333393D01*
X125713409Y-102323085D01*
X125754890Y-102319000D01*
X126356110Y-102319000D01*
X126397591Y-102323085D01*
X126397591Y-102323085D01*
G37*
G36*
X120933591Y-102323085D02*
G01*
X120967569Y-102333393D01*
X120998890Y-102350134D01*
X121026339Y-102372661D01*
X121048866Y-102400110D01*
X121065607Y-102431431D01*
X121075915Y-102465409D01*
X121080000Y-102506890D01*
X121080000Y-103183110D01*
X121075915Y-103224591D01*
X121065607Y-103258569D01*
X121048866Y-103289890D01*
X121026339Y-103317339D01*
X120998890Y-103339866D01*
X120967569Y-103356607D01*
X120933591Y-103366915D01*
X120892110Y-103371000D01*
X120290890Y-103371000D01*
X120249409Y-103366915D01*
X120215431Y-103356607D01*
X120184110Y-103339866D01*
X120156661Y-103317339D01*
X120134134Y-103289890D01*
X120117393Y-103258569D01*
X120107085Y-103224591D01*
X120103000Y-103183110D01*
X120103000Y-102506890D01*
X120107085Y-102465409D01*
X120117393Y-102431431D01*
X120134134Y-102400110D01*
X120156661Y-102372661D01*
X120184110Y-102350134D01*
X120215431Y-102333393D01*
X120249409Y-102323085D01*
X120290890Y-102319000D01*
X120892110Y-102319000D01*
X120933591Y-102323085D01*
X120933591Y-102323085D01*
G37*
G36*
X134174591Y-102323085D02*
G01*
X134208569Y-102333393D01*
X134239890Y-102350134D01*
X134267339Y-102372661D01*
X134289866Y-102400110D01*
X134306607Y-102431431D01*
X134316915Y-102465409D01*
X134321000Y-102506890D01*
X134321000Y-103183110D01*
X134316915Y-103224591D01*
X134306607Y-103258569D01*
X134289866Y-103289890D01*
X134267339Y-103317339D01*
X134239890Y-103339866D01*
X134208569Y-103356607D01*
X134174591Y-103366915D01*
X134133110Y-103371000D01*
X133531890Y-103371000D01*
X133490409Y-103366915D01*
X133456431Y-103356607D01*
X133425110Y-103339866D01*
X133397661Y-103317339D01*
X133375134Y-103289890D01*
X133358393Y-103258569D01*
X133348085Y-103224591D01*
X133344000Y-103183110D01*
X133344000Y-102506890D01*
X133348085Y-102465409D01*
X133358393Y-102431431D01*
X133375134Y-102400110D01*
X133397661Y-102372661D01*
X133425110Y-102350134D01*
X133456431Y-102333393D01*
X133490409Y-102323085D01*
X133531890Y-102319000D01*
X134133110Y-102319000D01*
X134174591Y-102323085D01*
X134174591Y-102323085D01*
G37*
G36*
X113156591Y-102323085D02*
G01*
X113190569Y-102333393D01*
X113221890Y-102350134D01*
X113249339Y-102372661D01*
X113271866Y-102400110D01*
X113288607Y-102431431D01*
X113298915Y-102465409D01*
X113303000Y-102506890D01*
X113303000Y-103183110D01*
X113298915Y-103224591D01*
X113288607Y-103258569D01*
X113271866Y-103289890D01*
X113249339Y-103317339D01*
X113221890Y-103339866D01*
X113190569Y-103356607D01*
X113156591Y-103366915D01*
X113115110Y-103371000D01*
X112513890Y-103371000D01*
X112472409Y-103366915D01*
X112438431Y-103356607D01*
X112407110Y-103339866D01*
X112379661Y-103317339D01*
X112357134Y-103289890D01*
X112340393Y-103258569D01*
X112330085Y-103224591D01*
X112326000Y-103183110D01*
X112326000Y-102506890D01*
X112330085Y-102465409D01*
X112340393Y-102431431D01*
X112357134Y-102400110D01*
X112379661Y-102372661D01*
X112407110Y-102350134D01*
X112438431Y-102333393D01*
X112472409Y-102323085D01*
X112513890Y-102319000D01*
X113115110Y-102319000D01*
X113156591Y-102323085D01*
X113156591Y-102323085D01*
G37*
G36*
X114731591Y-102323085D02*
G01*
X114765569Y-102333393D01*
X114796890Y-102350134D01*
X114824339Y-102372661D01*
X114846866Y-102400110D01*
X114863607Y-102431431D01*
X114873915Y-102465409D01*
X114878000Y-102506890D01*
X114878000Y-103183110D01*
X114873915Y-103224591D01*
X114863607Y-103258569D01*
X114846866Y-103289890D01*
X114824339Y-103317339D01*
X114796890Y-103339866D01*
X114765569Y-103356607D01*
X114731591Y-103366915D01*
X114690110Y-103371000D01*
X114088890Y-103371000D01*
X114047409Y-103366915D01*
X114013431Y-103356607D01*
X113982110Y-103339866D01*
X113954661Y-103317339D01*
X113932134Y-103289890D01*
X113915393Y-103258569D01*
X113905085Y-103224591D01*
X113901000Y-103183110D01*
X113901000Y-102506890D01*
X113905085Y-102465409D01*
X113915393Y-102431431D01*
X113932134Y-102400110D01*
X113954661Y-102372661D01*
X113982110Y-102350134D01*
X114013431Y-102333393D01*
X114047409Y-102323085D01*
X114088890Y-102319000D01*
X114690110Y-102319000D01*
X114731591Y-102323085D01*
X114731591Y-102323085D01*
G37*
G36*
X118619591Y-102323085D02*
G01*
X118653569Y-102333393D01*
X118684890Y-102350134D01*
X118712339Y-102372661D01*
X118734866Y-102400110D01*
X118751607Y-102431431D01*
X118761915Y-102465409D01*
X118766000Y-102506890D01*
X118766000Y-103183110D01*
X118761915Y-103224591D01*
X118751607Y-103258569D01*
X118734866Y-103289890D01*
X118712339Y-103317339D01*
X118684890Y-103339866D01*
X118653569Y-103356607D01*
X118619591Y-103366915D01*
X118578110Y-103371000D01*
X117976890Y-103371000D01*
X117935409Y-103366915D01*
X117901431Y-103356607D01*
X117870110Y-103339866D01*
X117842661Y-103317339D01*
X117820134Y-103289890D01*
X117803393Y-103258569D01*
X117793085Y-103224591D01*
X117789000Y-103183110D01*
X117789000Y-102506890D01*
X117793085Y-102465409D01*
X117803393Y-102431431D01*
X117820134Y-102400110D01*
X117842661Y-102372661D01*
X117870110Y-102350134D01*
X117901431Y-102333393D01*
X117935409Y-102323085D01*
X117976890Y-102319000D01*
X118578110Y-102319000D01*
X118619591Y-102323085D01*
X118619591Y-102323085D01*
G37*
G36*
X124822591Y-102323085D02*
G01*
X124856569Y-102333393D01*
X124887890Y-102350134D01*
X124915339Y-102372661D01*
X124937866Y-102400110D01*
X124954607Y-102431431D01*
X124964915Y-102465409D01*
X124969000Y-102506890D01*
X124969000Y-103183110D01*
X124964915Y-103224591D01*
X124954607Y-103258569D01*
X124937866Y-103289890D01*
X124915339Y-103317339D01*
X124887890Y-103339866D01*
X124856569Y-103356607D01*
X124822591Y-103366915D01*
X124781110Y-103371000D01*
X124179890Y-103371000D01*
X124138409Y-103366915D01*
X124104431Y-103356607D01*
X124073110Y-103339866D01*
X124045661Y-103317339D01*
X124023134Y-103289890D01*
X124006393Y-103258569D01*
X123996085Y-103224591D01*
X123992000Y-103183110D01*
X123992000Y-102506890D01*
X123996085Y-102465409D01*
X124006393Y-102431431D01*
X124023134Y-102400110D01*
X124045661Y-102372661D01*
X124073110Y-102350134D01*
X124104431Y-102333393D01*
X124138409Y-102323085D01*
X124179890Y-102319000D01*
X124781110Y-102319000D01*
X124822591Y-102323085D01*
X124822591Y-102323085D01*
G37*
G36*
X170785442Y-99791518D02*
G01*
X170851627Y-99798037D01*
X171021466Y-99849557D01*
X171177991Y-99933222D01*
X171213729Y-99962552D01*
X171315186Y-100045814D01*
X171398448Y-100147271D01*
X171427778Y-100183009D01*
X171511443Y-100339534D01*
X171562963Y-100509373D01*
X171580359Y-100686000D01*
X171562963Y-100862627D01*
X171511443Y-101032466D01*
X171427778Y-101188991D01*
X171398448Y-101224729D01*
X171315186Y-101326186D01*
X171213729Y-101409448D01*
X171177991Y-101438778D01*
X171021466Y-101522443D01*
X170851627Y-101573963D01*
X170785443Y-101580481D01*
X170719260Y-101587000D01*
X170630740Y-101587000D01*
X170564558Y-101580482D01*
X170498373Y-101573963D01*
X170328534Y-101522443D01*
X170172009Y-101438778D01*
X170136271Y-101409448D01*
X170034814Y-101326186D01*
X169951552Y-101224729D01*
X169922222Y-101188991D01*
X169838557Y-101032466D01*
X169787037Y-100862627D01*
X169769641Y-100686000D01*
X169787037Y-100509373D01*
X169838557Y-100339534D01*
X169922222Y-100183009D01*
X169951552Y-100147271D01*
X170034814Y-100045814D01*
X170136271Y-99962552D01*
X170172009Y-99933222D01*
X170328534Y-99849557D01*
X170498373Y-99798037D01*
X170564557Y-99791519D01*
X170630740Y-99785000D01*
X170719260Y-99785000D01*
X170785442Y-99791518D01*
X170785442Y-99791518D01*
G37*
G36*
X168245442Y-99791518D02*
G01*
X168311627Y-99798037D01*
X168481466Y-99849557D01*
X168637991Y-99933222D01*
X168673729Y-99962552D01*
X168775186Y-100045814D01*
X168858448Y-100147271D01*
X168887778Y-100183009D01*
X168971443Y-100339534D01*
X169022963Y-100509373D01*
X169040359Y-100686000D01*
X169022963Y-100862627D01*
X168971443Y-101032466D01*
X168887778Y-101188991D01*
X168858448Y-101224729D01*
X168775186Y-101326186D01*
X168673729Y-101409448D01*
X168637991Y-101438778D01*
X168481466Y-101522443D01*
X168311627Y-101573963D01*
X168245443Y-101580481D01*
X168179260Y-101587000D01*
X168090740Y-101587000D01*
X168024558Y-101580482D01*
X167958373Y-101573963D01*
X167788534Y-101522443D01*
X167632009Y-101438778D01*
X167596271Y-101409448D01*
X167494814Y-101326186D01*
X167411552Y-101224729D01*
X167382222Y-101188991D01*
X167298557Y-101032466D01*
X167247037Y-100862627D01*
X167229641Y-100686000D01*
X167247037Y-100509373D01*
X167298557Y-100339534D01*
X167382222Y-100183009D01*
X167411552Y-100147271D01*
X167494814Y-100045814D01*
X167596271Y-99962552D01*
X167632009Y-99933222D01*
X167788534Y-99849557D01*
X167958373Y-99798037D01*
X168024557Y-99791519D01*
X168090740Y-99785000D01*
X168179260Y-99785000D01*
X168245442Y-99791518D01*
X168245442Y-99791518D01*
G37*
G36*
X99331928Y-99918264D02*
G01*
X99353009Y-99924660D01*
X99372445Y-99935048D01*
X99389476Y-99949024D01*
X99403452Y-99966055D01*
X99413840Y-99985491D01*
X99420236Y-100006572D01*
X99423000Y-100034640D01*
X99423000Y-100498360D01*
X99420236Y-100526428D01*
X99413840Y-100547509D01*
X99403452Y-100566945D01*
X99389476Y-100583976D01*
X99372445Y-100597952D01*
X99353009Y-100608340D01*
X99331928Y-100614736D01*
X99303860Y-100617500D01*
X97390140Y-100617500D01*
X97362072Y-100614736D01*
X97340991Y-100608340D01*
X97321555Y-100597952D01*
X97304524Y-100583976D01*
X97290548Y-100566945D01*
X97280160Y-100547509D01*
X97273764Y-100526428D01*
X97271000Y-100498360D01*
X97271000Y-100034640D01*
X97273764Y-100006572D01*
X97280160Y-99985491D01*
X97290548Y-99966055D01*
X97304524Y-99949024D01*
X97321555Y-99935048D01*
X97340991Y-99924660D01*
X97362072Y-99918264D01*
X97390140Y-99915500D01*
X99303860Y-99915500D01*
X99331928Y-99918264D01*
X99331928Y-99918264D01*
G37*
G36*
X108631928Y-99918264D02*
G01*
X108653009Y-99924660D01*
X108672445Y-99935048D01*
X108689476Y-99949024D01*
X108703452Y-99966055D01*
X108713840Y-99985491D01*
X108720236Y-100006572D01*
X108723000Y-100034640D01*
X108723000Y-100498360D01*
X108720236Y-100526428D01*
X108713840Y-100547509D01*
X108703452Y-100566945D01*
X108689476Y-100583976D01*
X108672445Y-100597952D01*
X108653009Y-100608340D01*
X108631928Y-100614736D01*
X108603860Y-100617500D01*
X106690140Y-100617500D01*
X106662072Y-100614736D01*
X106640991Y-100608340D01*
X106621555Y-100597952D01*
X106604524Y-100583976D01*
X106590548Y-100566945D01*
X106580160Y-100547509D01*
X106573764Y-100526428D01*
X106571000Y-100498360D01*
X106571000Y-100034640D01*
X106573764Y-100006572D01*
X106580160Y-99985491D01*
X106590548Y-99966055D01*
X106604524Y-99949024D01*
X106621555Y-99935048D01*
X106640991Y-99924660D01*
X106662072Y-99918264D01*
X106690140Y-99915500D01*
X108603860Y-99915500D01*
X108631928Y-99918264D01*
X108631928Y-99918264D01*
G37*
G36*
X110933591Y-99439785D02*
G01*
X110967569Y-99450093D01*
X110998890Y-99466834D01*
X111026339Y-99489361D01*
X111048866Y-99516810D01*
X111065607Y-99548131D01*
X111075915Y-99582109D01*
X111080000Y-99623590D01*
X111080000Y-100299810D01*
X111075915Y-100341291D01*
X111065607Y-100375269D01*
X111048866Y-100406590D01*
X111026339Y-100434039D01*
X110998890Y-100456566D01*
X110967569Y-100473307D01*
X110933591Y-100483615D01*
X110892110Y-100487700D01*
X110290890Y-100487700D01*
X110249409Y-100483615D01*
X110215431Y-100473307D01*
X110184110Y-100456566D01*
X110156661Y-100434039D01*
X110134134Y-100406590D01*
X110117393Y-100375269D01*
X110107085Y-100341291D01*
X110103000Y-100299810D01*
X110103000Y-99623590D01*
X110107085Y-99582109D01*
X110117393Y-99548131D01*
X110134134Y-99516810D01*
X110156661Y-99489361D01*
X110184110Y-99466834D01*
X110215431Y-99450093D01*
X110249409Y-99439785D01*
X110290890Y-99435700D01*
X110892110Y-99435700D01*
X110933591Y-99439785D01*
X110933591Y-99439785D01*
G37*
G36*
X112508591Y-99439785D02*
G01*
X112542569Y-99450093D01*
X112573890Y-99466834D01*
X112601339Y-99489361D01*
X112623866Y-99516810D01*
X112640607Y-99548131D01*
X112650915Y-99582109D01*
X112655000Y-99623590D01*
X112655000Y-100299810D01*
X112650915Y-100341291D01*
X112640607Y-100375269D01*
X112623866Y-100406590D01*
X112601339Y-100434039D01*
X112573890Y-100456566D01*
X112542569Y-100473307D01*
X112508591Y-100483615D01*
X112467110Y-100487700D01*
X111865890Y-100487700D01*
X111824409Y-100483615D01*
X111790431Y-100473307D01*
X111759110Y-100456566D01*
X111731661Y-100434039D01*
X111709134Y-100406590D01*
X111692393Y-100375269D01*
X111682085Y-100341291D01*
X111678000Y-100299810D01*
X111678000Y-99623590D01*
X111682085Y-99582109D01*
X111692393Y-99548131D01*
X111709134Y-99516810D01*
X111731661Y-99489361D01*
X111759110Y-99466834D01*
X111790431Y-99450093D01*
X111824409Y-99439785D01*
X111865890Y-99435700D01*
X112467110Y-99435700D01*
X112508591Y-99439785D01*
X112508591Y-99439785D01*
G37*
G36*
X120716000Y-99485800D02*
G01*
X119114000Y-99485800D01*
X119114000Y-97783800D01*
X120716000Y-97783800D01*
X120716000Y-99485800D01*
X120716000Y-99485800D01*
G37*
G36*
X116116000Y-99485800D02*
G01*
X114514000Y-99485800D01*
X114514000Y-97783800D01*
X116116000Y-97783800D01*
X116116000Y-99485800D01*
X116116000Y-99485800D01*
G37*
G36*
X125526000Y-99384200D02*
G01*
X123924000Y-99384200D01*
X123924000Y-97682200D01*
X125526000Y-97682200D01*
X125526000Y-99384200D01*
X125526000Y-99384200D01*
G37*
G36*
X130126000Y-99384200D02*
G01*
X128524000Y-99384200D01*
X128524000Y-97682200D01*
X130126000Y-97682200D01*
X130126000Y-99384200D01*
X130126000Y-99384200D01*
G37*
G36*
X99331928Y-98648264D02*
G01*
X99353009Y-98654660D01*
X99372445Y-98665048D01*
X99389476Y-98679024D01*
X99403452Y-98696055D01*
X99413840Y-98715491D01*
X99420236Y-98736572D01*
X99423000Y-98764640D01*
X99423000Y-99228360D01*
X99420236Y-99256428D01*
X99413840Y-99277509D01*
X99403452Y-99296945D01*
X99389476Y-99313976D01*
X99372445Y-99327952D01*
X99353009Y-99338340D01*
X99331928Y-99344736D01*
X99303860Y-99347500D01*
X97390140Y-99347500D01*
X97362072Y-99344736D01*
X97340991Y-99338340D01*
X97321555Y-99327952D01*
X97304524Y-99313976D01*
X97290548Y-99296945D01*
X97280160Y-99277509D01*
X97273764Y-99256428D01*
X97271000Y-99228360D01*
X97271000Y-98764640D01*
X97273764Y-98736572D01*
X97280160Y-98715491D01*
X97290548Y-98696055D01*
X97304524Y-98679024D01*
X97321555Y-98665048D01*
X97340991Y-98654660D01*
X97362072Y-98648264D01*
X97390140Y-98645500D01*
X99303860Y-98645500D01*
X99331928Y-98648264D01*
X99331928Y-98648264D01*
G37*
G36*
X108631928Y-98648264D02*
G01*
X108653009Y-98654660D01*
X108672445Y-98665048D01*
X108689476Y-98679024D01*
X108703452Y-98696055D01*
X108713840Y-98715491D01*
X108720236Y-98736572D01*
X108723000Y-98764640D01*
X108723000Y-99228360D01*
X108720236Y-99256428D01*
X108713840Y-99277509D01*
X108703452Y-99296945D01*
X108689476Y-99313976D01*
X108672445Y-99327952D01*
X108653009Y-99338340D01*
X108631928Y-99344736D01*
X108603860Y-99347500D01*
X106690140Y-99347500D01*
X106662072Y-99344736D01*
X106640991Y-99338340D01*
X106621555Y-99327952D01*
X106604524Y-99313976D01*
X106590548Y-99296945D01*
X106580160Y-99277509D01*
X106573764Y-99256428D01*
X106571000Y-99228360D01*
X106571000Y-98764640D01*
X106573764Y-98736572D01*
X106580160Y-98715491D01*
X106590548Y-98696055D01*
X106604524Y-98679024D01*
X106621555Y-98665048D01*
X106640991Y-98654660D01*
X106662072Y-98648264D01*
X106690140Y-98645500D01*
X108603860Y-98645500D01*
X108631928Y-98648264D01*
X108631928Y-98648264D01*
G37*
G36*
X96214397Y-97412951D02*
G01*
X96248052Y-97423161D01*
X96279065Y-97439738D01*
X96306251Y-97462049D01*
X96328562Y-97489235D01*
X96345139Y-97520248D01*
X96355349Y-97553903D01*
X96359400Y-97595038D01*
X96359400Y-98924762D01*
X96355349Y-98965897D01*
X96345139Y-98999552D01*
X96328562Y-99030565D01*
X96306251Y-99057751D01*
X96279065Y-99080062D01*
X96248052Y-99096639D01*
X96214397Y-99106849D01*
X96173262Y-99110900D01*
X93443538Y-99110900D01*
X93402403Y-99106849D01*
X93368748Y-99096639D01*
X93337735Y-99080062D01*
X93310549Y-99057751D01*
X93288238Y-99030565D01*
X93271661Y-98999552D01*
X93261451Y-98965897D01*
X93257400Y-98924762D01*
X93257400Y-97595038D01*
X93261451Y-97553903D01*
X93271661Y-97520248D01*
X93288238Y-97489235D01*
X93310549Y-97462049D01*
X93337735Y-97439738D01*
X93368748Y-97423161D01*
X93402403Y-97412951D01*
X93443538Y-97408900D01*
X96173262Y-97408900D01*
X96214397Y-97412951D01*
X96214397Y-97412951D01*
G37*
G36*
X91814397Y-97412951D02*
G01*
X91848052Y-97423161D01*
X91879065Y-97439738D01*
X91906251Y-97462049D01*
X91928562Y-97489235D01*
X91945139Y-97520248D01*
X91955349Y-97553903D01*
X91959400Y-97595038D01*
X91959400Y-98924762D01*
X91955349Y-98965897D01*
X91945139Y-98999552D01*
X91928562Y-99030565D01*
X91906251Y-99057751D01*
X91879065Y-99080062D01*
X91848052Y-99096639D01*
X91814397Y-99106849D01*
X91773262Y-99110900D01*
X89043538Y-99110900D01*
X89002403Y-99106849D01*
X88968748Y-99096639D01*
X88937735Y-99080062D01*
X88910549Y-99057751D01*
X88888238Y-99030565D01*
X88871661Y-98999552D01*
X88861451Y-98965897D01*
X88857400Y-98924762D01*
X88857400Y-97595038D01*
X88861451Y-97553903D01*
X88871661Y-97520248D01*
X88888238Y-97489235D01*
X88910549Y-97462049D01*
X88937735Y-97439738D01*
X88968748Y-97423161D01*
X89002403Y-97412951D01*
X89043538Y-97408900D01*
X91773262Y-97408900D01*
X91814397Y-97412951D01*
X91814397Y-97412951D01*
G37*
G36*
X168528591Y-97039485D02*
G01*
X168562569Y-97049793D01*
X168593890Y-97066534D01*
X168621339Y-97089061D01*
X168643866Y-97116510D01*
X168660607Y-97147831D01*
X168670915Y-97181809D01*
X168675000Y-97223290D01*
X168675000Y-97899510D01*
X168670915Y-97940991D01*
X168660607Y-97974969D01*
X168643866Y-98006290D01*
X168621339Y-98033739D01*
X168593890Y-98056266D01*
X168562569Y-98073007D01*
X168528591Y-98083315D01*
X168487110Y-98087400D01*
X167885890Y-98087400D01*
X167844409Y-98083315D01*
X167810431Y-98073007D01*
X167779110Y-98056266D01*
X167751661Y-98033739D01*
X167729134Y-98006290D01*
X167712393Y-97974969D01*
X167702085Y-97940991D01*
X167698000Y-97899510D01*
X167698000Y-97223290D01*
X167702085Y-97181809D01*
X167712393Y-97147831D01*
X167729134Y-97116510D01*
X167751661Y-97089061D01*
X167779110Y-97066534D01*
X167810431Y-97049793D01*
X167844409Y-97039485D01*
X167885890Y-97035400D01*
X168487110Y-97035400D01*
X168528591Y-97039485D01*
X168528591Y-97039485D01*
G37*
G36*
X170103591Y-97039485D02*
G01*
X170137569Y-97049793D01*
X170168890Y-97066534D01*
X170196339Y-97089061D01*
X170218866Y-97116510D01*
X170235607Y-97147831D01*
X170245915Y-97181809D01*
X170250000Y-97223290D01*
X170250000Y-97899510D01*
X170245915Y-97940991D01*
X170235607Y-97974969D01*
X170218866Y-98006290D01*
X170196339Y-98033739D01*
X170168890Y-98056266D01*
X170137569Y-98073007D01*
X170103591Y-98083315D01*
X170062110Y-98087400D01*
X169460890Y-98087400D01*
X169419409Y-98083315D01*
X169385431Y-98073007D01*
X169354110Y-98056266D01*
X169326661Y-98033739D01*
X169304134Y-98006290D01*
X169287393Y-97974969D01*
X169277085Y-97940991D01*
X169273000Y-97899510D01*
X169273000Y-97223290D01*
X169277085Y-97181809D01*
X169287393Y-97147831D01*
X169304134Y-97116510D01*
X169326661Y-97089061D01*
X169354110Y-97066534D01*
X169385431Y-97049793D01*
X169419409Y-97039485D01*
X169460890Y-97035400D01*
X170062110Y-97035400D01*
X170103591Y-97039485D01*
X170103591Y-97039485D01*
G37*
G36*
X108631928Y-97378264D02*
G01*
X108653009Y-97384660D01*
X108672445Y-97395048D01*
X108689476Y-97409024D01*
X108703452Y-97426055D01*
X108713840Y-97445491D01*
X108720236Y-97466572D01*
X108723000Y-97494640D01*
X108723000Y-97958360D01*
X108720236Y-97986428D01*
X108713840Y-98007509D01*
X108703452Y-98026945D01*
X108689476Y-98043976D01*
X108672445Y-98057952D01*
X108653009Y-98068340D01*
X108631928Y-98074736D01*
X108603860Y-98077500D01*
X106690140Y-98077500D01*
X106662072Y-98074736D01*
X106640991Y-98068340D01*
X106621555Y-98057952D01*
X106604524Y-98043976D01*
X106590548Y-98026945D01*
X106580160Y-98007509D01*
X106573764Y-97986428D01*
X106571000Y-97958360D01*
X106571000Y-97494640D01*
X106573764Y-97466572D01*
X106580160Y-97445491D01*
X106590548Y-97426055D01*
X106604524Y-97409024D01*
X106621555Y-97395048D01*
X106640991Y-97384660D01*
X106662072Y-97378264D01*
X106690140Y-97375500D01*
X108603860Y-97375500D01*
X108631928Y-97378264D01*
X108631928Y-97378264D01*
G37*
G36*
X99331928Y-97378264D02*
G01*
X99353009Y-97384660D01*
X99372445Y-97395048D01*
X99389476Y-97409024D01*
X99403452Y-97426055D01*
X99413840Y-97445491D01*
X99420236Y-97466572D01*
X99423000Y-97494640D01*
X99423000Y-97958360D01*
X99420236Y-97986428D01*
X99413840Y-98007509D01*
X99403452Y-98026945D01*
X99389476Y-98043976D01*
X99372445Y-98057952D01*
X99353009Y-98068340D01*
X99331928Y-98074736D01*
X99303860Y-98077500D01*
X97390140Y-98077500D01*
X97362072Y-98074736D01*
X97340991Y-98068340D01*
X97321555Y-98057952D01*
X97304524Y-98043976D01*
X97290548Y-98026945D01*
X97280160Y-98007509D01*
X97273764Y-97986428D01*
X97271000Y-97958360D01*
X97271000Y-97494640D01*
X97273764Y-97466572D01*
X97280160Y-97445491D01*
X97290548Y-97426055D01*
X97304524Y-97409024D01*
X97321555Y-97395048D01*
X97340991Y-97384660D01*
X97362072Y-97378264D01*
X97390140Y-97375500D01*
X99303860Y-97375500D01*
X99331928Y-97378264D01*
X99331928Y-97378264D01*
G37*
G36*
X112508591Y-95775885D02*
G01*
X112542569Y-95786193D01*
X112573890Y-95802934D01*
X112601339Y-95825461D01*
X112623866Y-95852910D01*
X112640607Y-95884231D01*
X112650915Y-95918209D01*
X112655000Y-95959690D01*
X112655000Y-96635910D01*
X112650915Y-96677391D01*
X112640607Y-96711369D01*
X112623866Y-96742690D01*
X112601339Y-96770139D01*
X112573890Y-96792666D01*
X112542569Y-96809407D01*
X112508591Y-96819715D01*
X112467110Y-96823800D01*
X111865890Y-96823800D01*
X111824409Y-96819715D01*
X111790431Y-96809407D01*
X111759110Y-96792666D01*
X111731661Y-96770139D01*
X111709134Y-96742690D01*
X111692393Y-96711369D01*
X111682085Y-96677391D01*
X111678000Y-96635910D01*
X111678000Y-95959690D01*
X111682085Y-95918209D01*
X111692393Y-95884231D01*
X111709134Y-95852910D01*
X111731661Y-95825461D01*
X111759110Y-95802934D01*
X111790431Y-95786193D01*
X111824409Y-95775885D01*
X111865890Y-95771800D01*
X112467110Y-95771800D01*
X112508591Y-95775885D01*
X112508591Y-95775885D01*
G37*
G36*
X110933591Y-95775885D02*
G01*
X110967569Y-95786193D01*
X110998890Y-95802934D01*
X111026339Y-95825461D01*
X111048866Y-95852910D01*
X111065607Y-95884231D01*
X111075915Y-95918209D01*
X111080000Y-95959690D01*
X111080000Y-96635910D01*
X111075915Y-96677391D01*
X111065607Y-96711369D01*
X111048866Y-96742690D01*
X111026339Y-96770139D01*
X110998890Y-96792666D01*
X110967569Y-96809407D01*
X110933591Y-96819715D01*
X110892110Y-96823800D01*
X110290890Y-96823800D01*
X110249409Y-96819715D01*
X110215431Y-96809407D01*
X110184110Y-96792666D01*
X110156661Y-96770139D01*
X110134134Y-96742690D01*
X110117393Y-96711369D01*
X110107085Y-96677391D01*
X110103000Y-96635910D01*
X110103000Y-95959690D01*
X110107085Y-95918209D01*
X110117393Y-95884231D01*
X110134134Y-95852910D01*
X110156661Y-95825461D01*
X110184110Y-95802934D01*
X110215431Y-95786193D01*
X110249409Y-95775885D01*
X110290890Y-95771800D01*
X110892110Y-95771800D01*
X110933591Y-95775885D01*
X110933591Y-95775885D01*
G37*
G36*
X108631928Y-96108264D02*
G01*
X108653009Y-96114660D01*
X108672445Y-96125048D01*
X108689476Y-96139024D01*
X108703452Y-96156055D01*
X108713840Y-96175491D01*
X108720236Y-96196572D01*
X108723000Y-96224640D01*
X108723000Y-96688360D01*
X108720236Y-96716428D01*
X108713840Y-96737509D01*
X108703452Y-96756945D01*
X108689476Y-96773976D01*
X108672445Y-96787952D01*
X108653009Y-96798340D01*
X108631928Y-96804736D01*
X108603860Y-96807500D01*
X106690140Y-96807500D01*
X106662072Y-96804736D01*
X106640991Y-96798340D01*
X106621555Y-96787952D01*
X106604524Y-96773976D01*
X106590548Y-96756945D01*
X106580160Y-96737509D01*
X106573764Y-96716428D01*
X106571000Y-96688360D01*
X106571000Y-96224640D01*
X106573764Y-96196572D01*
X106580160Y-96175491D01*
X106590548Y-96156055D01*
X106604524Y-96139024D01*
X106621555Y-96125048D01*
X106640991Y-96114660D01*
X106662072Y-96108264D01*
X106690140Y-96105500D01*
X108603860Y-96105500D01*
X108631928Y-96108264D01*
X108631928Y-96108264D01*
G37*
G36*
X99331928Y-96108264D02*
G01*
X99353009Y-96114660D01*
X99372445Y-96125048D01*
X99389476Y-96139024D01*
X99403452Y-96156055D01*
X99413840Y-96175491D01*
X99420236Y-96196572D01*
X99423000Y-96224640D01*
X99423000Y-96688360D01*
X99420236Y-96716428D01*
X99413840Y-96737509D01*
X99403452Y-96756945D01*
X99389476Y-96773976D01*
X99372445Y-96787952D01*
X99353009Y-96798340D01*
X99331928Y-96804736D01*
X99303860Y-96807500D01*
X97390140Y-96807500D01*
X97362072Y-96804736D01*
X97340991Y-96798340D01*
X97321555Y-96787952D01*
X97304524Y-96773976D01*
X97290548Y-96756945D01*
X97280160Y-96737509D01*
X97273764Y-96716428D01*
X97271000Y-96688360D01*
X97271000Y-96224640D01*
X97273764Y-96196572D01*
X97280160Y-96175491D01*
X97290548Y-96156055D01*
X97304524Y-96139024D01*
X97321555Y-96125048D01*
X97340991Y-96114660D01*
X97362072Y-96108264D01*
X97390140Y-96105500D01*
X99303860Y-96105500D01*
X99331928Y-96108264D01*
X99331928Y-96108264D01*
G37*
G36*
X87710891Y-95604385D02*
G01*
X87744869Y-95614693D01*
X87776190Y-95631434D01*
X87803639Y-95653961D01*
X87826166Y-95681410D01*
X87842907Y-95712731D01*
X87853215Y-95746709D01*
X87857300Y-95788190D01*
X87857300Y-96464410D01*
X87853215Y-96505891D01*
X87842907Y-96539869D01*
X87826166Y-96571190D01*
X87803639Y-96598639D01*
X87776190Y-96621166D01*
X87744869Y-96637907D01*
X87710891Y-96648215D01*
X87669410Y-96652300D01*
X87068190Y-96652300D01*
X87026709Y-96648215D01*
X86992731Y-96637907D01*
X86961410Y-96621166D01*
X86933961Y-96598639D01*
X86911434Y-96571190D01*
X86894693Y-96539869D01*
X86884385Y-96505891D01*
X86880300Y-96464410D01*
X86880300Y-95788190D01*
X86884385Y-95746709D01*
X86894693Y-95712731D01*
X86911434Y-95681410D01*
X86933961Y-95653961D01*
X86961410Y-95631434D01*
X86992731Y-95614693D01*
X87026709Y-95604385D01*
X87068190Y-95600300D01*
X87669410Y-95600300D01*
X87710891Y-95604385D01*
X87710891Y-95604385D01*
G37*
G36*
X86135891Y-95604385D02*
G01*
X86169869Y-95614693D01*
X86201190Y-95631434D01*
X86228639Y-95653961D01*
X86251166Y-95681410D01*
X86267907Y-95712731D01*
X86278215Y-95746709D01*
X86282300Y-95788190D01*
X86282300Y-96464410D01*
X86278215Y-96505891D01*
X86267907Y-96539869D01*
X86251166Y-96571190D01*
X86228639Y-96598639D01*
X86201190Y-96621166D01*
X86169869Y-96637907D01*
X86135891Y-96648215D01*
X86094410Y-96652300D01*
X85493190Y-96652300D01*
X85451709Y-96648215D01*
X85417731Y-96637907D01*
X85386410Y-96621166D01*
X85358961Y-96598639D01*
X85336434Y-96571190D01*
X85319693Y-96539869D01*
X85309385Y-96505891D01*
X85305300Y-96464410D01*
X85305300Y-95788190D01*
X85309385Y-95746709D01*
X85319693Y-95712731D01*
X85336434Y-95681410D01*
X85358961Y-95653961D01*
X85386410Y-95631434D01*
X85417731Y-95614693D01*
X85451709Y-95604385D01*
X85493190Y-95600300D01*
X86094410Y-95600300D01*
X86135891Y-95604385D01*
X86135891Y-95604385D01*
G37*
G36*
X120916000Y-95885800D02*
G01*
X114314000Y-95885800D01*
X114314000Y-89083800D01*
X120916000Y-89083800D01*
X120916000Y-95885800D01*
X120916000Y-95885800D01*
G37*
G36*
X130326000Y-95784200D02*
G01*
X123724000Y-95784200D01*
X123724000Y-88982200D01*
X130326000Y-88982200D01*
X130326000Y-95784200D01*
X130326000Y-95784200D01*
G37*
G36*
X171094604Y-93718747D02*
G01*
X171131144Y-93729832D01*
X171164821Y-93747833D01*
X171194341Y-93772059D01*
X171218567Y-93801579D01*
X171236568Y-93835256D01*
X171247653Y-93871796D01*
X171252000Y-93915938D01*
X171252000Y-95364862D01*
X171247653Y-95409004D01*
X171236568Y-95445544D01*
X171218567Y-95479221D01*
X171194341Y-95508741D01*
X171164821Y-95532967D01*
X171131144Y-95550968D01*
X171094604Y-95562053D01*
X171050462Y-95566400D01*
X170101538Y-95566400D01*
X170057396Y-95562053D01*
X170020856Y-95550968D01*
X169987179Y-95532967D01*
X169957659Y-95508741D01*
X169933433Y-95479221D01*
X169915432Y-95445544D01*
X169904347Y-95409004D01*
X169900000Y-95364862D01*
X169900000Y-93915938D01*
X169904347Y-93871796D01*
X169915432Y-93835256D01*
X169933433Y-93801579D01*
X169957659Y-93772059D01*
X169987179Y-93747833D01*
X170020856Y-93729832D01*
X170057396Y-93718747D01*
X170101538Y-93714400D01*
X171050462Y-93714400D01*
X171094604Y-93718747D01*
X171094604Y-93718747D01*
G37*
G36*
X168294604Y-93718747D02*
G01*
X168331144Y-93729832D01*
X168364821Y-93747833D01*
X168394341Y-93772059D01*
X168418567Y-93801579D01*
X168436568Y-93835256D01*
X168447653Y-93871796D01*
X168452000Y-93915938D01*
X168452000Y-95364862D01*
X168447653Y-95409004D01*
X168436568Y-95445544D01*
X168418567Y-95479221D01*
X168394341Y-95508741D01*
X168364821Y-95532967D01*
X168331144Y-95550968D01*
X168294604Y-95562053D01*
X168250462Y-95566400D01*
X167301538Y-95566400D01*
X167257396Y-95562053D01*
X167220856Y-95550968D01*
X167187179Y-95532967D01*
X167157659Y-95508741D01*
X167133433Y-95479221D01*
X167115432Y-95445544D01*
X167104347Y-95409004D01*
X167100000Y-95364862D01*
X167100000Y-93915938D01*
X167104347Y-93871796D01*
X167115432Y-93835256D01*
X167133433Y-93801579D01*
X167157659Y-93772059D01*
X167187179Y-93747833D01*
X167220856Y-93729832D01*
X167257396Y-93718747D01*
X167301538Y-93714400D01*
X168250462Y-93714400D01*
X168294604Y-93718747D01*
X168294604Y-93718747D01*
G37*
G36*
X108631928Y-94838264D02*
G01*
X108653009Y-94844660D01*
X108672445Y-94855048D01*
X108689476Y-94869024D01*
X108703452Y-94886055D01*
X108713840Y-94905491D01*
X108720236Y-94926572D01*
X108723000Y-94954640D01*
X108723000Y-95418360D01*
X108720236Y-95446428D01*
X108713840Y-95467509D01*
X108703452Y-95486945D01*
X108689476Y-95503976D01*
X108672445Y-95517952D01*
X108653009Y-95528340D01*
X108631928Y-95534736D01*
X108603860Y-95537500D01*
X106690140Y-95537500D01*
X106662072Y-95534736D01*
X106640991Y-95528340D01*
X106621555Y-95517952D01*
X106604524Y-95503976D01*
X106590548Y-95486945D01*
X106580160Y-95467509D01*
X106573764Y-95446428D01*
X106571000Y-95418360D01*
X106571000Y-94954640D01*
X106573764Y-94926572D01*
X106580160Y-94905491D01*
X106590548Y-94886055D01*
X106604524Y-94869024D01*
X106621555Y-94855048D01*
X106640991Y-94844660D01*
X106662072Y-94838264D01*
X106690140Y-94835500D01*
X108603860Y-94835500D01*
X108631928Y-94838264D01*
X108631928Y-94838264D01*
G37*
G36*
X99331928Y-94838264D02*
G01*
X99353009Y-94844660D01*
X99372445Y-94855048D01*
X99389476Y-94869024D01*
X99403452Y-94886055D01*
X99413840Y-94905491D01*
X99420236Y-94926572D01*
X99423000Y-94954640D01*
X99423000Y-95418360D01*
X99420236Y-95446428D01*
X99413840Y-95467509D01*
X99403452Y-95486945D01*
X99389476Y-95503976D01*
X99372445Y-95517952D01*
X99353009Y-95528340D01*
X99331928Y-95534736D01*
X99303860Y-95537500D01*
X97390140Y-95537500D01*
X97362072Y-95534736D01*
X97340991Y-95528340D01*
X97321555Y-95517952D01*
X97304524Y-95503976D01*
X97290548Y-95486945D01*
X97280160Y-95467509D01*
X97273764Y-95446428D01*
X97271000Y-95418360D01*
X97271000Y-94954640D01*
X97273764Y-94926572D01*
X97280160Y-94905491D01*
X97290548Y-94886055D01*
X97304524Y-94869024D01*
X97321555Y-94855048D01*
X97340991Y-94844660D01*
X97362072Y-94838264D01*
X97390140Y-94835500D01*
X99303860Y-94835500D01*
X99331928Y-94838264D01*
X99331928Y-94838264D01*
G37*
G36*
X152156585Y-91874602D02*
G01*
X152306410Y-91904404D01*
X152588674Y-92021321D01*
X152842705Y-92191059D01*
X153058741Y-92407095D01*
X153228479Y-92661126D01*
X153345396Y-92943390D01*
X153359320Y-93013391D01*
X153405000Y-93243039D01*
X153405000Y-93548561D01*
X153377932Y-93684640D01*
X153345396Y-93848210D01*
X153228479Y-94130474D01*
X153058741Y-94384505D01*
X152842705Y-94600541D01*
X152588674Y-94770279D01*
X152306410Y-94887196D01*
X152174186Y-94913497D01*
X152006761Y-94946800D01*
X151701239Y-94946800D01*
X151533814Y-94913497D01*
X151401590Y-94887196D01*
X151119326Y-94770279D01*
X150865295Y-94600541D01*
X150649259Y-94384505D01*
X150479521Y-94130474D01*
X150362604Y-93848210D01*
X150330068Y-93684640D01*
X150303000Y-93548561D01*
X150303000Y-93243039D01*
X150348680Y-93013391D01*
X150362604Y-92943390D01*
X150479521Y-92661126D01*
X150649259Y-92407095D01*
X150865295Y-92191059D01*
X151119326Y-92021321D01*
X151401590Y-91904404D01*
X151551415Y-91874602D01*
X151701239Y-91844800D01*
X152006761Y-91844800D01*
X152156585Y-91874602D01*
X152156585Y-91874602D01*
G37*
G36*
X163586585Y-91874602D02*
G01*
X163736410Y-91904404D01*
X164018674Y-92021321D01*
X164272705Y-92191059D01*
X164488741Y-92407095D01*
X164658479Y-92661126D01*
X164775396Y-92943390D01*
X164789320Y-93013391D01*
X164835000Y-93243039D01*
X164835000Y-93548561D01*
X164807932Y-93684640D01*
X164775396Y-93848210D01*
X164658479Y-94130474D01*
X164488741Y-94384505D01*
X164272705Y-94600541D01*
X164018674Y-94770279D01*
X163736410Y-94887196D01*
X163604186Y-94913497D01*
X163436761Y-94946800D01*
X163131239Y-94946800D01*
X162963814Y-94913497D01*
X162831590Y-94887196D01*
X162549326Y-94770279D01*
X162295295Y-94600541D01*
X162079259Y-94384505D01*
X161909521Y-94130474D01*
X161792604Y-93848210D01*
X161760068Y-93684640D01*
X161733000Y-93548561D01*
X161733000Y-93243039D01*
X161778680Y-93013391D01*
X161792604Y-92943390D01*
X161909521Y-92661126D01*
X162079259Y-92407095D01*
X162295295Y-92191059D01*
X162549326Y-92021321D01*
X162831590Y-91904404D01*
X162981415Y-91874602D01*
X163131239Y-91844800D01*
X163436761Y-91844800D01*
X163586585Y-91874602D01*
X163586585Y-91874602D01*
G37*
G36*
X135024585Y-91874602D02*
G01*
X135174410Y-91904404D01*
X135456674Y-92021321D01*
X135710705Y-92191059D01*
X135926741Y-92407095D01*
X136096479Y-92661126D01*
X136213396Y-92943390D01*
X136227320Y-93013391D01*
X136273000Y-93243039D01*
X136273000Y-93548561D01*
X136245932Y-93684640D01*
X136213396Y-93848210D01*
X136096479Y-94130474D01*
X135926741Y-94384505D01*
X135710705Y-94600541D01*
X135456674Y-94770279D01*
X135174410Y-94887196D01*
X135042186Y-94913497D01*
X134874761Y-94946800D01*
X134569239Y-94946800D01*
X134401814Y-94913497D01*
X134269590Y-94887196D01*
X133987326Y-94770279D01*
X133733295Y-94600541D01*
X133517259Y-94384505D01*
X133347521Y-94130474D01*
X133230604Y-93848210D01*
X133198068Y-93684640D01*
X133171000Y-93548561D01*
X133171000Y-93243039D01*
X133216680Y-93013391D01*
X133230604Y-92943390D01*
X133347521Y-92661126D01*
X133517259Y-92407095D01*
X133733295Y-92191059D01*
X133987326Y-92021321D01*
X134269590Y-91904404D01*
X134419415Y-91874602D01*
X134569239Y-91844800D01*
X134874761Y-91844800D01*
X135024585Y-91874602D01*
X135024585Y-91874602D01*
G37*
G36*
X146454585Y-91874602D02*
G01*
X146604410Y-91904404D01*
X146886674Y-92021321D01*
X147140705Y-92191059D01*
X147356741Y-92407095D01*
X147526479Y-92661126D01*
X147643396Y-92943390D01*
X147657320Y-93013391D01*
X147703000Y-93243039D01*
X147703000Y-93548561D01*
X147675932Y-93684640D01*
X147643396Y-93848210D01*
X147526479Y-94130474D01*
X147356741Y-94384505D01*
X147140705Y-94600541D01*
X146886674Y-94770279D01*
X146604410Y-94887196D01*
X146472186Y-94913497D01*
X146304761Y-94946800D01*
X145999239Y-94946800D01*
X145831814Y-94913497D01*
X145699590Y-94887196D01*
X145417326Y-94770279D01*
X145163295Y-94600541D01*
X144947259Y-94384505D01*
X144777521Y-94130474D01*
X144660604Y-93848210D01*
X144628068Y-93684640D01*
X144601000Y-93548561D01*
X144601000Y-93243039D01*
X144646680Y-93013391D01*
X144660604Y-92943390D01*
X144777521Y-92661126D01*
X144947259Y-92407095D01*
X145163295Y-92191059D01*
X145417326Y-92021321D01*
X145699590Y-91904404D01*
X145849415Y-91874602D01*
X145999239Y-91844800D01*
X146304761Y-91844800D01*
X146454585Y-91874602D01*
X146454585Y-91874602D01*
G37*
G36*
X88519904Y-92829747D02*
G01*
X88556444Y-92840832D01*
X88590121Y-92858833D01*
X88619641Y-92883059D01*
X88643867Y-92912579D01*
X88661868Y-92946256D01*
X88672953Y-92982796D01*
X88677300Y-93026938D01*
X88677300Y-94475862D01*
X88672953Y-94520004D01*
X88661868Y-94556544D01*
X88643867Y-94590221D01*
X88619641Y-94619741D01*
X88590121Y-94643967D01*
X88556444Y-94661968D01*
X88519904Y-94673053D01*
X88475762Y-94677400D01*
X87526838Y-94677400D01*
X87482696Y-94673053D01*
X87446156Y-94661968D01*
X87412479Y-94643967D01*
X87382959Y-94619741D01*
X87358733Y-94590221D01*
X87340732Y-94556544D01*
X87329647Y-94520004D01*
X87325300Y-94475862D01*
X87325300Y-93026938D01*
X87329647Y-92982796D01*
X87340732Y-92946256D01*
X87358733Y-92912579D01*
X87382959Y-92883059D01*
X87412479Y-92858833D01*
X87446156Y-92840832D01*
X87482696Y-92829747D01*
X87526838Y-92825400D01*
X88475762Y-92825400D01*
X88519904Y-92829747D01*
X88519904Y-92829747D01*
G37*
G36*
X85719904Y-92829747D02*
G01*
X85756444Y-92840832D01*
X85790121Y-92858833D01*
X85819641Y-92883059D01*
X85843867Y-92912579D01*
X85861868Y-92946256D01*
X85872953Y-92982796D01*
X85877300Y-93026938D01*
X85877300Y-94475862D01*
X85872953Y-94520004D01*
X85861868Y-94556544D01*
X85843867Y-94590221D01*
X85819641Y-94619741D01*
X85790121Y-94643967D01*
X85756444Y-94661968D01*
X85719904Y-94673053D01*
X85675762Y-94677400D01*
X84726838Y-94677400D01*
X84682696Y-94673053D01*
X84646156Y-94661968D01*
X84612479Y-94643967D01*
X84582959Y-94619741D01*
X84558733Y-94590221D01*
X84540732Y-94556544D01*
X84529647Y-94520004D01*
X84525300Y-94475862D01*
X84525300Y-93026938D01*
X84529647Y-92982796D01*
X84540732Y-92946256D01*
X84558733Y-92912579D01*
X84582959Y-92883059D01*
X84612479Y-92858833D01*
X84646156Y-92840832D01*
X84682696Y-92829747D01*
X84726838Y-92825400D01*
X85675762Y-92825400D01*
X85719904Y-92829747D01*
X85719904Y-92829747D01*
G37*
G36*
X108631928Y-93568264D02*
G01*
X108653009Y-93574660D01*
X108672445Y-93585048D01*
X108689476Y-93599024D01*
X108703452Y-93616055D01*
X108713840Y-93635491D01*
X108720236Y-93656572D01*
X108723000Y-93684640D01*
X108723000Y-94148360D01*
X108720236Y-94176428D01*
X108713840Y-94197509D01*
X108703452Y-94216945D01*
X108689476Y-94233976D01*
X108672445Y-94247952D01*
X108653009Y-94258340D01*
X108631928Y-94264736D01*
X108603860Y-94267500D01*
X106690140Y-94267500D01*
X106662072Y-94264736D01*
X106640991Y-94258340D01*
X106621555Y-94247952D01*
X106604524Y-94233976D01*
X106590548Y-94216945D01*
X106580160Y-94197509D01*
X106573764Y-94176428D01*
X106571000Y-94148360D01*
X106571000Y-93684640D01*
X106573764Y-93656572D01*
X106580160Y-93635491D01*
X106590548Y-93616055D01*
X106604524Y-93599024D01*
X106621555Y-93585048D01*
X106640991Y-93574660D01*
X106662072Y-93568264D01*
X106690140Y-93565500D01*
X108603860Y-93565500D01*
X108631928Y-93568264D01*
X108631928Y-93568264D01*
G37*
G36*
X99331928Y-93568264D02*
G01*
X99353009Y-93574660D01*
X99372445Y-93585048D01*
X99389476Y-93599024D01*
X99403452Y-93616055D01*
X99413840Y-93635491D01*
X99420236Y-93656572D01*
X99423000Y-93684640D01*
X99423000Y-94148360D01*
X99420236Y-94176428D01*
X99413840Y-94197509D01*
X99403452Y-94216945D01*
X99389476Y-94233976D01*
X99372445Y-94247952D01*
X99353009Y-94258340D01*
X99331928Y-94264736D01*
X99303860Y-94267500D01*
X97390140Y-94267500D01*
X97362072Y-94264736D01*
X97340991Y-94258340D01*
X97321555Y-94247952D01*
X97304524Y-94233976D01*
X97290548Y-94216945D01*
X97280160Y-94197509D01*
X97273764Y-94176428D01*
X97271000Y-94148360D01*
X97271000Y-93684640D01*
X97273764Y-93656572D01*
X97280160Y-93635491D01*
X97290548Y-93616055D01*
X97304524Y-93599024D01*
X97321555Y-93585048D01*
X97340991Y-93574660D01*
X97362072Y-93568264D01*
X97390140Y-93565500D01*
X99303860Y-93565500D01*
X99331928Y-93568264D01*
X99331928Y-93568264D01*
G37*
G36*
X112508591Y-92111885D02*
G01*
X112542569Y-92122193D01*
X112573890Y-92138934D01*
X112601339Y-92161461D01*
X112623866Y-92188910D01*
X112640607Y-92220231D01*
X112650915Y-92254209D01*
X112655000Y-92295690D01*
X112655000Y-92971910D01*
X112650915Y-93013391D01*
X112640607Y-93047369D01*
X112623866Y-93078690D01*
X112601339Y-93106139D01*
X112573890Y-93128666D01*
X112542569Y-93145407D01*
X112508591Y-93155715D01*
X112467110Y-93159800D01*
X111865890Y-93159800D01*
X111824409Y-93155715D01*
X111790431Y-93145407D01*
X111759110Y-93128666D01*
X111731661Y-93106139D01*
X111709134Y-93078690D01*
X111692393Y-93047369D01*
X111682085Y-93013391D01*
X111678000Y-92971910D01*
X111678000Y-92295690D01*
X111682085Y-92254209D01*
X111692393Y-92220231D01*
X111709134Y-92188910D01*
X111731661Y-92161461D01*
X111759110Y-92138934D01*
X111790431Y-92122193D01*
X111824409Y-92111885D01*
X111865890Y-92107800D01*
X112467110Y-92107800D01*
X112508591Y-92111885D01*
X112508591Y-92111885D01*
G37*
G36*
X110933591Y-92111885D02*
G01*
X110967569Y-92122193D01*
X110998890Y-92138934D01*
X111026339Y-92161461D01*
X111048866Y-92188910D01*
X111065607Y-92220231D01*
X111075915Y-92254209D01*
X111080000Y-92295690D01*
X111080000Y-92971910D01*
X111075915Y-93013391D01*
X111065607Y-93047369D01*
X111048866Y-93078690D01*
X111026339Y-93106139D01*
X110998890Y-93128666D01*
X110967569Y-93145407D01*
X110933591Y-93155715D01*
X110892110Y-93159800D01*
X110290890Y-93159800D01*
X110249409Y-93155715D01*
X110215431Y-93145407D01*
X110184110Y-93128666D01*
X110156661Y-93106139D01*
X110134134Y-93078690D01*
X110117393Y-93047369D01*
X110107085Y-93013391D01*
X110103000Y-92971910D01*
X110103000Y-92295690D01*
X110107085Y-92254209D01*
X110117393Y-92220231D01*
X110134134Y-92188910D01*
X110156661Y-92161461D01*
X110184110Y-92138934D01*
X110215431Y-92122193D01*
X110249409Y-92111885D01*
X110290890Y-92107800D01*
X110892110Y-92107800D01*
X110933591Y-92111885D01*
X110933591Y-92111885D01*
G37*
G36*
X99331928Y-92298264D02*
G01*
X99353009Y-92304660D01*
X99372445Y-92315048D01*
X99389476Y-92329024D01*
X99403452Y-92346055D01*
X99413840Y-92365491D01*
X99420236Y-92386572D01*
X99423000Y-92414640D01*
X99423000Y-92878360D01*
X99420236Y-92906428D01*
X99413840Y-92927509D01*
X99403452Y-92946945D01*
X99389476Y-92963976D01*
X99372445Y-92977952D01*
X99353009Y-92988340D01*
X99331928Y-92994736D01*
X99303860Y-92997500D01*
X97390140Y-92997500D01*
X97362072Y-92994736D01*
X97340991Y-92988340D01*
X97321555Y-92977952D01*
X97304524Y-92963976D01*
X97290548Y-92946945D01*
X97280160Y-92927509D01*
X97273764Y-92906428D01*
X97271000Y-92878360D01*
X97271000Y-92414640D01*
X97273764Y-92386572D01*
X97280160Y-92365491D01*
X97290548Y-92346055D01*
X97304524Y-92329024D01*
X97321555Y-92315048D01*
X97340991Y-92304660D01*
X97362072Y-92298264D01*
X97390140Y-92295500D01*
X99303860Y-92295500D01*
X99331928Y-92298264D01*
X99331928Y-92298264D01*
G37*
G36*
X108631928Y-92298264D02*
G01*
X108653009Y-92304660D01*
X108672445Y-92315048D01*
X108689476Y-92329024D01*
X108703452Y-92346055D01*
X108713840Y-92365491D01*
X108720236Y-92386572D01*
X108723000Y-92414640D01*
X108723000Y-92878360D01*
X108720236Y-92906428D01*
X108713840Y-92927509D01*
X108703452Y-92946945D01*
X108689476Y-92963976D01*
X108672445Y-92977952D01*
X108653009Y-92988340D01*
X108631928Y-92994736D01*
X108603860Y-92997500D01*
X106690140Y-92997500D01*
X106662072Y-92994736D01*
X106640991Y-92988340D01*
X106621555Y-92977952D01*
X106604524Y-92963976D01*
X106590548Y-92946945D01*
X106580160Y-92927509D01*
X106573764Y-92906428D01*
X106571000Y-92878360D01*
X106571000Y-92414640D01*
X106573764Y-92386572D01*
X106580160Y-92365491D01*
X106590548Y-92346055D01*
X106604524Y-92329024D01*
X106621555Y-92315048D01*
X106640991Y-92304660D01*
X106662072Y-92298264D01*
X106690140Y-92295500D01*
X108603860Y-92295500D01*
X108631928Y-92298264D01*
X108631928Y-92298264D01*
G37*
G36*
X137154585Y-88724602D02*
G01*
X137304410Y-88754404D01*
X137586674Y-88871321D01*
X137840705Y-89041059D01*
X138056741Y-89257095D01*
X138226479Y-89511126D01*
X138343396Y-89793390D01*
X138346544Y-89809215D01*
X138398390Y-90069861D01*
X138403000Y-90093040D01*
X138403000Y-90398560D01*
X138343396Y-90698210D01*
X138226479Y-90980474D01*
X138056741Y-91234505D01*
X137840705Y-91450541D01*
X137586674Y-91620279D01*
X137304410Y-91737196D01*
X137201832Y-91757600D01*
X137004761Y-91796800D01*
X136699239Y-91796800D01*
X136502168Y-91757600D01*
X136399590Y-91737196D01*
X136117326Y-91620279D01*
X135863295Y-91450541D01*
X135647259Y-91234505D01*
X135477521Y-90980474D01*
X135360604Y-90698210D01*
X135301000Y-90398560D01*
X135301000Y-90093040D01*
X135305611Y-90069861D01*
X135357456Y-89809215D01*
X135360604Y-89793390D01*
X135477521Y-89511126D01*
X135647259Y-89257095D01*
X135863295Y-89041059D01*
X136117326Y-88871321D01*
X136399590Y-88754404D01*
X136549415Y-88724602D01*
X136699239Y-88694800D01*
X137004761Y-88694800D01*
X137154585Y-88724602D01*
X137154585Y-88724602D01*
G37*
G36*
X154286585Y-88724602D02*
G01*
X154436410Y-88754404D01*
X154718674Y-88871321D01*
X154972705Y-89041059D01*
X155188741Y-89257095D01*
X155358479Y-89511126D01*
X155475396Y-89793390D01*
X155478544Y-89809215D01*
X155530390Y-90069861D01*
X155535000Y-90093040D01*
X155535000Y-90398560D01*
X155475396Y-90698210D01*
X155358479Y-90980474D01*
X155188741Y-91234505D01*
X154972705Y-91450541D01*
X154718674Y-91620279D01*
X154436410Y-91737196D01*
X154333832Y-91757600D01*
X154136761Y-91796800D01*
X153831239Y-91796800D01*
X153634168Y-91757600D01*
X153531590Y-91737196D01*
X153249326Y-91620279D01*
X152995295Y-91450541D01*
X152779259Y-91234505D01*
X152609521Y-90980474D01*
X152492604Y-90698210D01*
X152433000Y-90398560D01*
X152433000Y-90093040D01*
X152437611Y-90069861D01*
X152489456Y-89809215D01*
X152492604Y-89793390D01*
X152609521Y-89511126D01*
X152779259Y-89257095D01*
X152995295Y-89041059D01*
X153249326Y-88871321D01*
X153531590Y-88754404D01*
X153681415Y-88724602D01*
X153831239Y-88694800D01*
X154136761Y-88694800D01*
X154286585Y-88724602D01*
X154286585Y-88724602D01*
G37*
G36*
X91814397Y-90059651D02*
G01*
X91848052Y-90069861D01*
X91879065Y-90086438D01*
X91906251Y-90108749D01*
X91928562Y-90135935D01*
X91945139Y-90166948D01*
X91955349Y-90200603D01*
X91959400Y-90241738D01*
X91959400Y-91571462D01*
X91955349Y-91612597D01*
X91945139Y-91646252D01*
X91928562Y-91677265D01*
X91906251Y-91704451D01*
X91879065Y-91726762D01*
X91848052Y-91743339D01*
X91814397Y-91753549D01*
X91773262Y-91757600D01*
X89043538Y-91757600D01*
X89002403Y-91753549D01*
X88968748Y-91743339D01*
X88937735Y-91726762D01*
X88910549Y-91704451D01*
X88888238Y-91677265D01*
X88871661Y-91646252D01*
X88861451Y-91612597D01*
X88857400Y-91571462D01*
X88857400Y-90241738D01*
X88861451Y-90200603D01*
X88871661Y-90166948D01*
X88888238Y-90135935D01*
X88910549Y-90108749D01*
X88937735Y-90086438D01*
X88968748Y-90069861D01*
X89002403Y-90059651D01*
X89043538Y-90055600D01*
X91773262Y-90055600D01*
X91814397Y-90059651D01*
X91814397Y-90059651D01*
G37*
G36*
X96214397Y-90059651D02*
G01*
X96248052Y-90069861D01*
X96279065Y-90086438D01*
X96306251Y-90108749D01*
X96328562Y-90135935D01*
X96345139Y-90166948D01*
X96355349Y-90200603D01*
X96359400Y-90241738D01*
X96359400Y-91571462D01*
X96355349Y-91612597D01*
X96345139Y-91646252D01*
X96328562Y-91677265D01*
X96306251Y-91704451D01*
X96279065Y-91726762D01*
X96248052Y-91743339D01*
X96214397Y-91753549D01*
X96173262Y-91757600D01*
X93443538Y-91757600D01*
X93402403Y-91753549D01*
X93368748Y-91743339D01*
X93337735Y-91726762D01*
X93310549Y-91704451D01*
X93288238Y-91677265D01*
X93271661Y-91646252D01*
X93261451Y-91612597D01*
X93257400Y-91571462D01*
X93257400Y-90241738D01*
X93261451Y-90200603D01*
X93271661Y-90166948D01*
X93288238Y-90135935D01*
X93310549Y-90108749D01*
X93337735Y-90086438D01*
X93368748Y-90069861D01*
X93402403Y-90059651D01*
X93443538Y-90055600D01*
X96173262Y-90055600D01*
X96214397Y-90059651D01*
X96214397Y-90059651D01*
G37*
G36*
X99331928Y-91028264D02*
G01*
X99353009Y-91034660D01*
X99372445Y-91045048D01*
X99389476Y-91059024D01*
X99403452Y-91076055D01*
X99413840Y-91095491D01*
X99420236Y-91116572D01*
X99423000Y-91144640D01*
X99423000Y-91608360D01*
X99420236Y-91636428D01*
X99413840Y-91657509D01*
X99403452Y-91676945D01*
X99389476Y-91693976D01*
X99372445Y-91707952D01*
X99353009Y-91718340D01*
X99331928Y-91724736D01*
X99303860Y-91727500D01*
X97390140Y-91727500D01*
X97362072Y-91724736D01*
X97340991Y-91718340D01*
X97321555Y-91707952D01*
X97304524Y-91693976D01*
X97290548Y-91676945D01*
X97280160Y-91657509D01*
X97273764Y-91636428D01*
X97271000Y-91608360D01*
X97271000Y-91144640D01*
X97273764Y-91116572D01*
X97280160Y-91095491D01*
X97290548Y-91076055D01*
X97304524Y-91059024D01*
X97321555Y-91045048D01*
X97340991Y-91034660D01*
X97362072Y-91028264D01*
X97390140Y-91025500D01*
X99303860Y-91025500D01*
X99331928Y-91028264D01*
X99331928Y-91028264D01*
G37*
G36*
X108631928Y-91028264D02*
G01*
X108653009Y-91034660D01*
X108672445Y-91045048D01*
X108689476Y-91059024D01*
X108703452Y-91076055D01*
X108713840Y-91095491D01*
X108720236Y-91116572D01*
X108723000Y-91144640D01*
X108723000Y-91608360D01*
X108720236Y-91636428D01*
X108713840Y-91657509D01*
X108703452Y-91676945D01*
X108689476Y-91693976D01*
X108672445Y-91707952D01*
X108653009Y-91718340D01*
X108631928Y-91724736D01*
X108603860Y-91727500D01*
X106690140Y-91727500D01*
X106662072Y-91724736D01*
X106640991Y-91718340D01*
X106621555Y-91707952D01*
X106604524Y-91693976D01*
X106590548Y-91676945D01*
X106580160Y-91657509D01*
X106573764Y-91636428D01*
X106571000Y-91608360D01*
X106571000Y-91144640D01*
X106573764Y-91116572D01*
X106580160Y-91095491D01*
X106590548Y-91076055D01*
X106604524Y-91059024D01*
X106621555Y-91045048D01*
X106640991Y-91034660D01*
X106662072Y-91028264D01*
X106690140Y-91025500D01*
X108603860Y-91025500D01*
X108631928Y-91028264D01*
X108631928Y-91028264D01*
G37*
G36*
X171576000Y-91350400D02*
G01*
X169774000Y-91350400D01*
X169774000Y-89548400D01*
X171576000Y-89548400D01*
X171576000Y-91350400D01*
X171576000Y-91350400D01*
G37*
G36*
X168245443Y-89554919D02*
G01*
X168311627Y-89561437D01*
X168481466Y-89612957D01*
X168637991Y-89696622D01*
X168673729Y-89725952D01*
X168775186Y-89809214D01*
X168858448Y-89910671D01*
X168887778Y-89946409D01*
X168971443Y-90102934D01*
X169022963Y-90272773D01*
X169040359Y-90449400D01*
X169022963Y-90626027D01*
X168971443Y-90795866D01*
X168887778Y-90952391D01*
X168864732Y-90980472D01*
X168775186Y-91089586D01*
X168681145Y-91166762D01*
X168637991Y-91202178D01*
X168481466Y-91285843D01*
X168311627Y-91337363D01*
X168245442Y-91343882D01*
X168179260Y-91350400D01*
X168090740Y-91350400D01*
X168024558Y-91343882D01*
X167958373Y-91337363D01*
X167788534Y-91285843D01*
X167632009Y-91202178D01*
X167588855Y-91166762D01*
X167494814Y-91089586D01*
X167405268Y-90980472D01*
X167382222Y-90952391D01*
X167298557Y-90795866D01*
X167247037Y-90626027D01*
X167229641Y-90449400D01*
X167247037Y-90272773D01*
X167298557Y-90102934D01*
X167382222Y-89946409D01*
X167411552Y-89910671D01*
X167494814Y-89809214D01*
X167596271Y-89725952D01*
X167632009Y-89696622D01*
X167788534Y-89612957D01*
X167958373Y-89561437D01*
X168024557Y-89554919D01*
X168090740Y-89548400D01*
X168179260Y-89548400D01*
X168245443Y-89554919D01*
X168245443Y-89554919D01*
G37*
G36*
X168245442Y-87014918D02*
G01*
X168311627Y-87021437D01*
X168481466Y-87072957D01*
X168637991Y-87156622D01*
X168673729Y-87185952D01*
X168775186Y-87269214D01*
X168858448Y-87370671D01*
X168887778Y-87406409D01*
X168971443Y-87562934D01*
X169022963Y-87732773D01*
X169040359Y-87909400D01*
X169022963Y-88086027D01*
X168971443Y-88255866D01*
X168887778Y-88412391D01*
X168858448Y-88448129D01*
X168775186Y-88549586D01*
X168673729Y-88632848D01*
X168637991Y-88662178D01*
X168481466Y-88745843D01*
X168311627Y-88797363D01*
X168245442Y-88803882D01*
X168179260Y-88810400D01*
X168090740Y-88810400D01*
X168024558Y-88803882D01*
X167958373Y-88797363D01*
X167788534Y-88745843D01*
X167632009Y-88662178D01*
X167596271Y-88632848D01*
X167494814Y-88549586D01*
X167411552Y-88448129D01*
X167382222Y-88412391D01*
X167298557Y-88255866D01*
X167247037Y-88086027D01*
X167229641Y-87909400D01*
X167247037Y-87732773D01*
X167298557Y-87562934D01*
X167382222Y-87406409D01*
X167411552Y-87370671D01*
X167494814Y-87269214D01*
X167596271Y-87185952D01*
X167632009Y-87156622D01*
X167788534Y-87072957D01*
X167958373Y-87021437D01*
X168024558Y-87014918D01*
X168090740Y-87008400D01*
X168179260Y-87008400D01*
X168245442Y-87014918D01*
X168245442Y-87014918D01*
G37*
G36*
X170785442Y-87014918D02*
G01*
X170851627Y-87021437D01*
X171021466Y-87072957D01*
X171177991Y-87156622D01*
X171213729Y-87185952D01*
X171315186Y-87269214D01*
X171398448Y-87370671D01*
X171427778Y-87406409D01*
X171511443Y-87562934D01*
X171562963Y-87732773D01*
X171580359Y-87909400D01*
X171562963Y-88086027D01*
X171511443Y-88255866D01*
X171427778Y-88412391D01*
X171398448Y-88448129D01*
X171315186Y-88549586D01*
X171213729Y-88632848D01*
X171177991Y-88662178D01*
X171021466Y-88745843D01*
X170851627Y-88797363D01*
X170785442Y-88803882D01*
X170719260Y-88810400D01*
X170630740Y-88810400D01*
X170564558Y-88803882D01*
X170498373Y-88797363D01*
X170328534Y-88745843D01*
X170172009Y-88662178D01*
X170136271Y-88632848D01*
X170034814Y-88549586D01*
X169951552Y-88448129D01*
X169922222Y-88412391D01*
X169838557Y-88255866D01*
X169787037Y-88086027D01*
X169769641Y-87909400D01*
X169787037Y-87732773D01*
X169838557Y-87562934D01*
X169922222Y-87406409D01*
X169951552Y-87370671D01*
X170034814Y-87269214D01*
X170136271Y-87185952D01*
X170172009Y-87156622D01*
X170328534Y-87072957D01*
X170498373Y-87021437D01*
X170564558Y-87014918D01*
X170630740Y-87008400D01*
X170719260Y-87008400D01*
X170785442Y-87014918D01*
X170785442Y-87014918D01*
G37*
G36*
X98086900Y-87711000D02*
G01*
X95384900Y-87711000D01*
X95384900Y-85009000D01*
X98086900Y-85009000D01*
X98086900Y-87711000D01*
X98086900Y-87711000D01*
G37*
G36*
X168245443Y-84474919D02*
G01*
X168311627Y-84481437D01*
X168481466Y-84532957D01*
X168637991Y-84616622D01*
X168673729Y-84645952D01*
X168775186Y-84729214D01*
X168858448Y-84830671D01*
X168887778Y-84866409D01*
X168971443Y-85022934D01*
X169022963Y-85192773D01*
X169040359Y-85369400D01*
X169022963Y-85546027D01*
X168971443Y-85715866D01*
X168887778Y-85872391D01*
X168858448Y-85908129D01*
X168775186Y-86009586D01*
X168673729Y-86092848D01*
X168637991Y-86122178D01*
X168481466Y-86205843D01*
X168311627Y-86257363D01*
X168245443Y-86263881D01*
X168179260Y-86270400D01*
X168090740Y-86270400D01*
X168024557Y-86263881D01*
X167958373Y-86257363D01*
X167788534Y-86205843D01*
X167632009Y-86122178D01*
X167596271Y-86092848D01*
X167494814Y-86009586D01*
X167411552Y-85908129D01*
X167382222Y-85872391D01*
X167298557Y-85715866D01*
X167247037Y-85546027D01*
X167229641Y-85369400D01*
X167247037Y-85192773D01*
X167298557Y-85022934D01*
X167382222Y-84866409D01*
X167411552Y-84830671D01*
X167494814Y-84729214D01*
X167596271Y-84645952D01*
X167632009Y-84616622D01*
X167788534Y-84532957D01*
X167958373Y-84481437D01*
X168024557Y-84474919D01*
X168090740Y-84468400D01*
X168179260Y-84468400D01*
X168245443Y-84474919D01*
X168245443Y-84474919D01*
G37*
G36*
X170785443Y-84474919D02*
G01*
X170851627Y-84481437D01*
X171021466Y-84532957D01*
X171177991Y-84616622D01*
X171213729Y-84645952D01*
X171315186Y-84729214D01*
X171398448Y-84830671D01*
X171427778Y-84866409D01*
X171511443Y-85022934D01*
X171562963Y-85192773D01*
X171580359Y-85369400D01*
X171562963Y-85546027D01*
X171511443Y-85715866D01*
X171427778Y-85872391D01*
X171398448Y-85908129D01*
X171315186Y-86009586D01*
X171213729Y-86092848D01*
X171177991Y-86122178D01*
X171021466Y-86205843D01*
X170851627Y-86257363D01*
X170785443Y-86263881D01*
X170719260Y-86270400D01*
X170630740Y-86270400D01*
X170564557Y-86263881D01*
X170498373Y-86257363D01*
X170328534Y-86205843D01*
X170172009Y-86122178D01*
X170136271Y-86092848D01*
X170034814Y-86009586D01*
X169951552Y-85908129D01*
X169922222Y-85872391D01*
X169838557Y-85715866D01*
X169787037Y-85546027D01*
X169769641Y-85369400D01*
X169787037Y-85192773D01*
X169838557Y-85022934D01*
X169922222Y-84866409D01*
X169951552Y-84830671D01*
X170034814Y-84729214D01*
X170136271Y-84645952D01*
X170172009Y-84616622D01*
X170328534Y-84532957D01*
X170498373Y-84481437D01*
X170564557Y-84474919D01*
X170630740Y-84468400D01*
X170719260Y-84468400D01*
X170785443Y-84474919D01*
X170785443Y-84474919D01*
G37*
G36*
X112927997Y-83633451D02*
G01*
X112961652Y-83643661D01*
X112992665Y-83660238D01*
X113019851Y-83682549D01*
X113042162Y-83709735D01*
X113058739Y-83740748D01*
X113068949Y-83774403D01*
X113073000Y-83815538D01*
X113073000Y-85145262D01*
X113068949Y-85186397D01*
X113058739Y-85220052D01*
X113042162Y-85251065D01*
X113019851Y-85278251D01*
X112992665Y-85300562D01*
X112961652Y-85317139D01*
X112927997Y-85327349D01*
X112886862Y-85331400D01*
X110157138Y-85331400D01*
X110116003Y-85327349D01*
X110082348Y-85317139D01*
X110051335Y-85300562D01*
X110024149Y-85278251D01*
X110001838Y-85251065D01*
X109985261Y-85220052D01*
X109975051Y-85186397D01*
X109971000Y-85145262D01*
X109971000Y-83815538D01*
X109975051Y-83774403D01*
X109985261Y-83740748D01*
X110001838Y-83709735D01*
X110024149Y-83682549D01*
X110051335Y-83660238D01*
X110082348Y-83643661D01*
X110116003Y-83633451D01*
X110157138Y-83629400D01*
X112886862Y-83629400D01*
X112927997Y-83633451D01*
X112927997Y-83633451D01*
G37*
G36*
X108527997Y-83633451D02*
G01*
X108561652Y-83643661D01*
X108592665Y-83660238D01*
X108619851Y-83682549D01*
X108642162Y-83709735D01*
X108658739Y-83740748D01*
X108668949Y-83774403D01*
X108673000Y-83815538D01*
X108673000Y-85145262D01*
X108668949Y-85186397D01*
X108658739Y-85220052D01*
X108642162Y-85251065D01*
X108619851Y-85278251D01*
X108592665Y-85300562D01*
X108561652Y-85317139D01*
X108527997Y-85327349D01*
X108486862Y-85331400D01*
X105757138Y-85331400D01*
X105716003Y-85327349D01*
X105682348Y-85317139D01*
X105651335Y-85300562D01*
X105624149Y-85278251D01*
X105601838Y-85251065D01*
X105585261Y-85220052D01*
X105575051Y-85186397D01*
X105571000Y-85145262D01*
X105571000Y-83815538D01*
X105575051Y-83774403D01*
X105585261Y-83740748D01*
X105601838Y-83709735D01*
X105624149Y-83682549D01*
X105651335Y-83660238D01*
X105682348Y-83643661D01*
X105716003Y-83633451D01*
X105757138Y-83629400D01*
X108486862Y-83629400D01*
X108527997Y-83633451D01*
X108527997Y-83633451D01*
G37*
G36*
X117366997Y-83633451D02*
G01*
X117400652Y-83643661D01*
X117431665Y-83660238D01*
X117458851Y-83682549D01*
X117481162Y-83709735D01*
X117497739Y-83740748D01*
X117507949Y-83774403D01*
X117512000Y-83815538D01*
X117512000Y-85145262D01*
X117507949Y-85186397D01*
X117497739Y-85220052D01*
X117481162Y-85251065D01*
X117458851Y-85278251D01*
X117431665Y-85300562D01*
X117400652Y-85317139D01*
X117366997Y-85327349D01*
X117325862Y-85331400D01*
X114596138Y-85331400D01*
X114555003Y-85327349D01*
X114521348Y-85317139D01*
X114490335Y-85300562D01*
X114463149Y-85278251D01*
X114440838Y-85251065D01*
X114424261Y-85220052D01*
X114414051Y-85186397D01*
X114410000Y-85145262D01*
X114410000Y-83815538D01*
X114414051Y-83774403D01*
X114424261Y-83740748D01*
X114440838Y-83709735D01*
X114463149Y-83682549D01*
X114490335Y-83660238D01*
X114521348Y-83643661D01*
X114555003Y-83633451D01*
X114596138Y-83629400D01*
X117325862Y-83629400D01*
X117366997Y-83633451D01*
X117366997Y-83633451D01*
G37*
G36*
X131316997Y-83633451D02*
G01*
X131350652Y-83643661D01*
X131381665Y-83660238D01*
X131408851Y-83682549D01*
X131431162Y-83709735D01*
X131447739Y-83740748D01*
X131457949Y-83774403D01*
X131462000Y-83815538D01*
X131462000Y-85145262D01*
X131457949Y-85186397D01*
X131447739Y-85220052D01*
X131431162Y-85251065D01*
X131408851Y-85278251D01*
X131381665Y-85300562D01*
X131350652Y-85317139D01*
X131316997Y-85327349D01*
X131275862Y-85331400D01*
X128546138Y-85331400D01*
X128505003Y-85327349D01*
X128471348Y-85317139D01*
X128440335Y-85300562D01*
X128413149Y-85278251D01*
X128390838Y-85251065D01*
X128374261Y-85220052D01*
X128364051Y-85186397D01*
X128360000Y-85145262D01*
X128360000Y-83815538D01*
X128364051Y-83774403D01*
X128374261Y-83740748D01*
X128390838Y-83709735D01*
X128413149Y-83682549D01*
X128440335Y-83660238D01*
X128471348Y-83643661D01*
X128505003Y-83633451D01*
X128546138Y-83629400D01*
X131275862Y-83629400D01*
X131316997Y-83633451D01*
X131316997Y-83633451D01*
G37*
G36*
X121766997Y-83633451D02*
G01*
X121800652Y-83643661D01*
X121831665Y-83660238D01*
X121858851Y-83682549D01*
X121881162Y-83709735D01*
X121897739Y-83740748D01*
X121907949Y-83774403D01*
X121912000Y-83815538D01*
X121912000Y-85145262D01*
X121907949Y-85186397D01*
X121897739Y-85220052D01*
X121881162Y-85251065D01*
X121858851Y-85278251D01*
X121831665Y-85300562D01*
X121800652Y-85317139D01*
X121766997Y-85327349D01*
X121725862Y-85331400D01*
X118996138Y-85331400D01*
X118955003Y-85327349D01*
X118921348Y-85317139D01*
X118890335Y-85300562D01*
X118863149Y-85278251D01*
X118840838Y-85251065D01*
X118824261Y-85220052D01*
X118814051Y-85186397D01*
X118810000Y-85145262D01*
X118810000Y-83815538D01*
X118814051Y-83774403D01*
X118824261Y-83740748D01*
X118840838Y-83709735D01*
X118863149Y-83682549D01*
X118890335Y-83660238D01*
X118921348Y-83643661D01*
X118955003Y-83633451D01*
X118996138Y-83629400D01*
X121725862Y-83629400D01*
X121766997Y-83633451D01*
X121766997Y-83633451D01*
G37*
G36*
X126916997Y-83633451D02*
G01*
X126950652Y-83643661D01*
X126981665Y-83660238D01*
X127008851Y-83682549D01*
X127031162Y-83709735D01*
X127047739Y-83740748D01*
X127057949Y-83774403D01*
X127062000Y-83815538D01*
X127062000Y-85145262D01*
X127057949Y-85186397D01*
X127047739Y-85220052D01*
X127031162Y-85251065D01*
X127008851Y-85278251D01*
X126981665Y-85300562D01*
X126950652Y-85317139D01*
X126916997Y-85327349D01*
X126875862Y-85331400D01*
X124146138Y-85331400D01*
X124105003Y-85327349D01*
X124071348Y-85317139D01*
X124040335Y-85300562D01*
X124013149Y-85278251D01*
X123990838Y-85251065D01*
X123974261Y-85220052D01*
X123964051Y-85186397D01*
X123960000Y-85145262D01*
X123960000Y-83815538D01*
X123964051Y-83774403D01*
X123974261Y-83740748D01*
X123990838Y-83709735D01*
X124013149Y-83682549D01*
X124040335Y-83660238D01*
X124071348Y-83643661D01*
X124105003Y-83633451D01*
X124146138Y-83629400D01*
X126875862Y-83629400D01*
X126916997Y-83633451D01*
X126916997Y-83633451D01*
G37*
G36*
X152160564Y-82885189D02*
G01*
X152351833Y-82964415D01*
X152351835Y-82964416D01*
X152414107Y-83006025D01*
X152523973Y-83079435D01*
X152670365Y-83225827D01*
X152785385Y-83397967D01*
X152864611Y-83589236D01*
X152905000Y-83792284D01*
X152905000Y-83999316D01*
X152864611Y-84202364D01*
X152785385Y-84393633D01*
X152785384Y-84393635D01*
X152670365Y-84565773D01*
X152523973Y-84712165D01*
X152351835Y-84827184D01*
X152351834Y-84827185D01*
X152351833Y-84827185D01*
X152160564Y-84906411D01*
X151957516Y-84946800D01*
X151750484Y-84946800D01*
X151547436Y-84906411D01*
X151356167Y-84827185D01*
X151356166Y-84827185D01*
X151356165Y-84827184D01*
X151184027Y-84712165D01*
X151037635Y-84565773D01*
X150922616Y-84393635D01*
X150922615Y-84393633D01*
X150843389Y-84202364D01*
X150803000Y-83999316D01*
X150803000Y-83792284D01*
X150843389Y-83589236D01*
X150922615Y-83397967D01*
X151037635Y-83225827D01*
X151184027Y-83079435D01*
X151293893Y-83006025D01*
X151356165Y-82964416D01*
X151356167Y-82964415D01*
X151547436Y-82885189D01*
X151750484Y-82844800D01*
X151957516Y-82844800D01*
X152160564Y-82885189D01*
X152160564Y-82885189D01*
G37*
G36*
X135028564Y-82885189D02*
G01*
X135219833Y-82964415D01*
X135219835Y-82964416D01*
X135282107Y-83006025D01*
X135391973Y-83079435D01*
X135538365Y-83225827D01*
X135653385Y-83397967D01*
X135732611Y-83589236D01*
X135773000Y-83792284D01*
X135773000Y-83999316D01*
X135732611Y-84202364D01*
X135653385Y-84393633D01*
X135653384Y-84393635D01*
X135538365Y-84565773D01*
X135391973Y-84712165D01*
X135219835Y-84827184D01*
X135219834Y-84827185D01*
X135219833Y-84827185D01*
X135028564Y-84906411D01*
X134825516Y-84946800D01*
X134618484Y-84946800D01*
X134415436Y-84906411D01*
X134224167Y-84827185D01*
X134224166Y-84827185D01*
X134224165Y-84827184D01*
X134052027Y-84712165D01*
X133905635Y-84565773D01*
X133790616Y-84393635D01*
X133790615Y-84393633D01*
X133711389Y-84202364D01*
X133671000Y-83999316D01*
X133671000Y-83792284D01*
X133711389Y-83589236D01*
X133790615Y-83397967D01*
X133905635Y-83225827D01*
X134052027Y-83079435D01*
X134161893Y-83006025D01*
X134224165Y-82964416D01*
X134224167Y-82964415D01*
X134415436Y-82885189D01*
X134618484Y-82844800D01*
X134825516Y-82844800D01*
X135028564Y-82885189D01*
X135028564Y-82885189D01*
G37*
G36*
X163590564Y-82885189D02*
G01*
X163781833Y-82964415D01*
X163781835Y-82964416D01*
X163844107Y-83006025D01*
X163953973Y-83079435D01*
X164100365Y-83225827D01*
X164215385Y-83397967D01*
X164294611Y-83589236D01*
X164335000Y-83792284D01*
X164335000Y-83999316D01*
X164294611Y-84202364D01*
X164215385Y-84393633D01*
X164215384Y-84393635D01*
X164100365Y-84565773D01*
X163953973Y-84712165D01*
X163781835Y-84827184D01*
X163781834Y-84827185D01*
X163781833Y-84827185D01*
X163590564Y-84906411D01*
X163387516Y-84946800D01*
X163180484Y-84946800D01*
X162977436Y-84906411D01*
X162786167Y-84827185D01*
X162786166Y-84827185D01*
X162786165Y-84827184D01*
X162614027Y-84712165D01*
X162467635Y-84565773D01*
X162352616Y-84393635D01*
X162352615Y-84393633D01*
X162273389Y-84202364D01*
X162233000Y-83999316D01*
X162233000Y-83792284D01*
X162273389Y-83589236D01*
X162352615Y-83397967D01*
X162467635Y-83225827D01*
X162614027Y-83079435D01*
X162723893Y-83006025D01*
X162786165Y-82964416D01*
X162786167Y-82964415D01*
X162977436Y-82885189D01*
X163180484Y-82844800D01*
X163387516Y-82844800D01*
X163590564Y-82885189D01*
X163590564Y-82885189D01*
G37*
G36*
X146458564Y-82885189D02*
G01*
X146649833Y-82964415D01*
X146649835Y-82964416D01*
X146712107Y-83006025D01*
X146821973Y-83079435D01*
X146968365Y-83225827D01*
X147083385Y-83397967D01*
X147162611Y-83589236D01*
X147203000Y-83792284D01*
X147203000Y-83999316D01*
X147162611Y-84202364D01*
X147083385Y-84393633D01*
X147083384Y-84393635D01*
X146968365Y-84565773D01*
X146821973Y-84712165D01*
X146649835Y-84827184D01*
X146649834Y-84827185D01*
X146649833Y-84827185D01*
X146458564Y-84906411D01*
X146255516Y-84946800D01*
X146048484Y-84946800D01*
X145845436Y-84906411D01*
X145654167Y-84827185D01*
X145654166Y-84827185D01*
X145654165Y-84827184D01*
X145482027Y-84712165D01*
X145335635Y-84565773D01*
X145220616Y-84393635D01*
X145220615Y-84393633D01*
X145141389Y-84202364D01*
X145101000Y-83999316D01*
X145101000Y-83792284D01*
X145141389Y-83589236D01*
X145220615Y-83397967D01*
X145335635Y-83225827D01*
X145482027Y-83079435D01*
X145591893Y-83006025D01*
X145654165Y-82964416D01*
X145654167Y-82964415D01*
X145845436Y-82885189D01*
X146048484Y-82844800D01*
X146255516Y-82844800D01*
X146458564Y-82885189D01*
X146458564Y-82885189D01*
G37*
G36*
X92429972Y-82060918D02*
G01*
X92675839Y-82162759D01*
X92897112Y-82310610D01*
X93085290Y-82498788D01*
X93188182Y-82652775D01*
X93233142Y-82720063D01*
X93334982Y-82965928D01*
X93386900Y-83226937D01*
X93386900Y-83493063D01*
X93334982Y-83754072D01*
X93233142Y-83999937D01*
X93097884Y-84202365D01*
X93085290Y-84221212D01*
X92897112Y-84409390D01*
X92675839Y-84557241D01*
X92675838Y-84557242D01*
X92675837Y-84557242D01*
X92429972Y-84659082D01*
X92168963Y-84711000D01*
X91902837Y-84711000D01*
X91641828Y-84659082D01*
X91395963Y-84557242D01*
X91395962Y-84557242D01*
X91395961Y-84557241D01*
X91174688Y-84409390D01*
X90986510Y-84221212D01*
X90973917Y-84202365D01*
X90838658Y-83999937D01*
X90736818Y-83754072D01*
X90684900Y-83493063D01*
X90684900Y-83226937D01*
X90736818Y-82965928D01*
X90838658Y-82720063D01*
X90883619Y-82652775D01*
X90986510Y-82498788D01*
X91174688Y-82310610D01*
X91395961Y-82162759D01*
X91641828Y-82060918D01*
X91902837Y-82009000D01*
X92168963Y-82009000D01*
X92429972Y-82060918D01*
X92429972Y-82060918D01*
G37*
G36*
X168245442Y-81934918D02*
G01*
X168311627Y-81941437D01*
X168481466Y-81992957D01*
X168637991Y-82076622D01*
X168673729Y-82105952D01*
X168775186Y-82189214D01*
X168858448Y-82290671D01*
X168887778Y-82326409D01*
X168971443Y-82482934D01*
X169022963Y-82652773D01*
X169040359Y-82829400D01*
X169022963Y-83006027D01*
X168971443Y-83175866D01*
X168887778Y-83332391D01*
X168858448Y-83368129D01*
X168775186Y-83469586D01*
X168673729Y-83552848D01*
X168637991Y-83582178D01*
X168559729Y-83624010D01*
X168540086Y-83634510D01*
X168481466Y-83665843D01*
X168311627Y-83717363D01*
X168245443Y-83723881D01*
X168179260Y-83730400D01*
X168090740Y-83730400D01*
X168024557Y-83723881D01*
X167958373Y-83717363D01*
X167788534Y-83665843D01*
X167729915Y-83634510D01*
X167710272Y-83624011D01*
X167632009Y-83582178D01*
X167596271Y-83552848D01*
X167494814Y-83469586D01*
X167411552Y-83368129D01*
X167382222Y-83332391D01*
X167298557Y-83175866D01*
X167247037Y-83006027D01*
X167229641Y-82829400D01*
X167247037Y-82652773D01*
X167298557Y-82482934D01*
X167382222Y-82326409D01*
X167411552Y-82290671D01*
X167494814Y-82189214D01*
X167596271Y-82105952D01*
X167632009Y-82076622D01*
X167788534Y-81992957D01*
X167958373Y-81941437D01*
X168024558Y-81934918D01*
X168090740Y-81928400D01*
X168179260Y-81928400D01*
X168245442Y-81934918D01*
X168245442Y-81934918D01*
G37*
G36*
X170785442Y-81934918D02*
G01*
X170851627Y-81941437D01*
X171021466Y-81992957D01*
X171177991Y-82076622D01*
X171213729Y-82105952D01*
X171315186Y-82189214D01*
X171398448Y-82290671D01*
X171427778Y-82326409D01*
X171511443Y-82482934D01*
X171562963Y-82652773D01*
X171580359Y-82829400D01*
X171562963Y-83006027D01*
X171511443Y-83175866D01*
X171427778Y-83332391D01*
X171398448Y-83368129D01*
X171315186Y-83469586D01*
X171213729Y-83552848D01*
X171177991Y-83582178D01*
X171099729Y-83624010D01*
X171080086Y-83634510D01*
X171021466Y-83665843D01*
X170851627Y-83717363D01*
X170785443Y-83723881D01*
X170719260Y-83730400D01*
X170630740Y-83730400D01*
X170564557Y-83723881D01*
X170498373Y-83717363D01*
X170328534Y-83665843D01*
X170269915Y-83634510D01*
X170250272Y-83624011D01*
X170172009Y-83582178D01*
X170136271Y-83552848D01*
X170034814Y-83469586D01*
X169951552Y-83368129D01*
X169922222Y-83332391D01*
X169838557Y-83175866D01*
X169787037Y-83006027D01*
X169769641Y-82829400D01*
X169787037Y-82652773D01*
X169838557Y-82482934D01*
X169922222Y-82326409D01*
X169951552Y-82290671D01*
X170034814Y-82189214D01*
X170136271Y-82105952D01*
X170172009Y-82076622D01*
X170328534Y-81992957D01*
X170498373Y-81941437D01*
X170564558Y-81934918D01*
X170630740Y-81928400D01*
X170719260Y-81928400D01*
X170785442Y-81934918D01*
X170785442Y-81934918D01*
G37*
G36*
X135024585Y-79174602D02*
G01*
X135174410Y-79204404D01*
X135456674Y-79321321D01*
X135710705Y-79491059D01*
X135926741Y-79707095D01*
X136096479Y-79961126D01*
X136213396Y-80243390D01*
X136273000Y-80543040D01*
X136273000Y-80848560D01*
X136213396Y-81148210D01*
X136096479Y-81430474D01*
X135926741Y-81684505D01*
X135710705Y-81900541D01*
X135456674Y-82070279D01*
X135174410Y-82187196D01*
X135024585Y-82216998D01*
X134874761Y-82246800D01*
X134569239Y-82246800D01*
X134419415Y-82216998D01*
X134269590Y-82187196D01*
X133987326Y-82070279D01*
X133733295Y-81900541D01*
X133517259Y-81684505D01*
X133347521Y-81430474D01*
X133230604Y-81148210D01*
X133171000Y-80848560D01*
X133171000Y-80543040D01*
X133230604Y-80243390D01*
X133347521Y-79961126D01*
X133517259Y-79707095D01*
X133733295Y-79491059D01*
X133987326Y-79321321D01*
X134269590Y-79204404D01*
X134419415Y-79174602D01*
X134569239Y-79144800D01*
X134874761Y-79144800D01*
X135024585Y-79174602D01*
X135024585Y-79174602D01*
G37*
G36*
X146454585Y-79174602D02*
G01*
X146604410Y-79204404D01*
X146886674Y-79321321D01*
X147140705Y-79491059D01*
X147356741Y-79707095D01*
X147526479Y-79961126D01*
X147643396Y-80243390D01*
X147703000Y-80543040D01*
X147703000Y-80848560D01*
X147643396Y-81148210D01*
X147526479Y-81430474D01*
X147356741Y-81684505D01*
X147140705Y-81900541D01*
X146886674Y-82070279D01*
X146604410Y-82187196D01*
X146454585Y-82216998D01*
X146304761Y-82246800D01*
X145999239Y-82246800D01*
X145849415Y-82216998D01*
X145699590Y-82187196D01*
X145417326Y-82070279D01*
X145163295Y-81900541D01*
X144947259Y-81684505D01*
X144777521Y-81430474D01*
X144660604Y-81148210D01*
X144601000Y-80848560D01*
X144601000Y-80543040D01*
X144660604Y-80243390D01*
X144777521Y-79961126D01*
X144947259Y-79707095D01*
X145163295Y-79491059D01*
X145417326Y-79321321D01*
X145699590Y-79204404D01*
X145849415Y-79174602D01*
X145999239Y-79144800D01*
X146304761Y-79144800D01*
X146454585Y-79174602D01*
X146454585Y-79174602D01*
G37*
G36*
X163586585Y-79174602D02*
G01*
X163736410Y-79204404D01*
X164018674Y-79321321D01*
X164272705Y-79491059D01*
X164488741Y-79707095D01*
X164658479Y-79961126D01*
X164775396Y-80243390D01*
X164835000Y-80543040D01*
X164835000Y-80848560D01*
X164775396Y-81148210D01*
X164658479Y-81430474D01*
X164488741Y-81684505D01*
X164272705Y-81900541D01*
X164018674Y-82070279D01*
X163736410Y-82187196D01*
X163586585Y-82216998D01*
X163436761Y-82246800D01*
X163131239Y-82246800D01*
X162981415Y-82216998D01*
X162831590Y-82187196D01*
X162549326Y-82070279D01*
X162295295Y-81900541D01*
X162079259Y-81684505D01*
X161909521Y-81430474D01*
X161792604Y-81148210D01*
X161733000Y-80848560D01*
X161733000Y-80543040D01*
X161792604Y-80243390D01*
X161909521Y-79961126D01*
X162079259Y-79707095D01*
X162295295Y-79491059D01*
X162549326Y-79321321D01*
X162831590Y-79204404D01*
X162981415Y-79174602D01*
X163131239Y-79144800D01*
X163436761Y-79144800D01*
X163586585Y-79174602D01*
X163586585Y-79174602D01*
G37*
G36*
X152156585Y-79174602D02*
G01*
X152306410Y-79204404D01*
X152588674Y-79321321D01*
X152842705Y-79491059D01*
X153058741Y-79707095D01*
X153228479Y-79961126D01*
X153345396Y-80243390D01*
X153405000Y-80543040D01*
X153405000Y-80848560D01*
X153345396Y-81148210D01*
X153228479Y-81430474D01*
X153058741Y-81684505D01*
X152842705Y-81900541D01*
X152588674Y-82070279D01*
X152306410Y-82187196D01*
X152156585Y-82216998D01*
X152006761Y-82246800D01*
X151701239Y-82246800D01*
X151551415Y-82216998D01*
X151401590Y-82187196D01*
X151119326Y-82070279D01*
X150865295Y-81900541D01*
X150649259Y-81684505D01*
X150479521Y-81430474D01*
X150362604Y-81148210D01*
X150303000Y-80848560D01*
X150303000Y-80543040D01*
X150362604Y-80243390D01*
X150479521Y-79961126D01*
X150649259Y-79707095D01*
X150865295Y-79491059D01*
X151119326Y-79321321D01*
X151401590Y-79204404D01*
X151551415Y-79174602D01*
X151701239Y-79144800D01*
X152006761Y-79144800D01*
X152156585Y-79174602D01*
X152156585Y-79174602D01*
G37*
G36*
X97129972Y-79060918D02*
G01*
X97375839Y-79162759D01*
X97487228Y-79237187D01*
X97597111Y-79310609D01*
X97785291Y-79498789D01*
X97933142Y-79720063D01*
X98034982Y-79965928D01*
X98086900Y-80226937D01*
X98086900Y-80493063D01*
X98034982Y-80754072D01*
X97933142Y-80999937D01*
X97834070Y-81148209D01*
X97785290Y-81221212D01*
X97597112Y-81409390D01*
X97375839Y-81557241D01*
X97375838Y-81557242D01*
X97375837Y-81557242D01*
X97129972Y-81659082D01*
X96868963Y-81711000D01*
X96602837Y-81711000D01*
X96341828Y-81659082D01*
X96095963Y-81557242D01*
X96095962Y-81557242D01*
X96095961Y-81557241D01*
X95874688Y-81409390D01*
X95686510Y-81221212D01*
X95637731Y-81148209D01*
X95538658Y-80999937D01*
X95436818Y-80754072D01*
X95384900Y-80493063D01*
X95384900Y-80226937D01*
X95436818Y-79965928D01*
X95538658Y-79720063D01*
X95686509Y-79498789D01*
X95874689Y-79310609D01*
X95984572Y-79237187D01*
X96095961Y-79162759D01*
X96341828Y-79060918D01*
X96602837Y-79009000D01*
X96868963Y-79009000D01*
X97129972Y-79060918D01*
X97129972Y-79060918D01*
G37*
G36*
X169542585Y-75834502D02*
G01*
X169692410Y-75864304D01*
X169974674Y-75981221D01*
X170228705Y-76150959D01*
X170444741Y-76366995D01*
X170614479Y-76621026D01*
X170731396Y-76903290D01*
X170761198Y-77053115D01*
X170785948Y-77177539D01*
X170791000Y-77202940D01*
X170791000Y-77508460D01*
X170731396Y-77808110D01*
X170614479Y-78090374D01*
X170444741Y-78344405D01*
X170228705Y-78560441D01*
X169974674Y-78730179D01*
X169692410Y-78847096D01*
X169542585Y-78876898D01*
X169392761Y-78906700D01*
X169087239Y-78906700D01*
X168937415Y-78876898D01*
X168787590Y-78847096D01*
X168505326Y-78730179D01*
X168251295Y-78560441D01*
X168035259Y-78344405D01*
X167865521Y-78090374D01*
X167748604Y-77808110D01*
X167689000Y-77508460D01*
X167689000Y-77202940D01*
X167694053Y-77177539D01*
X167718802Y-77053115D01*
X167748604Y-76903290D01*
X167865521Y-76621026D01*
X168035259Y-76366995D01*
X168251295Y-76150959D01*
X168505326Y-75981221D01*
X168787590Y-75864304D01*
X168937415Y-75834502D01*
X169087239Y-75804700D01*
X169392761Y-75804700D01*
X169542585Y-75834502D01*
X169542585Y-75834502D01*
G37*
G36*
X87275455Y-75804700D02*
G01*
X87447410Y-75838904D01*
X87729674Y-75955821D01*
X87983705Y-76125559D01*
X88199741Y-76341595D01*
X88369479Y-76595626D01*
X88486396Y-76877890D01*
X88494204Y-76917144D01*
X88546000Y-77177539D01*
X88546000Y-77483061D01*
X88537460Y-77525992D01*
X88486396Y-77782710D01*
X88369479Y-78064974D01*
X88199741Y-78319005D01*
X87983705Y-78535041D01*
X87729674Y-78704779D01*
X87447410Y-78821696D01*
X87319715Y-78847096D01*
X87147761Y-78881300D01*
X86842239Y-78881300D01*
X86670285Y-78847096D01*
X86542590Y-78821696D01*
X86260326Y-78704779D01*
X86006295Y-78535041D01*
X85790259Y-78319005D01*
X85620521Y-78064974D01*
X85503604Y-77782710D01*
X85452540Y-77525992D01*
X85444000Y-77483061D01*
X85444000Y-77177539D01*
X85495796Y-76917144D01*
X85503604Y-76877890D01*
X85620521Y-76595626D01*
X85790259Y-76341595D01*
X86006295Y-76125559D01*
X86260326Y-75955821D01*
X86542590Y-75838904D01*
X86714545Y-75804700D01*
X86842239Y-75779300D01*
X87147761Y-75779300D01*
X87275455Y-75804700D01*
X87275455Y-75804700D01*
G37*
G36*
X126688997Y-76953251D02*
G01*
X126722652Y-76963461D01*
X126753665Y-76980038D01*
X126780851Y-77002349D01*
X126803162Y-77029535D01*
X126819739Y-77060548D01*
X126829949Y-77094203D01*
X126834000Y-77135338D01*
X126834000Y-78465062D01*
X126829949Y-78506197D01*
X126819739Y-78539852D01*
X126803162Y-78570865D01*
X126780851Y-78598051D01*
X126753665Y-78620362D01*
X126722652Y-78636939D01*
X126688997Y-78647149D01*
X126647862Y-78651200D01*
X123918138Y-78651200D01*
X123877003Y-78647149D01*
X123843348Y-78636939D01*
X123812335Y-78620362D01*
X123785149Y-78598051D01*
X123762838Y-78570865D01*
X123746261Y-78539852D01*
X123736051Y-78506197D01*
X123732000Y-78465062D01*
X123732000Y-77135338D01*
X123736051Y-77094203D01*
X123746261Y-77060548D01*
X123762838Y-77029535D01*
X123785149Y-77002349D01*
X123812335Y-76980038D01*
X123843348Y-76963461D01*
X123877003Y-76953251D01*
X123918138Y-76949200D01*
X126647862Y-76949200D01*
X126688997Y-76953251D01*
X126688997Y-76953251D01*
G37*
G36*
X131088997Y-76953251D02*
G01*
X131122652Y-76963461D01*
X131153665Y-76980038D01*
X131180851Y-77002349D01*
X131203162Y-77029535D01*
X131219739Y-77060548D01*
X131229949Y-77094203D01*
X131234000Y-77135338D01*
X131234000Y-78465062D01*
X131229949Y-78506197D01*
X131219739Y-78539852D01*
X131203162Y-78570865D01*
X131180851Y-78598051D01*
X131153665Y-78620362D01*
X131122652Y-78636939D01*
X131088997Y-78647149D01*
X131047862Y-78651200D01*
X128318138Y-78651200D01*
X128277003Y-78647149D01*
X128243348Y-78636939D01*
X128212335Y-78620362D01*
X128185149Y-78598051D01*
X128162838Y-78570865D01*
X128146261Y-78539852D01*
X128136051Y-78506197D01*
X128132000Y-78465062D01*
X128132000Y-77135338D01*
X128136051Y-77094203D01*
X128146261Y-77060548D01*
X128162838Y-77029535D01*
X128185149Y-77002349D01*
X128212335Y-76980038D01*
X128243348Y-76963461D01*
X128277003Y-76953251D01*
X128318138Y-76949200D01*
X131047862Y-76949200D01*
X131088997Y-76953251D01*
X131088997Y-76953251D01*
G37*
G36*
X122706997Y-76953251D02*
G01*
X122740652Y-76963461D01*
X122771665Y-76980038D01*
X122798851Y-77002349D01*
X122821162Y-77029535D01*
X122837739Y-77060548D01*
X122847949Y-77094203D01*
X122852000Y-77135338D01*
X122852000Y-78465062D01*
X122847949Y-78506197D01*
X122837739Y-78539852D01*
X122821162Y-78570865D01*
X122798851Y-78598051D01*
X122771665Y-78620362D01*
X122740652Y-78636939D01*
X122706997Y-78647149D01*
X122665862Y-78651200D01*
X119936138Y-78651200D01*
X119895003Y-78647149D01*
X119861348Y-78636939D01*
X119830335Y-78620362D01*
X119803149Y-78598051D01*
X119780838Y-78570865D01*
X119764261Y-78539852D01*
X119754051Y-78506197D01*
X119750000Y-78465062D01*
X119750000Y-77135338D01*
X119754051Y-77094203D01*
X119764261Y-77060548D01*
X119780838Y-77029535D01*
X119803149Y-77002349D01*
X119830335Y-76980038D01*
X119861348Y-76963461D01*
X119895003Y-76953251D01*
X119936138Y-76949200D01*
X122665862Y-76949200D01*
X122706997Y-76953251D01*
X122706997Y-76953251D01*
G37*
G36*
X118306997Y-76953251D02*
G01*
X118340652Y-76963461D01*
X118371665Y-76980038D01*
X118398851Y-77002349D01*
X118421162Y-77029535D01*
X118437739Y-77060548D01*
X118447949Y-77094203D01*
X118452000Y-77135338D01*
X118452000Y-78465062D01*
X118447949Y-78506197D01*
X118437739Y-78539852D01*
X118421162Y-78570865D01*
X118398851Y-78598051D01*
X118371665Y-78620362D01*
X118340652Y-78636939D01*
X118306997Y-78647149D01*
X118265862Y-78651200D01*
X115536138Y-78651200D01*
X115495003Y-78647149D01*
X115461348Y-78636939D01*
X115430335Y-78620362D01*
X115403149Y-78598051D01*
X115380838Y-78570865D01*
X115364261Y-78539852D01*
X115354051Y-78506197D01*
X115350000Y-78465062D01*
X115350000Y-77135338D01*
X115354051Y-77094203D01*
X115364261Y-77060548D01*
X115380838Y-77029535D01*
X115403149Y-77002349D01*
X115430335Y-76980038D01*
X115461348Y-76963461D01*
X115495003Y-76953251D01*
X115536138Y-76949200D01*
X118265862Y-76949200D01*
X118306997Y-76953251D01*
X118306997Y-76953251D01*
G37*
G36*
X112459635Y-74593454D02*
G01*
X112676600Y-74659270D01*
X112676602Y-74659271D01*
X112876555Y-74766147D01*
X113051818Y-74909982D01*
X113195653Y-75085245D01*
X113297762Y-75276279D01*
X113302530Y-75285200D01*
X113346647Y-75430635D01*
X113368346Y-75502166D01*
X113385000Y-75671255D01*
X113385000Y-77084345D01*
X113375821Y-77177539D01*
X113368346Y-77253435D01*
X113306005Y-77458946D01*
X113302529Y-77470402D01*
X113195653Y-77670355D01*
X113116652Y-77766617D01*
X113051818Y-77845618D01*
X112903204Y-77967581D01*
X112876553Y-77989453D01*
X112735266Y-78064972D01*
X112676599Y-78096330D01*
X112459634Y-78162146D01*
X112234000Y-78184369D01*
X112008365Y-78162146D01*
X111791400Y-78096330D01*
X111780253Y-78090372D01*
X111591445Y-77989453D01*
X111495183Y-77910452D01*
X111416182Y-77845618D01*
X111272348Y-77670354D01*
X111246186Y-77621408D01*
X111170238Y-77479320D01*
X111156625Y-77458946D01*
X111139298Y-77441619D01*
X111118923Y-77428005D01*
X111096285Y-77418627D01*
X111072251Y-77413847D01*
X111047747Y-77413847D01*
X111023714Y-77418627D01*
X111001075Y-77428005D01*
X110980701Y-77441618D01*
X110963374Y-77458945D01*
X110949760Y-77479320D01*
X110940382Y-77501958D01*
X110935602Y-77525992D01*
X110935000Y-77538244D01*
X110935000Y-77678800D01*
X109333000Y-77678800D01*
X109333000Y-75076800D01*
X110935000Y-75076800D01*
X110935000Y-75217355D01*
X110937402Y-75241741D01*
X110944515Y-75265190D01*
X110956066Y-75286801D01*
X110971611Y-75305743D01*
X110990553Y-75321288D01*
X111012164Y-75332839D01*
X111035613Y-75339952D01*
X111059999Y-75342354D01*
X111084385Y-75339952D01*
X111107834Y-75332839D01*
X111129445Y-75321288D01*
X111148387Y-75305743D01*
X111170238Y-75276279D01*
X111272348Y-75085246D01*
X111416183Y-74909982D01*
X111591446Y-74766147D01*
X111791399Y-74659271D01*
X111791401Y-74659270D01*
X112008366Y-74593454D01*
X112234000Y-74571231D01*
X112459635Y-74593454D01*
X112459635Y-74593454D01*
G37*
G36*
X104259635Y-74593454D02*
G01*
X104476600Y-74659270D01*
X104476602Y-74659271D01*
X104676555Y-74766147D01*
X104851818Y-74909982D01*
X104995653Y-75085245D01*
X105097762Y-75276279D01*
X105102530Y-75285200D01*
X105146647Y-75430635D01*
X105168986Y-75504275D01*
X105172908Y-75523996D01*
X105182284Y-75546635D01*
X105195897Y-75567010D01*
X105213223Y-75584338D01*
X105233597Y-75597953D01*
X105256236Y-75607331D01*
X105280269Y-75612113D01*
X105304773Y-75612114D01*
X105328806Y-75607334D01*
X105351445Y-75597958D01*
X105371820Y-75584345D01*
X105389148Y-75567019D01*
X105402765Y-75546641D01*
X105464772Y-75430635D01*
X105564868Y-75308667D01*
X105686836Y-75208571D01*
X105825988Y-75134192D01*
X105876319Y-75118925D01*
X105976978Y-75088390D01*
X106134000Y-75072925D01*
X106291023Y-75088390D01*
X106391682Y-75118925D01*
X106442013Y-75134192D01*
X106581165Y-75208571D01*
X106703133Y-75308667D01*
X106803229Y-75430635D01*
X106877608Y-75569787D01*
X106890447Y-75612113D01*
X106923410Y-75720777D01*
X106935000Y-75838455D01*
X106935000Y-76917145D01*
X106923410Y-77034823D01*
X106905397Y-77094203D01*
X106877608Y-77185813D01*
X106853134Y-77231600D01*
X106803229Y-77324965D01*
X106703133Y-77446933D01*
X106606798Y-77525992D01*
X106581164Y-77547029D01*
X106442012Y-77621408D01*
X106391681Y-77636675D01*
X106291022Y-77667210D01*
X106134000Y-77682675D01*
X105976977Y-77667210D01*
X105876318Y-77636675D01*
X105825987Y-77621408D01*
X105686835Y-77547029D01*
X105661201Y-77525992D01*
X105564867Y-77446933D01*
X105464771Y-77324964D01*
X105426537Y-77253433D01*
X105402765Y-77208960D01*
X105389151Y-77188586D01*
X105371824Y-77171259D01*
X105351450Y-77157645D01*
X105328811Y-77148268D01*
X105304777Y-77143488D01*
X105280273Y-77143488D01*
X105256240Y-77148269D01*
X105233601Y-77157646D01*
X105213227Y-77171260D01*
X105195900Y-77188587D01*
X105182286Y-77208961D01*
X105172909Y-77231600D01*
X105168988Y-77251317D01*
X105168346Y-77253433D01*
X105168346Y-77253435D01*
X105102530Y-77470399D01*
X105102529Y-77470402D01*
X104995653Y-77670355D01*
X104916652Y-77766617D01*
X104851818Y-77845618D01*
X104703204Y-77967581D01*
X104676553Y-77989453D01*
X104535266Y-78064972D01*
X104476599Y-78096330D01*
X104259634Y-78162146D01*
X104034000Y-78184369D01*
X103808365Y-78162146D01*
X103591400Y-78096330D01*
X103580253Y-78090372D01*
X103391445Y-77989453D01*
X103295183Y-77910452D01*
X103216182Y-77845618D01*
X103072348Y-77670354D01*
X103046186Y-77621408D01*
X102965471Y-77470401D01*
X102961996Y-77458945D01*
X102899654Y-77253434D01*
X102891561Y-77171260D01*
X102883000Y-77084344D01*
X102883000Y-75671255D01*
X102899654Y-75502166D01*
X102921353Y-75430635D01*
X102965470Y-75285200D01*
X103046186Y-75134192D01*
X103072348Y-75085246D01*
X103216183Y-74909982D01*
X103391446Y-74766147D01*
X103591399Y-74659271D01*
X103591401Y-74659270D01*
X103808366Y-74593454D01*
X104034000Y-74571231D01*
X104259635Y-74593454D01*
X104259635Y-74593454D01*
G37*
G36*
X108291023Y-75088390D02*
G01*
X108391682Y-75118925D01*
X108442013Y-75134192D01*
X108581165Y-75208571D01*
X108703133Y-75308667D01*
X108803229Y-75430635D01*
X108877608Y-75569787D01*
X108890447Y-75612113D01*
X108923410Y-75720777D01*
X108935000Y-75838455D01*
X108935000Y-76917145D01*
X108923410Y-77034823D01*
X108905397Y-77094203D01*
X108877608Y-77185813D01*
X108853134Y-77231600D01*
X108803229Y-77324965D01*
X108703133Y-77446933D01*
X108606798Y-77525992D01*
X108581164Y-77547029D01*
X108442012Y-77621408D01*
X108391681Y-77636675D01*
X108291022Y-77667210D01*
X108134000Y-77682675D01*
X107976977Y-77667210D01*
X107876318Y-77636675D01*
X107825987Y-77621408D01*
X107686835Y-77547029D01*
X107661201Y-77525992D01*
X107564867Y-77446933D01*
X107464771Y-77324964D01*
X107426537Y-77253433D01*
X107390392Y-77185812D01*
X107359613Y-77084345D01*
X107344590Y-77034822D01*
X107333000Y-76917144D01*
X107333001Y-75838455D01*
X107344591Y-75720777D01*
X107377554Y-75612113D01*
X107390393Y-75569787D01*
X107464772Y-75430635D01*
X107564868Y-75308667D01*
X107686836Y-75208571D01*
X107825988Y-75134192D01*
X107876319Y-75118925D01*
X107976978Y-75088390D01*
X108134000Y-75072925D01*
X108291023Y-75088390D01*
X108291023Y-75088390D01*
G37*
M02*
