M48
INCH,TZ
T1C0.0157
T2C0.0354
T3C0.0394
T4C0.0591
T5C0.0630
%
G90
G05
T1
X43006Y-44727
X43998Y-40265
X44623Y-41231
X45930Y-42576
X48269Y-36960
X49410Y-39349
T2
X41785Y-30070
X42572Y-30070
X43360Y-30070
T3
X66195Y-39640
X66195Y-40640
X66195Y-41640
X66195Y-42640
X66195Y-43640
X67195Y-39640
X67195Y-40640
X67195Y-41640
X67195Y-42640
X67195Y-43640
X37141Y-46565
X38126Y-46565
X39110Y-46565
X61726Y-46565
X62711Y-46565
X63695Y-46565
X66195Y-32610
X66195Y-33610
X66195Y-34610
X66195Y-35610
X67195Y-32610
X67195Y-33610
X67195Y-34610
X67195Y-35610
X49434Y-46565
X50418Y-46565
X51402Y-46565
T4
X53040Y-31770
X53040Y-36770
X57540Y-31770
X57540Y-36770
X40958Y-30070
X44187Y-30070
X59785Y-31770
X59785Y-36770
X64285Y-31770
X64285Y-36770
T5
X36235Y-32819
X38085Y-31638
X38085Y-34000
T0
M30
