G04 #@! TF.GenerationSoftware,KiCad,Pcbnew,(5.1.4)-1*
G04 #@! TF.CreationDate,2020-06-09T23:55:30+02:00*
G04 #@! TF.ProjectId,talkbox,74616c6b-626f-4782-9e6b-696361645f70,1.0*
G04 #@! TF.SameCoordinates,Original*
G04 #@! TF.FileFunction,Legend,Bot*
G04 #@! TF.FilePolarity,Positive*
%FSLAX46Y46*%
G04 Gerber Fmt 4.6, Leading zero omitted, Abs format (unit mm)*
G04 Created by KiCad (PCBNEW (5.1.4)-1) date 2020-06-09 23:55:30*
%MOMM*%
%LPD*%
G04 APERTURE LIST*
%ADD10C,0.100000*%
G04 APERTURE END LIST*
D10*
X171680047Y-86379857D02*
X171680047Y-86879857D01*
X171680047Y-86403666D02*
X171632428Y-86379857D01*
X171537190Y-86379857D01*
X171489571Y-86403666D01*
X171465761Y-86427476D01*
X171441952Y-86475095D01*
X171441952Y-86617952D01*
X171465761Y-86665571D01*
X171489571Y-86689380D01*
X171537190Y-86713190D01*
X171632428Y-86713190D01*
X171680047Y-86689380D01*
X171013380Y-86713190D02*
X171013380Y-86451285D01*
X171037190Y-86403666D01*
X171084809Y-86379857D01*
X171180047Y-86379857D01*
X171227666Y-86403666D01*
X171013380Y-86689380D02*
X171061000Y-86713190D01*
X171180047Y-86713190D01*
X171227666Y-86689380D01*
X171251476Y-86641761D01*
X171251476Y-86594142D01*
X171227666Y-86546523D01*
X171180047Y-86522714D01*
X171061000Y-86522714D01*
X171013380Y-86498904D01*
X170894333Y-86760809D02*
X170513380Y-86760809D01*
X170322904Y-86713190D02*
X170370523Y-86689380D01*
X170394333Y-86665571D01*
X170418142Y-86617952D01*
X170418142Y-86475095D01*
X170394333Y-86427476D01*
X170370523Y-86403666D01*
X170322904Y-86379857D01*
X170251476Y-86379857D01*
X170203857Y-86403666D01*
X170180047Y-86427476D01*
X170156238Y-86475095D01*
X170156238Y-86617952D01*
X170180047Y-86665571D01*
X170203857Y-86689380D01*
X170251476Y-86713190D01*
X170322904Y-86713190D01*
X169727666Y-86379857D02*
X169727666Y-86713190D01*
X169941952Y-86379857D02*
X169941952Y-86641761D01*
X169918142Y-86689380D01*
X169870523Y-86713190D01*
X169799095Y-86713190D01*
X169751476Y-86689380D01*
X169727666Y-86665571D01*
X169561000Y-86379857D02*
X169370523Y-86379857D01*
X169489571Y-86213190D02*
X169489571Y-86641761D01*
X169465761Y-86689380D01*
X169418142Y-86713190D01*
X169370523Y-86713190D01*
X168828114Y-86751290D02*
X168828114Y-86251290D01*
X168828114Y-86727480D02*
X168875733Y-86751290D01*
X168970971Y-86751290D01*
X169018590Y-86727480D01*
X169042400Y-86703671D01*
X169066209Y-86656052D01*
X169066209Y-86513195D01*
X169042400Y-86465576D01*
X169018590Y-86441766D01*
X168970971Y-86417957D01*
X168875733Y-86417957D01*
X168828114Y-86441766D01*
X168590019Y-86751290D02*
X168590019Y-86417957D01*
X168590019Y-86513195D02*
X168566209Y-86465576D01*
X168542400Y-86441766D01*
X168494780Y-86417957D01*
X168447161Y-86417957D01*
X168280495Y-86751290D02*
X168280495Y-86417957D01*
X168280495Y-86251290D02*
X168304304Y-86275100D01*
X168280495Y-86298909D01*
X168256685Y-86275100D01*
X168280495Y-86251290D01*
X168280495Y-86298909D01*
X168090019Y-86417957D02*
X167970971Y-86751290D01*
X167851923Y-86417957D01*
X167470971Y-86727480D02*
X167518590Y-86751290D01*
X167613828Y-86751290D01*
X167661447Y-86727480D01*
X167685257Y-86679861D01*
X167685257Y-86489385D01*
X167661447Y-86441766D01*
X167613828Y-86417957D01*
X167518590Y-86417957D01*
X167470971Y-86441766D01*
X167447161Y-86489385D01*
X167447161Y-86537004D01*
X167685257Y-86584623D01*
X167232876Y-86751290D02*
X167232876Y-86417957D01*
X167232876Y-86513195D02*
X167209066Y-86465576D01*
X167185257Y-86441766D01*
X167137638Y-86417957D01*
X167090019Y-86417957D01*
X166923352Y-86560814D02*
X166542400Y-86560814D01*
X166732876Y-86751290D02*
X166732876Y-86370338D01*
X171146719Y-88932557D02*
X171027671Y-89265890D01*
X170908623Y-88932557D01*
X170503861Y-89242080D02*
X170551480Y-89265890D01*
X170646719Y-89265890D01*
X170694338Y-89242080D01*
X170718147Y-89218271D01*
X170741957Y-89170652D01*
X170741957Y-89027795D01*
X170718147Y-88980176D01*
X170694338Y-88956366D01*
X170646719Y-88932557D01*
X170551480Y-88932557D01*
X170503861Y-88956366D01*
X170075290Y-89242080D02*
X170122909Y-89265890D01*
X170218147Y-89265890D01*
X170265766Y-89242080D01*
X170289576Y-89218271D01*
X170313385Y-89170652D01*
X170313385Y-89027795D01*
X170289576Y-88980176D01*
X170265766Y-88956366D01*
X170218147Y-88932557D01*
X170122909Y-88932557D01*
X170075290Y-88956366D01*
X168429738Y-88932557D02*
X168429738Y-89337319D01*
X168453547Y-89384938D01*
X168477357Y-89408747D01*
X168524976Y-89432557D01*
X168596404Y-89432557D01*
X168644023Y-89408747D01*
X168429738Y-89242080D02*
X168477357Y-89265890D01*
X168572595Y-89265890D01*
X168620214Y-89242080D01*
X168644023Y-89218271D01*
X168667833Y-89170652D01*
X168667833Y-89027795D01*
X168644023Y-88980176D01*
X168620214Y-88956366D01*
X168572595Y-88932557D01*
X168477357Y-88932557D01*
X168429738Y-88956366D01*
X168191642Y-88932557D02*
X168191642Y-89265890D01*
X168191642Y-88980176D02*
X168167833Y-88956366D01*
X168120214Y-88932557D01*
X168048785Y-88932557D01*
X168001166Y-88956366D01*
X167977357Y-89003985D01*
X167977357Y-89265890D01*
X167524976Y-89265890D02*
X167524976Y-88765890D01*
X167524976Y-89242080D02*
X167572595Y-89265890D01*
X167667833Y-89265890D01*
X167715452Y-89242080D01*
X167739261Y-89218271D01*
X167763071Y-89170652D01*
X167763071Y-89027795D01*
X167739261Y-88980176D01*
X167715452Y-88956366D01*
X167667833Y-88932557D01*
X167572595Y-88932557D01*
X167524976Y-88956366D01*
X168391638Y-91599557D02*
X168391638Y-92004319D01*
X168415447Y-92051938D01*
X168439257Y-92075747D01*
X168486876Y-92099557D01*
X168558304Y-92099557D01*
X168605923Y-92075747D01*
X168391638Y-91909080D02*
X168439257Y-91932890D01*
X168534495Y-91932890D01*
X168582114Y-91909080D01*
X168605923Y-91885271D01*
X168629733Y-91837652D01*
X168629733Y-91694795D01*
X168605923Y-91647176D01*
X168582114Y-91623366D01*
X168534495Y-91599557D01*
X168439257Y-91599557D01*
X168391638Y-91623366D01*
X168153542Y-91599557D02*
X168153542Y-91932890D01*
X168153542Y-91647176D02*
X168129733Y-91623366D01*
X168082114Y-91599557D01*
X168010685Y-91599557D01*
X167963066Y-91623366D01*
X167939257Y-91670985D01*
X167939257Y-91932890D01*
X167486876Y-91932890D02*
X167486876Y-91432890D01*
X167486876Y-91909080D02*
X167534495Y-91932890D01*
X167629733Y-91932890D01*
X167677352Y-91909080D01*
X167701161Y-91885271D01*
X167724971Y-91837652D01*
X167724971Y-91694795D01*
X167701161Y-91647176D01*
X167677352Y-91623366D01*
X167629733Y-91599557D01*
X167534495Y-91599557D01*
X167486876Y-91623366D01*
X171455447Y-91599557D02*
X171455447Y-92099557D01*
X171455447Y-91623366D02*
X171407828Y-91599557D01*
X171312590Y-91599557D01*
X171264971Y-91623366D01*
X171241161Y-91647176D01*
X171217352Y-91694795D01*
X171217352Y-91837652D01*
X171241161Y-91885271D01*
X171264971Y-91909080D01*
X171312590Y-91932890D01*
X171407828Y-91932890D01*
X171455447Y-91909080D01*
X170788780Y-91932890D02*
X170788780Y-91670985D01*
X170812590Y-91623366D01*
X170860209Y-91599557D01*
X170955447Y-91599557D01*
X171003066Y-91623366D01*
X170788780Y-91909080D02*
X170836400Y-91932890D01*
X170955447Y-91932890D01*
X171003066Y-91909080D01*
X171026876Y-91861461D01*
X171026876Y-91813842D01*
X171003066Y-91766223D01*
X170955447Y-91742414D01*
X170836400Y-91742414D01*
X170788780Y-91718604D01*
X170669733Y-91980509D02*
X170288780Y-91980509D01*
X170169733Y-91932890D02*
X170169733Y-91599557D01*
X170169733Y-91432890D02*
X170193542Y-91456700D01*
X170169733Y-91480509D01*
X170145923Y-91456700D01*
X170169733Y-91432890D01*
X170169733Y-91480509D01*
X169931638Y-91599557D02*
X169931638Y-91932890D01*
X169931638Y-91647176D02*
X169907828Y-91623366D01*
X169860209Y-91599557D01*
X169788780Y-91599557D01*
X169741161Y-91623366D01*
X169717352Y-91670985D01*
X169717352Y-91932890D01*
X168351152Y-104632890D02*
X168398771Y-104609080D01*
X168422580Y-104561461D01*
X168422580Y-104132890D01*
X167970200Y-104609080D02*
X168017819Y-104632890D01*
X168113057Y-104632890D01*
X168160676Y-104609080D01*
X168184485Y-104561461D01*
X168184485Y-104370985D01*
X168160676Y-104323366D01*
X168113057Y-104299557D01*
X168017819Y-104299557D01*
X167970200Y-104323366D01*
X167946390Y-104370985D01*
X167946390Y-104418604D01*
X168184485Y-104466223D01*
X167517819Y-104632890D02*
X167517819Y-104132890D01*
X167517819Y-104609080D02*
X167565438Y-104632890D01*
X167660676Y-104632890D01*
X167708295Y-104609080D01*
X167732104Y-104585271D01*
X167755914Y-104537652D01*
X167755914Y-104394795D01*
X167732104Y-104347176D01*
X167708295Y-104323366D01*
X167660676Y-104299557D01*
X167565438Y-104299557D01*
X167517819Y-104323366D01*
X171108619Y-104248757D02*
X170989571Y-104582090D01*
X170870523Y-104248757D01*
X170465761Y-104558280D02*
X170513380Y-104582090D01*
X170608619Y-104582090D01*
X170656238Y-104558280D01*
X170680047Y-104534471D01*
X170703857Y-104486852D01*
X170703857Y-104343995D01*
X170680047Y-104296376D01*
X170656238Y-104272566D01*
X170608619Y-104248757D01*
X170513380Y-104248757D01*
X170465761Y-104272566D01*
X170037190Y-104558280D02*
X170084809Y-104582090D01*
X170180047Y-104582090D01*
X170227666Y-104558280D01*
X170251476Y-104534471D01*
X170275285Y-104486852D01*
X170275285Y-104343995D01*
X170251476Y-104296376D01*
X170227666Y-104272566D01*
X170180047Y-104248757D01*
X170084809Y-104248757D01*
X170037190Y-104272566D01*
X171907828Y-106839557D02*
X171907828Y-107268128D01*
X171931638Y-107315747D01*
X171979257Y-107339557D01*
X172003066Y-107339557D01*
X171907828Y-106672890D02*
X171931638Y-106696700D01*
X171907828Y-106720509D01*
X171884019Y-106696700D01*
X171907828Y-106672890D01*
X171907828Y-106720509D01*
X171455447Y-107172890D02*
X171455447Y-106910985D01*
X171479257Y-106863366D01*
X171526876Y-106839557D01*
X171622114Y-106839557D01*
X171669733Y-106863366D01*
X171455447Y-107149080D02*
X171503066Y-107172890D01*
X171622114Y-107172890D01*
X171669733Y-107149080D01*
X171693542Y-107101461D01*
X171693542Y-107053842D01*
X171669733Y-107006223D01*
X171622114Y-106982414D01*
X171503066Y-106982414D01*
X171455447Y-106958604D01*
X171003066Y-107149080D02*
X171050685Y-107172890D01*
X171145923Y-107172890D01*
X171193542Y-107149080D01*
X171217352Y-107125271D01*
X171241161Y-107077652D01*
X171241161Y-106934795D01*
X171217352Y-106887176D01*
X171193542Y-106863366D01*
X171145923Y-106839557D01*
X171050685Y-106839557D01*
X171003066Y-106863366D01*
X170788780Y-107172890D02*
X170788780Y-106672890D01*
X170741161Y-106982414D02*
X170598304Y-107172890D01*
X170598304Y-106839557D02*
X170788780Y-107030033D01*
X170074495Y-106839557D02*
X169884019Y-106839557D01*
X170003066Y-106672890D02*
X170003066Y-107101461D01*
X169979257Y-107149080D01*
X169931638Y-107172890D01*
X169884019Y-107172890D01*
X169717352Y-107172890D02*
X169717352Y-106839557D01*
X169717352Y-106672890D02*
X169741161Y-106696700D01*
X169717352Y-106720509D01*
X169693542Y-106696700D01*
X169717352Y-106672890D01*
X169717352Y-106720509D01*
X169479257Y-106839557D02*
X169479257Y-107339557D01*
X169479257Y-106863366D02*
X169431638Y-106839557D01*
X169336400Y-106839557D01*
X169288780Y-106863366D01*
X169264971Y-106887176D01*
X169241161Y-106934795D01*
X169241161Y-107077652D01*
X169264971Y-107125271D01*
X169288780Y-107149080D01*
X169336400Y-107172890D01*
X169431638Y-107172890D01*
X169479257Y-107149080D01*
X168867828Y-107198290D02*
X168867828Y-106864957D01*
X168867828Y-106698290D02*
X168891638Y-106722100D01*
X168867828Y-106745909D01*
X168844019Y-106722100D01*
X168867828Y-106698290D01*
X168867828Y-106745909D01*
X168629733Y-106864957D02*
X168629733Y-107198290D01*
X168629733Y-106912576D02*
X168605923Y-106888766D01*
X168558304Y-106864957D01*
X168486876Y-106864957D01*
X168439257Y-106888766D01*
X168415447Y-106936385D01*
X168415447Y-107198290D01*
X168177352Y-106864957D02*
X168177352Y-107364957D01*
X168177352Y-106888766D02*
X168129733Y-106864957D01*
X168034495Y-106864957D01*
X167986876Y-106888766D01*
X167963066Y-106912576D01*
X167939257Y-106960195D01*
X167939257Y-107103052D01*
X167963066Y-107150671D01*
X167986876Y-107174480D01*
X168034495Y-107198290D01*
X168129733Y-107198290D01*
X168177352Y-107174480D01*
X167510685Y-106864957D02*
X167510685Y-107198290D01*
X167724971Y-106864957D02*
X167724971Y-107126861D01*
X167701161Y-107174480D01*
X167653542Y-107198290D01*
X167582114Y-107198290D01*
X167534495Y-107174480D01*
X167510685Y-107150671D01*
X167344019Y-106864957D02*
X167153542Y-106864957D01*
X167272590Y-106698290D02*
X167272590Y-107126861D01*
X167248780Y-107174480D01*
X167201161Y-107198290D01*
X167153542Y-107198290D01*
X171807047Y-112160857D02*
X171807047Y-112660857D01*
X171807047Y-112184666D02*
X171759428Y-112160857D01*
X171664190Y-112160857D01*
X171616571Y-112184666D01*
X171592761Y-112208476D01*
X171568952Y-112256095D01*
X171568952Y-112398952D01*
X171592761Y-112446571D01*
X171616571Y-112470380D01*
X171664190Y-112494190D01*
X171759428Y-112494190D01*
X171807047Y-112470380D01*
X171140380Y-112494190D02*
X171140380Y-112232285D01*
X171164190Y-112184666D01*
X171211809Y-112160857D01*
X171307047Y-112160857D01*
X171354666Y-112184666D01*
X171140380Y-112470380D02*
X171188000Y-112494190D01*
X171307047Y-112494190D01*
X171354666Y-112470380D01*
X171378476Y-112422761D01*
X171378476Y-112375142D01*
X171354666Y-112327523D01*
X171307047Y-112303714D01*
X171188000Y-112303714D01*
X171140380Y-112279904D01*
X171021333Y-112541809D02*
X170640380Y-112541809D01*
X170449904Y-112494190D02*
X170497523Y-112470380D01*
X170521333Y-112446571D01*
X170545142Y-112398952D01*
X170545142Y-112256095D01*
X170521333Y-112208476D01*
X170497523Y-112184666D01*
X170449904Y-112160857D01*
X170378476Y-112160857D01*
X170330857Y-112184666D01*
X170307047Y-112208476D01*
X170283238Y-112256095D01*
X170283238Y-112398952D01*
X170307047Y-112446571D01*
X170330857Y-112470380D01*
X170378476Y-112494190D01*
X170449904Y-112494190D01*
X169854666Y-112160857D02*
X169854666Y-112494190D01*
X170068952Y-112160857D02*
X170068952Y-112422761D01*
X170045142Y-112470380D01*
X169997523Y-112494190D01*
X169926095Y-112494190D01*
X169878476Y-112470380D01*
X169854666Y-112446571D01*
X169688000Y-112160857D02*
X169497523Y-112160857D01*
X169616571Y-111994190D02*
X169616571Y-112422761D01*
X169592761Y-112470380D01*
X169545142Y-112494190D01*
X169497523Y-112494190D01*
X168951909Y-112481490D02*
X168951909Y-111981490D01*
X168832861Y-111981490D01*
X168761433Y-112005300D01*
X168713814Y-112052919D01*
X168690004Y-112100538D01*
X168666195Y-112195776D01*
X168666195Y-112267204D01*
X168690004Y-112362442D01*
X168713814Y-112410061D01*
X168761433Y-112457680D01*
X168832861Y-112481490D01*
X168951909Y-112481490D01*
X168451909Y-112481490D02*
X168451909Y-112148157D01*
X168451909Y-112243395D02*
X168428100Y-112195776D01*
X168404290Y-112171966D01*
X168356671Y-112148157D01*
X168309052Y-112148157D01*
X168142385Y-112481490D02*
X168142385Y-112148157D01*
X168142385Y-111981490D02*
X168166195Y-112005300D01*
X168142385Y-112029109D01*
X168118576Y-112005300D01*
X168142385Y-111981490D01*
X168142385Y-112029109D01*
X167951909Y-112148157D02*
X167832861Y-112481490D01*
X167713814Y-112148157D01*
X167332861Y-112457680D02*
X167380480Y-112481490D01*
X167475719Y-112481490D01*
X167523338Y-112457680D01*
X167547147Y-112410061D01*
X167547147Y-112219585D01*
X167523338Y-112171966D01*
X167475719Y-112148157D01*
X167380480Y-112148157D01*
X167332861Y-112171966D01*
X167309052Y-112219585D01*
X167309052Y-112267204D01*
X167547147Y-112314823D01*
X167094766Y-112481490D02*
X167094766Y-112148157D01*
X167094766Y-112243395D02*
X167070957Y-112195776D01*
X167047147Y-112171966D01*
X166999528Y-112148157D01*
X166951909Y-112148157D01*
X166785242Y-112291014D02*
X166404290Y-112291014D01*
X166594766Y-112481490D02*
X166594766Y-112100538D01*
M02*
